<svg width="16" height="16" viewBox="0 0 16 16" fill="none" xmlns="http://www.w3.org/2000/svg">
<path d="M3.02051 12.4168C3.72884 11.8891 4.49967 11.4724 5.33301 11.1668C6.16634 10.8613 7.05523 10.7085 7.99967 10.7085C8.94412 10.7085 9.83301 10.8613 10.6663 11.1668C11.4997 11.4724 12.2705 11.8891 12.9788 12.4168C13.4927 11.8474 13.9025 11.1877 14.208 10.4377C14.5136 9.68766 14.6663 8.87516 14.6663 8.00016C14.6663 6.15294 14.0172 4.57989 12.7188 3.281C11.42 1.98266 9.8469 1.3335 7.99967 1.3335C6.15245 1.3335 4.57967 1.98266 3.28134 3.281C1.98245 4.57989 1.33301 6.15294 1.33301 8.00016C1.33301 8.87516 1.48579 9.68766 1.79134 10.4377C2.0969 11.1877 2.50662 11.8474 3.02051 12.4168ZM7.99967 8.62516C7.23579 8.62516 6.59356 8.36461 6.07301 7.8435C5.5519 7.32294 5.29134 6.68072 5.29134 5.91683C5.29134 5.15294 5.5519 4.51072 6.07301 3.99016C6.59356 3.46905 7.23579 3.2085 7.99967 3.2085C8.76356 3.2085 9.40579 3.46905 9.92634 3.99016C10.4475 4.51072 10.708 5.15294 10.708 5.91683C10.708 6.68072 10.4475 7.32294 9.92634 7.8435C9.40579 8.36461 8.76356 8.62516 7.99967 8.62516ZM7.99967 15.9168C6.90245 15.9168 5.87134 15.7085 4.90634 15.2918C3.94079 14.8752 3.10384 14.3127 2.39551 13.6043C1.68717 12.896 1.12467 12.0591 0.708008 11.0935C0.291341 10.1285 0.0830078 9.09739 0.0830078 8.00016C0.0830078 6.90294 0.291341 5.87155 0.708008 4.906C1.12467 3.941 1.68717 3.10433 2.39551 2.396C3.10384 1.68766 3.94079 1.12516 4.90634 0.708496C5.87134 0.291829 6.90245 0.0834961 7.99967 0.0834961C9.0969 0.0834961 10.1283 0.291829 11.0938 0.708496C12.0588 1.12516 12.8955 1.68766 13.6038 2.396C14.3122 3.10433 14.8747 3.941 15.2913 4.906C15.708 5.87155 15.9163 6.90294 15.9163 8.00016C15.9163 9.09739 15.708 10.1285 15.2913 11.0935C14.8747 12.0591 14.3122 12.896 13.6038 13.6043C12.8955 14.3127 12.0588 14.8752 11.0938 15.2918C10.1283 15.7085 9.0969 15.9168 7.99967 15.9168Z" fill="#8495BA"/>
</svg>
