<svg width="20" height="20" viewBox="0 0 20 20" fill="none" xmlns="http://www.w3.org/2000/svg">
<mask id="mask0_3190_17267" style="mask-type:alpha" maskUnits="userSpaceOnUse" x="0" y="0" width="20" height="20">
<rect width="20" height="20" fill="#D9D9D9"/>
</mask>
<g mask="url(#mask0_3190_17267)">
<path d="M9.99999 15.8332C9.76388 15.8332 9.5661 15.7532 9.40666 15.5932C9.24666 15.4337 9.16666 15.2359 9.16666 14.9998V10.8332H4.99999C4.76388 10.8332 4.56582 10.7532 4.40582 10.5932C4.24638 10.4337 4.16666 10.2359 4.16666 9.99984C4.16666 9.76373 4.24638 9.56567 4.40582 9.40567C4.56582 9.24623 4.76388 9.1665 4.99999 9.1665H9.16666V4.99984C9.16666 4.76373 9.24666 4.56567 9.40666 4.40567C9.5661 4.24623 9.76388 4.1665 9.99999 4.1665C10.2361 4.1665 10.4342 4.24623 10.5942 4.40567C10.7536 4.56567 10.8333 4.76373 10.8333 4.99984V9.1665H15C15.2361 9.1665 15.4339 9.24623 15.5933 9.40567C15.7533 9.56567 15.8333 9.76373 15.8333 9.99984C15.8333 10.2359 15.7533 10.4337 15.5933 10.5932C15.4339 10.7532 15.2361 10.8332 15 10.8332H10.8333V14.9998C10.8333 15.2359 10.7536 15.4337 10.5942 15.5932C10.4342 15.7532 10.2361 15.8332 9.99999 15.8332Z" fill="white"/>
</g>
</svg>
