<svg width="20" height="20" viewBox="0 0 20 20" fill="none" xmlns="http://www.w3.org/2000/svg">
<mask id="mask0_3403_19186" style="mask-type:alpha" maskUnits="userSpaceOnUse" x="0" y="0" width="20" height="20">
<rect width="20" height="20" fill="#D9D9D9"/>
</mask>
<g mask="url(#mask0_3403_19186)">
<path d="M9.99996 15.8327C9.76385 15.8327 9.56607 15.7527 9.40663 15.5927C9.24663 15.4332 9.16663 15.2355 9.16663 14.9993V10.8327H4.99996C4.76385 10.8327 4.56579 10.7527 4.40579 10.5927C4.24635 10.4332 4.16663 10.2355 4.16663 9.99935C4.16663 9.76324 4.24635 9.56518 4.40579 9.40518C4.56579 9.24574 4.76385 9.16602 4.99996 9.16602H9.16663V4.99935C9.16663 4.76324 9.24663 4.56518 9.40663 4.40518C9.56607 4.24574 9.76385 4.16602 9.99996 4.16602C10.2361 4.16602 10.4341 4.24574 10.5941 4.40518C10.7536 4.56518 10.8333 4.76324 10.8333 4.99935V9.16602H15C15.2361 9.16602 15.4338 9.24574 15.5933 9.40518C15.7533 9.56518 15.8333 9.76324 15.8333 9.99935C15.8333 10.2355 15.7533 10.4332 15.5933 10.5927C15.4338 10.7527 15.2361 10.8327 15 10.8327H10.8333V14.9993C10.8333 15.2355 10.7536 15.4332 10.5941 15.5927C10.4341 15.7527 10.2361 15.8327 9.99996 15.8327Z" fill="white"/>
</g>
</svg>
