<svg width="18" height="18" viewBox="0 0 18 18" fill="none" xmlns="http://www.w3.org/2000/svg">
<mask id="mask0_790_2612" style="mask-type:alpha" maskUnits="userSpaceOnUse" x="0" y="0" width="18" height="18">
<rect width="18" height="18" fill="#D9D9D9"/>
</mask>
<g mask="url(#mask0_790_2612)">
<path d="M5.25 12.75C4.2125 12.75 3.32825 12.3842 2.59725 11.6528C1.86575 10.9217 1.5 10.0375 1.5 9C1.5 7.9625 1.86575 7.078 2.59725 6.3465C3.32825 5.6155 4.2125 5.25 5.25 5.25H7.5C7.7125 5.25 7.89075 5.32175 8.03475 5.46525C8.17825 5.60925 8.25 5.7875 8.25 6C8.25 6.2125 8.17825 6.3905 8.03475 6.534C7.89075 6.678 7.7125 6.75 7.5 6.75H5.25C4.625 6.75 4.09375 6.96875 3.65625 7.40625C3.21875 7.84375 3 8.375 3 9C3 9.625 3.21875 10.1562 3.65625 10.5938C4.09375 11.0312 4.625 11.25 5.25 11.25H7.5C7.7125 11.25 7.89075 11.3217 8.03475 11.4653C8.17825 11.6092 8.25 11.7875 8.25 12C8.25 12.2125 8.17825 12.3905 8.03475 12.534C7.89075 12.678 7.7125 12.75 7.5 12.75H5.25ZM6.75 9.75C6.5375 9.75 6.3595 9.678 6.216 9.534C6.072 9.3905 6 9.2125 6 9C6 8.7875 6.072 8.60925 6.216 8.46525C6.3595 8.32175 6.5375 8.25 6.75 8.25H11.25C11.4625 8.25 11.6407 8.32175 11.7847 8.46525C11.9283 8.60925 12 8.7875 12 9C12 9.2125 11.9283 9.3905 11.7847 9.534C11.6407 9.678 11.4625 9.75 11.25 9.75H6.75ZM16.5 9H15C15 8.375 14.7812 7.84375 14.3438 7.40625C13.9062 6.96875 13.375 6.75 12.75 6.75H10.5C10.2875 6.75 10.1095 6.678 9.966 6.534C9.822 6.3905 9.75 6.2125 9.75 6C9.75 5.7875 9.822 5.60925 9.966 5.46525C10.1095 5.32175 10.2875 5.25 10.5 5.25H12.75C13.7875 5.25 14.672 5.6155 15.4035 6.3465C16.1345 7.078 16.5 7.9625 16.5 9ZM13.5 15C13.2875 15 13.1095 14.928 12.966 14.784C12.822 14.6405 12.75 14.4625 12.75 14.25V12.75H11.25C11.0375 12.75 10.8595 12.678 10.716 12.534C10.572 12.3905 10.5 12.2125 10.5 12C10.5 11.7875 10.572 11.6092 10.716 11.4653C10.8595 11.3217 11.0375 11.25 11.25 11.25H12.75V9.75C12.75 9.5375 12.822 9.35925 12.966 9.21525C13.1095 9.07175 13.2875 9 13.5 9C13.7125 9 13.8905 9.07175 14.034 9.21525C14.178 9.35925 14.25 9.5375 14.25 9.75V11.25H15.75C15.9625 11.25 16.1405 11.3217 16.284 11.4653C16.428 11.6092 16.5 11.7875 16.5 12C16.5 12.2125 16.428 12.3905 16.284 12.534C16.1405 12.678 15.9625 12.75 15.75 12.75H14.25V14.25C14.25 14.4625 14.178 14.6405 14.034 14.784C13.8905 14.928 13.7125 15 13.5 15Z" fill="#143252"/>
</g>
</svg>
