<svg width="24" height="24" viewBox="0 0 24 24" fill="none" xmlns="http://www.w3.org/2000/svg">
<g clip-path="url(#clip0_809_173)">
<path d="M12 23.9998C5.36792 23.9998 0 18.6253 0 12C0 5.36773 5.367 0 12 0C18.6323 0 23.9998 5.367 23.9998 12C23.9998 18.6317 18.6248 23.9998 12 23.9998Z" fill="#66A9DF"/>
<path d="M12 0V23.9998C18.6248 23.9998 23.9998 18.6317 23.9998 12C23.9998 5.36719 18.6323 0 12 0Z" fill="#4F84CF"/>
<path d="M12 14.8125C8.50836 14.8125 5.17914 16.3389 2.74603 19.6392C7.59118 25.4958 16.5595 25.4458 21.3393 19.5346C20.159 18.3605 17.5005 14.8125 12 14.8125Z" fill="#D6F3FE"/>
<path d="M21.3393 19.5346C19.0827 22.3249 15.6969 23.9998 12 23.9998V14.8125C17.5007 14.8125 20.159 18.3609 21.3393 19.5346Z" fill="#BDECFC"/>
<path d="M12 12.7031C9.67364 12.7031 7.78125 10.8105 7.78125 8.48437V7.07812C7.78125 4.75195 9.67364 2.85938 12 2.85938C14.3262 2.85938 16.2187 4.75195 16.2187 7.07812V8.48437C16.2187 10.8105 14.3262 12.7031 12 12.7031Z" fill="#D6F3FE"/>
<path d="M12 2.85938V12.7031C14.3264 12.7031 16.2187 10.8107 16.2187 8.48437V7.07812C16.2187 4.75177 14.3264 2.85938 12 2.85938Z" fill="#BDECFC"/>
</g>
<defs>
<clipPath id="clip0_809_173">
<rect width="24" height="24" fill="white"/>
</clipPath>
</defs>
</svg>
