<svg width="18" height="18" viewBox="0 0 18 18" fill="none" xmlns="http://www.w3.org/2000/svg">
<mask id="mask0_780_912" style="mask-type:alpha" maskUnits="userSpaceOnUse" x="0" y="0" width="18" height="18">
<rect width="18" height="18" fill="#D9D9D9"/>
</mask>
<g mask="url(#mask0_780_912)">
<path d="M10.1436 12.8248C10.0311 12.7123 9.97485 12.5778 9.97485 12.4213C9.97485 12.2653 10.0311 12.1311 10.1436 12.0186L12.6186 9.5623H3.78735C3.62485 9.5623 3.4906 9.50905 3.3846 9.40255C3.2781 9.29655 3.22485 9.1623 3.22485 8.9998C3.22485 8.8373 3.2781 8.7028 3.3846 8.5963C3.4906 8.4903 3.62485 8.4373 3.78735 8.4373H12.6186L10.1249 5.9623C10.0249 5.8498 9.97485 5.71855 9.97485 5.56855C9.97485 5.41855 10.0311 5.2873 10.1436 5.1748C10.2561 5.0498 10.3874 4.9873 10.5374 4.9873C10.6874 4.9873 10.8249 5.0498 10.9499 5.1748L14.3061 8.53105C14.3686 8.59355 14.4156 8.6653 14.4471 8.7463C14.4781 8.8278 14.4936 8.9123 14.4936 8.9998C14.4936 9.0873 14.4781 9.17155 14.4471 9.25255C14.4156 9.33405 14.3686 9.40605 14.3061 9.46855L10.9311 12.8436C10.8186 12.9561 10.6874 13.0123 10.5374 13.0123C10.3874 13.0123 10.2561 12.9498 10.1436 12.8248Z" fill="#9FA3B2"/>
</g>
</svg>
