<svg width="11" height="8" viewBox="0 0 11 8" fill="none" xmlns="http://www.w3.org/2000/svg">
<path d="M7.0167 7.40002C6.9167 7.30002 6.8667 7.18046 6.8667 7.04135C6.8667 6.90268 6.9167 6.78335 7.0167 6.68335L9.2167 4.50002H1.3667C1.22225 4.50002 1.10292 4.45268 1.0087 4.35802C0.914032 4.26379 0.866699 4.14446 0.866699 4.00002C0.866699 3.85557 0.914032 3.73602 1.0087 3.64135C1.10292 3.54713 1.22225 3.50002 1.3667 3.50002H9.2167L7.00003 1.30002C6.91114 1.20002 6.8667 1.08335 6.8667 0.950016C6.8667 0.816683 6.9167 0.700016 7.0167 0.600016C7.1167 0.488905 7.23337 0.43335 7.3667 0.43335C7.50003 0.43335 7.62226 0.488905 7.73337 0.600016L10.7167 3.58335C10.7723 3.6389 10.814 3.70268 10.842 3.77468C10.8696 3.84713 10.8834 3.92224 10.8834 4.00002C10.8834 4.07779 10.8696 4.15268 10.842 4.22468C10.814 4.29713 10.7723 4.36113 10.7167 4.41668L7.7167 7.41668C7.6167 7.51668 7.50003 7.56668 7.3667 7.56668C7.23337 7.56668 7.1167 7.51113 7.0167 7.40002Z" fill="white"/>
</svg>
