<svg width="20" height="20" viewBox="0 0 20 20" fill="none" xmlns="http://www.w3.org/2000/svg">
<mask id="mask0_2783_8113" style="mask-type:alpha" maskUnits="userSpaceOnUse" x="0" y="0" width="20" height="20">
<rect width="20" height="20" fill="#D9D9D9"/>
</mask>
<g mask="url(#mask0_2783_8113)">
<path d="M9.06242 16.0828L3.56242 10.5828C3.47909 10.4995 3.41992 10.4092 3.38492 10.312C3.35047 10.2148 3.33325 10.1106 3.33325 9.9995C3.33325 9.88839 3.35047 9.78422 3.38492 9.687C3.41992 9.58978 3.47909 9.4995 3.56242 9.41617L9.06242 3.91617C9.2152 3.76339 9.40603 3.68339 9.63492 3.67617C9.86436 3.6695 10.0624 3.7495 10.2291 3.91617C10.3958 4.06894 10.4827 4.25978 10.4899 4.48867C10.4966 4.71811 10.4166 4.91617 10.2499 5.08283L6.16659 9.16617H15.4791C15.7152 9.16617 15.9133 9.24589 16.0733 9.40533C16.2327 9.56533 16.3124 9.76339 16.3124 9.9995C16.3124 10.2356 16.2327 10.4334 16.0733 10.5928C15.9133 10.7528 15.7152 10.8328 15.4791 10.8328H6.16659L10.2499 14.9162C10.4027 15.0689 10.4827 15.2634 10.4899 15.4995C10.4966 15.7356 10.4166 15.9301 10.2499 16.0828C10.0971 16.2495 9.9027 16.3328 9.66659 16.3328C9.43047 16.3328 9.22908 16.2495 9.06242 16.0828Z" fill="#143252"/>
</g>
</svg>
