<svg width="20" height="20" viewBox="0 0 20 20" fill="none" xmlns="http://www.w3.org/2000/svg">
<mask id="mask0_1198_9679" style="mask-type:alpha" maskUnits="userSpaceOnUse" x="0" y="0" width="20" height="20">
<rect width="20" height="20" fill="#D9D9D9"/>
</mask>
<g mask="url(#mask0_1198_9679)">
<path d="M18.2292 8.60416C18.2709 8.84027 18.2986 9.07277 18.3125 9.30166C18.3264 9.5311 18.3334 9.76388 18.3334 9.99999C18.3334 11.1528 18.1145 12.2361 17.6767 13.25C17.2395 14.2639 16.6459 15.1458 15.8959 15.8958C15.1459 16.6458 14.2639 17.2394 13.25 17.6767C12.2361 18.1144 11.1528 18.3333 10 18.3333C8.84724 18.3333 7.76391 18.1144 6.75002 17.6767C5.73613 17.2394 4.85419 16.6458 4.10419 15.8958C3.35419 15.1458 2.76058 14.2639 2.32335 13.25C1.88558 12.2361 1.66669 11.1528 1.66669 9.99999C1.66669 8.84721 1.88558 7.76388 2.32335 6.74999C2.76058 5.7361 3.35419 4.85416 4.10419 4.10416C4.85419 3.35416 5.73613 2.76027 6.75002 2.32249C7.76391 1.88527 8.84724 1.66666 10 1.66666C10.7084 1.66666 11.3925 1.75332 12.0525 1.92666C12.712 2.10055 13.3334 2.34027 13.9167 2.64582C14.125 2.75693 14.2536 2.92693 14.3025 3.15582C14.3509 3.38527 14.2986 3.59721 14.1459 3.79166C14.007 3.97221 13.8264 4.09027 13.6042 4.14582C13.382 4.20138 13.1736 4.1736 12.9792 4.06249C12.5347 3.82638 12.0592 3.64582 11.5525 3.52082C11.0453 3.39582 10.5278 3.33332 10 3.33332C8.1528 3.33332 6.58002 3.98249 5.28169 5.28082C3.9828 6.57971 3.33335 8.15277 3.33335 9.99999C3.33335 11.8472 3.9828 13.4203 5.28169 14.7192C6.58002 16.0175 8.1528 16.6667 10 16.6667C11.8472 16.6667 13.4203 16.0175 14.7192 14.7192C16.0175 13.4203 16.6667 11.8472 16.6667 9.99999C16.6667 9.81943 16.6597 9.64221 16.6459 9.46832C16.632 9.29499 16.6111 9.11805 16.5834 8.93749C16.5556 8.74305 16.587 8.56249 16.6775 8.39582C16.7675 8.22916 16.8959 8.09721 17.0625 7.99999C17.2986 7.8611 17.5384 7.85749 17.7817 7.98916C18.0245 8.12138 18.1736 8.32638 18.2292 8.60416ZM8.25002 13.25L5.85419 10.8542C5.70141 10.7014 5.62863 10.5103 5.63585 10.2808C5.64252 10.0519 5.72224 9.8611 5.87502 9.70832C6.0278 9.55554 6.22224 9.47916 6.45835 9.47916C6.69446 9.47916 6.88891 9.55554 7.04169 9.70832L8.83335 11.5L16.6042 3.70832C16.757 3.55555 16.9481 3.48249 17.1775 3.48916C17.4064 3.49638 17.5972 3.57638 17.75 3.72916C17.9028 3.88193 17.9792 4.07638 17.9792 4.31249C17.9792 4.5486 17.9028 4.74305 17.75 4.89582L9.41669 13.25C9.26391 13.4028 9.06947 13.4792 8.83335 13.4792C8.59724 13.4792 8.4028 13.4028 8.25002 13.25Z" fill="#FF00FF"/>
</g>
</svg>
