<svg width="26" height="29" viewBox="0 0 26 29" fill="none" xmlns="http://www.w3.org/2000/svg">
<path d="M15.0625 16.75H8.8C8.575 16.75 8.3935 16.6815 8.2555 16.5445C8.1185 16.4065 8.05 16.225 8.05 16C8.05 15.775 8.1185 15.5935 8.2555 15.4555C8.3935 15.3185 8.575 15.25 8.8 15.25H15.0625L12.475 12.625C12.3 12.475 12.2125 12.3 12.2125 12.1C12.2125 11.9 12.3 11.725 12.475 11.575C12.625 11.4 12.8 11.3125 13 11.3125C13.2 11.3125 13.375 11.4 13.525 11.575L17.125 15.1375C17.35 15.3875 17.4625 15.675 17.4625 16C17.4625 16.325 17.35 16.6125 17.125 16.8625L13.525 20.425C13.375 20.6 13.2 20.6875 13 20.6875C12.8 20.6875 12.625 20.6 12.475 20.425C12.3 20.275 12.2125 20.1 12.2125 19.9C12.2125 19.7 12.3 19.525 12.475 19.375L15.0625 16.75ZM22.5625 26.5H3.4375C3.1875 26.5 2.969 26.406 2.782 26.218C2.594 26.031 2.5 25.8125 2.5 25.5625V6.4375C2.5 6.1875 2.594 5.969 2.782 5.782C2.969 5.594 3.1875 5.5 3.4375 5.5H22.5625C22.8125 5.5 23.031 5.594 23.218 5.782C23.406 5.969 23.5 6.1875 23.5 6.4375V25.5625C23.5 25.8125 23.406 26.031 23.218 26.218C23.031 26.406 22.8125 26.5 22.5625 26.5ZM22.5625 28C23.2375 28 23.8125 27.7625 24.2875 27.2875C24.7625 26.8125 25 26.2375 25 25.5625V6.4375C25 5.7625 24.7625 5.1875 24.2875 4.7125C23.8125 4.2375 23.2375 4 22.5625 4H15.5125C15.6625 3.225 15.4875 2.531 14.9875 1.918C14.4875 1.306 13.825 1 13 1C12.175 1 11.506 1.306 10.993 1.918C10.481 2.531 10.3125 3.225 10.4875 4H3.4375C2.7625 4 2.1875 4.2375 1.7125 4.7125C1.2375 5.1875 1 5.7625 1 6.4375V25.5625C1 26.2375 1.2375 26.8125 1.7125 27.2875C2.1875 27.7625 2.7625 28 3.4375 28H22.5625ZM13 4.675C12.675 4.675 12.406 4.5685 12.193 4.3555C11.981 4.1435 11.875 3.875 11.875 3.55C11.875 3.225 11.981 2.956 12.193 2.743C12.406 2.531 12.675 2.425 13 2.425C13.325 2.425 13.5935 2.531 13.8055 2.743C14.0185 2.956 14.125 3.225 14.125 3.55C14.125 3.875 14.0185 4.1435 13.8055 4.3555C13.5935 4.5685 13.325 4.675 13 4.675Z" fill="#1F384C" fill-opacity="0.55"/>
<path d="M14.704 16.9H8.8C8.54213 16.9 8.32035 16.8202 8.14982 16.651L8.14905 16.6502C7.97975 16.4796 7.9 16.2579 7.9 16C7.9 15.7421 7.97975 15.5204 8.14905 15.3498L8.14982 15.349C8.32035 15.1798 8.54213 15.1 8.8 15.1H14.704L12.3724 12.7346C12.1729 12.5617 12.0625 12.3487 12.0625 12.1C12.0625 11.8529 12.1715 11.641 12.3687 11.4687C12.541 11.2715 12.7529 11.1625 13 11.1625C13.2487 11.1625 13.4618 11.273 13.6347 11.4726L17.2305 15.0309L17.2307 15.0307L17.2365 15.0372C17.4853 15.3136 17.6125 15.6365 17.6125 16C17.6125 16.3635 17.4853 16.6864 17.2365 16.9628L17.2367 16.963L17.2305 16.9691L13.6347 20.5274C13.4618 20.727 13.2487 20.8375 13 20.8375C12.7529 20.8375 12.541 20.7284 12.3687 20.5313C12.1715 20.359 12.0625 20.1471 12.0625 19.9C12.0625 19.6513 12.1729 19.4383 12.3724 19.2654L14.704 16.9ZM2.88778 26.1117L2.88835 26.1122C3.04909 26.2738 3.23003 26.35 3.4375 26.35H22.5625C22.77 26.35 22.9509 26.2738 23.1116 26.1122L23.1122 26.1117C23.2738 25.9509 23.35 25.77 23.35 25.5625V6.4375C23.35 6.23003 23.2738 6.04909 23.1122 5.88835L23.1117 5.88778C22.9509 5.72618 22.77 5.65 22.5625 5.65H3.4375C3.23003 5.65 3.04909 5.72618 2.88835 5.88778L2.88778 5.88835C2.72618 6.04909 2.65 6.23003 2.65 6.4375V25.5625C2.65 25.77 2.72618 25.9509 2.88778 26.1117ZM15.1037 1.8231L15.1037 1.82319C15.5931 2.42319 15.7891 3.10201 15.689 3.85H22.5625C23.2771 3.85 23.8903 4.10315 24.3936 4.60643C24.8968 5.10972 25.15 5.72293 25.15 6.4375V25.5625C25.15 26.2771 24.8968 26.8903 24.3936 27.3936C23.8903 27.8968 23.2771 28.15 22.5625 28.15H3.4375C2.72293 28.15 2.10972 27.8968 1.60644 27.3936C1.10315 26.8903 0.85 26.2771 0.85 25.5625V6.4375C0.85 5.72293 1.10315 5.10972 1.60644 4.60643C2.10972 4.10315 2.72293 3.85 3.4375 3.85H10.3057C10.1849 3.10164 10.3767 2.42191 10.8779 1.82184L10.878 1.82164C11.4206 1.17437 12.1323 0.85 13 0.85C13.8677 0.85 14.5738 1.1745 15.1037 1.8231ZM13.6992 4.24968L13.6997 4.24918C13.882 4.06777 13.975 3.83869 13.975 3.55C13.975 3.26131 13.8819 3.03157 13.6994 2.84907C13.5181 2.6677 13.2889 2.575 13 2.575C12.7113 2.575 12.4815 2.66761 12.2991 2.84902C12.1176 3.03145 12.025 3.26121 12.025 3.55C12.025 3.8389 12.1177 4.06807 12.2991 4.24943C12.4816 4.43194 12.7113 4.525 13 4.525C13.2887 4.525 13.5178 4.43195 13.6992 4.24968Z" stroke="#1F384C" stroke-opacity="0.55" stroke-width="0.3"/>
</svg>
