<svg width="20" height="20" viewBox="0 0 20 20" fill="none" xmlns="http://www.w3.org/2000/svg">
<mask id="mask0_397_3" style="mask-type:alpha" maskUnits="userSpaceOnUse" x="0" y="0" width="20" height="20">
<rect width="20" height="20" fill="#D9D9D9"/>
</mask>
<g mask="url(#mask0_397_3)">
<path d="M2.33331 17.3332V3.58317C2.33331 3.1665 2.47915 2.81234 2.77081 2.52067C3.06248 2.229 3.41665 2.08317 3.83331 2.08317H12.4791C12.8958 2.08317 13.2536 2.229 13.5525 2.52067C13.8508 2.81234 14 3.1665 14 3.58317V3.87484C13.75 3.98595 13.5208 4.12123 13.3125 4.28067C13.1041 4.44067 12.9166 4.62484 12.75 4.83317V3.58317C12.75 3.51373 12.7258 3.45456 12.6775 3.40567C12.6286 3.35734 12.5625 3.33317 12.4791 3.33317H3.83331C3.74998 3.33317 3.68748 3.35734 3.64581 3.40567C3.60415 3.45456 3.58331 3.51373 3.58331 3.58317V13.7707L3.99998 13.3332H12.4791C12.5625 13.3332 12.6286 13.3087 12.6775 13.2598C12.7258 13.2115 12.75 13.1526 12.75 13.0832V10.1665C12.9166 10.3748 13.1041 10.5587 13.3125 10.7182C13.5208 10.8782 13.75 11.0137 14 11.1248V13.0832C14 13.4998 13.8508 13.854 13.5525 14.1457C13.2536 14.4373 12.8958 14.5832 12.4791 14.5832H5.06248L2.33331 17.3332ZM5.45831 11.4582H8.37498V10.2082H5.45831V11.4582ZM15.6666 9.7915C15.0416 9.7915 14.5036 9.56928 14.0525 9.12484C13.6008 8.68039 13.375 8.13873 13.375 7.49984C13.375 6.86095 13.6008 6.31928 14.0525 5.87484C14.5036 5.43039 15.0416 5.20817 15.6666 5.20817C15.8889 5.20817 16.08 5.23261 16.24 5.2815C16.3994 5.32984 16.5555 5.40956 16.7083 5.52067V1.0415H19.625V2.2915H17.9583V7.49984C17.9583 8.13873 17.7361 8.68039 17.2916 9.12484C16.8472 9.56928 16.3055 9.7915 15.6666 9.7915ZM5.45831 8.95817H10.875V7.70817H5.45831V8.95817ZM5.45831 6.45817H10.875V5.20817H5.45831V6.45817Z" fill="#FF24FB"/>
</g>
</svg>
