<svg width="24" height="25" viewBox="0 0 24 25" fill="none" xmlns="http://www.w3.org/2000/svg">
<path d="M16.8318 18.4096C17.8097 18.9773 18.9301 19.6275 19.7329 20.5253C15.3463 24.5067 8.65395 24.5067 4.2674 20.5253C5.07019 19.6275 6.19056 18.9773 7.16842 18.4096C8.36886 17.7118 9.4067 17.1091 9.4067 16.3538C9.42522 15.538 9.0651 14.7595 8.43137 14.2456C7.85866 14.1506 7.55856 13.0752 7.55856 12.485C7.52653 12.2284 7.61733 11.9718 7.80365 11.7922C7.38851 10.4443 7.39602 8.57362 8.33884 7.25065C9.07659 6.21529 10.292 5.66509 11.8551 5.66007C12.9724 5.3052 14.1941 5.56253 15.0737 6.33784C15.7764 6.97058 16.8443 8.5136 16.1916 11.7773C16.3266 11.8723 16.4567 12.0699 16.4567 12.485C16.4567 13.0752 16.1566 14.1531 15.5814 14.2456C14.9404 14.7553 14.575 15.5354 14.5936 16.3539C14.5935 17.1091 15.6314 17.7118 16.8318 18.4096Z" fill="white"/>
<path d="M12.0001 0.503418C18.3539 0.503652 23.5044 5.65449 23.5042 12.0082C23.5042 15.2521 22.1344 18.3452 19.7328 20.5255C18.93 19.6277 17.8097 18.9775 16.8318 18.4098C15.6314 17.7121 14.5935 17.1093 14.5935 16.354C14.575 15.5355 14.9404 14.7555 15.5814 14.2458C16.1566 14.1533 16.4567 13.0754 16.4567 12.4852C16.4567 12.0701 16.3266 11.8725 16.1916 11.7775C16.8443 8.51383 15.7764 6.97076 15.0737 6.33802C14.1941 5.56276 12.9724 5.30539 11.855 5.66026C10.292 5.66528 9.07656 6.21548 8.33881 7.25083C7.39599 8.57381 7.38848 10.4445 7.80362 11.7924C7.6173 11.972 7.5265 12.2286 7.55853 12.4851C7.55853 13.0754 7.85863 14.1508 8.43134 14.2458C9.06507 14.7597 9.42519 15.5382 9.40667 16.354C9.40667 17.1093 8.36878 17.712 7.16839 18.4097C6.19054 18.9774 5.07016 19.6277 4.26737 20.5255C-0.436775 16.2547 -0.78813 8.97891 3.48287 4.27477C5.66336 1.87292 8.7562 0.503418 12.0001 0.503418Z" fill="#F54B55"/>
<g opacity="0.08">
<path d="M12.0001 21.0104C6.13048 21.0107 1.20226 16.5916 0.564784 10.7568C0.519528 11.1723 0.496502 11.5896 0.496033 12.0073C0.496033 18.3607 5.64659 23.5113 12.0001 23.5113C18.3536 23.5113 23.5042 18.3608 23.5042 12.0073C23.5037 11.5896 23.4807 11.1722 23.4354 10.7568C22.7979 16.5916 17.8697 21.0107 12.0001 21.0104Z" fill="#303442"/>
</g>
<path d="M19.7331 21.0259C19.5956 21.0259 19.4588 20.9696 19.36 20.8591C18.6105 20.0208 17.5326 19.3951 16.582 18.8431C15.2453 18.0664 14.0937 17.3969 14.0937 16.3542C14.0719 15.3966 14.5118 14.4578 15.2703 13.8544C15.3376 13.8008 15.4174 13.7658 15.5024 13.7521C15.6452 13.729 15.9568 13.0798 15.9568 12.4854C15.9568 12.2488 15.9018 12.1853 15.9013 12.1848C15.7392 12.0707 15.6624 11.8739 15.7012 11.6796C16.3064 8.654 15.3581 7.26729 14.7391 6.70982C13.9996 6.05808 12.9512 5.83724 12.0064 6.13711C11.9579 6.15263 11.9073 6.16037 11.8566 6.1606C10.4621 6.1651 9.38647 6.64252 8.74599 7.54135C7.85518 8.79131 7.93894 10.5334 8.28157 11.6455C8.33709 11.8259 8.28659 12.0219 8.15077 12.1527C8.07827 12.2225 8.04248 12.3238 8.05501 12.4236C8.05749 12.4438 8.05876 12.4646 8.05876 12.4851C8.05876 13.0763 8.37039 13.7273 8.51315 13.7523C8.59691 13.7671 8.68048 13.8036 8.74646 13.8574C9.49471 14.4643 9.92837 15.4022 9.90661 16.3652C9.90661 17.3966 8.75519 18.0658 7.42175 18.8406C6.46818 19.3944 5.38978 20.0203 4.64003 20.8586C4.45596 21.0647 4.13987 21.0821 3.9338 20.8981C3.72773 20.714 3.71024 20.3977 3.89427 20.1919C4.75005 19.2348 5.90124 18.5666 6.91685 17.9771C7.8502 17.4344 8.90605 16.8209 8.90605 16.354C8.92031 15.7213 8.65572 15.1146 8.19406 14.7007C7.36153 14.4244 7.06739 13.1309 7.05815 12.5147C7.02912 12.2228 7.09994 11.9295 7.25297 11.6837C6.90935 10.3509 6.89711 8.41177 7.93096 6.96048C8.75425 5.80507 10.0832 5.18387 11.7778 5.16061C13.0357 4.78974 14.4182 5.09359 15.4041 5.96288C16.1664 6.64913 17.3265 8.28243 16.7293 11.6239C16.8571 11.8112 16.9567 12.0853 16.9567 12.4849C16.9567 13.0906 16.6653 14.4261 15.8145 14.7022C15.3474 15.1128 15.0795 15.7183 15.0933 16.3427C15.0935 16.8209 16.1496 17.4346 17.0815 17.9763C18.0991 18.567 19.25 19.2353 20.1056 20.1918C20.2897 20.3977 20.2719 20.714 20.066 20.8981C19.9707 20.9839 19.8519 21.0259 19.7331 21.0259Z" fill="#303442"/>
<path d="M11.9876 24.0115C9.00156 24.0115 6.14054 22.9051 3.93078 20.8954C-0.970471 16.4465 -1.33885 8.83888 3.11045 3.93711C5.26572 1.56256 8.21678 0.16956 11.4196 0.0145175C14.6238 -0.141276 17.6944 0.961095 20.0687 3.11636C24.9707 7.56566 25.3388 15.1731 20.8895 20.0748C18.619 22.5767 15.3788 24.0115 11.9999 24.0115C11.9961 24.0115 11.9918 24.0115 11.9876 24.0115ZM12.0128 1.00035C11.8318 1.00035 11.6502 1.00485 11.4681 1.01362C8.53184 1.15591 5.82689 2.43288 3.85119 4.60962C-0.227194 9.10272 0.110139 16.0767 4.60376 20.1551C4.60376 20.1551 4.60399 20.1551 4.60399 20.1554C6.62921 21.997 9.25139 23.0111 11.9884 23.0111C11.9921 23.0111 11.9959 23.0111 11.9996 23.0111C15.0975 23.0111 18.0678 21.696 20.149 19.4026C24.2277 14.909 23.89 7.93531 19.3967 3.85687C17.355 2.00395 14.7508 1.00035 12.0128 1.00035Z" fill="#303442"/>
</svg>
