<svg width="29" height="30" viewBox="0 0 29 30" fill="none" xmlns="http://www.w3.org/2000/svg">
<path d="M14.8157 2.28002C16.1121 1.52359 17.5861 1.125 19.087 1.125C20.5879 1.125 22.0619 1.52359 23.3582 2.28002C24.6588 3.04468 25.7371 4.13582 26.4864 5.44539C27.2356 6.75497 27.6297 8.23754 27.6297 9.74627C27.6297 11.255 27.2356 12.7376 26.4864 14.0472C25.7371 15.3567 24.6588 16.4479 23.3582 17.2125M14.185 22.533C13.2133 23.0967 12.14 23.4633 11.0265 23.6117C9.91305 23.7601 8.78122 23.6874 7.69586 23.3978C6.61049 23.1082 5.5929 22.6074 4.70134 21.924C3.80977 21.2406 3.06174 20.3881 2.50007 19.4153C1.93841 18.4425 1.57413 17.3684 1.42809 16.2546C1.28205 15.1408 1.35712 14.0091 1.64901 12.9244C1.94089 11.8396 2.44386 10.8231 3.12911 9.93298C3.81437 9.04286 4.66845 8.29664 5.64247 7.73702M14.8157 2.28002L5.64247 7.73777M23.3575 17.2125L14.185 22.5338M16.93 6.71627L8.30047 12.1613M18.061 20.292V28.875M13.2445 28.8743H22.459" stroke="url(#paint0_linear_601_3472)" stroke-width="2" stroke-linecap="round" stroke-linejoin="round"/>
<defs>
<linearGradient id="paint0_linear_601_3472" x1="27.6297" y1="-2.09233" x2="5.57663" y2="31.4478" gradientUnits="userSpaceOnUse">
<stop stop-color="#FC9D6B"/>
<stop offset="1" stop-color="#B336C8"/>
</linearGradient>
</defs>
</svg>
