<svg width="36" height="37" viewBox="0 0 36 37" fill="none" xmlns="http://www.w3.org/2000/svg">
<g clip-path="url(#clip0_2529_29017)">
<path d="M36 18.5C36 28.4413 27.9413 36.5 18 36.5C8.05875 36.5 0 28.4413 0 18.5C0 8.55875 8.05875 0.5 18 0.5C27.9413 0.5 36 8.55875 36 18.5Z" fill="url(#paint0_linear_2529_29017)"/>
<path d="M22.0924 17.9331C23.7459 16.6878 24.817 14.7092 24.817 12.4847C24.817 8.72601 21.759 5.66797 18 5.66797C14.2413 5.66797 11.1833 8.72601 11.1833 12.4847C11.1833 14.7092 12.2542 16.6878 13.9076 17.9331C9.48068 19.5948 6.32129 23.8707 6.32129 28.8711H8.43066C8.43066 23.5944 12.7236 19.3017 18.0003 19.3017C23.2768 19.3017 27.5697 23.5944 27.5697 28.8711H29.679C29.6788 23.8707 26.5197 19.5948 22.0924 17.9331ZM13.2927 12.4847C13.2927 9.88892 15.4042 7.77734 18 7.77734C20.5958 7.77734 22.7074 9.88892 22.7074 12.4847C22.7074 15.0805 20.5958 17.1924 18 17.1924C15.4042 17.1924 13.2927 15.0805 13.2927 12.4847Z" fill="white"/>
</g>
<defs>
<linearGradient id="paint0_linear_2529_29017" x1="0" y1="18.5" x2="36" y2="18.5" gradientUnits="userSpaceOnUse">
<stop stop-color="#00F38D"/>
<stop offset="1" stop-color="#009EFF"/>
</linearGradient>
<clipPath id="clip0_2529_29017">
<rect width="36" height="36" fill="white" transform="translate(0 0.5)"/>
</clipPath>
</defs>
</svg>
