<svg width="19" height="14" viewBox="0 0 19 14" fill="none" xmlns="http://www.w3.org/2000/svg">
<path d="M4.91667 13.25C3.76389 13.25 2.78111 12.8506 1.96833 12.0517C1.15611 11.2533 0.75 10.2778 0.75 9.125C0.75 8.08333 1.08333 7.17 1.75 6.385C2.41667 5.60056 3.24306 5.13889 4.22917 5C4.49306 3.75 5.11806 2.72917 6.10417 1.9375C7.09028 1.14583 8.22222 0.75 9.5 0.75C11.0139 0.75 12.2953 1.27417 13.3442 2.3225C14.3925 3.37139 14.9167 4.65278 14.9167 6.16667V6.58333H15.1667C16.0556 6.65278 16.7917 7.00694 17.375 7.64583C17.9583 8.28472 18.25 9.04167 18.25 9.91667C18.25 10.8472 17.9306 11.6353 17.2917 12.2808C16.6528 12.9269 15.8681 13.25 14.9375 13.25H10.375C9.95833 13.25 9.60417 13.1042 9.3125 12.8125C9.02083 12.5208 8.875 12.1667 8.875 11.75V7.14583L7.77083 8.27083C7.65972 8.38194 7.51389 8.4375 7.33333 8.4375C7.15278 8.4375 7.00694 8.38194 6.89583 8.27083C6.77083 8.14583 6.71194 7.99639 6.71917 7.8225C6.72583 7.64917 6.78472 7.50694 6.89583 7.39583L8.97917 5.3125C9.04861 5.22917 9.12861 5.17361 9.21917 5.14583C9.30917 5.11806 9.40278 5.10417 9.5 5.10417C9.59722 5.10417 9.69111 5.11806 9.78167 5.14583C9.87167 5.17361 9.95139 5.22917 10.0208 5.3125L12.1042 7.39583C12.2153 7.50694 12.2744 7.64917 12.2817 7.8225C12.2883 7.99639 12.2292 8.14583 12.1042 8.27083C11.9931 8.38194 11.8472 8.4375 11.6667 8.4375C11.4861 8.4375 11.3403 8.375 11.2292 8.25L10.125 7.14583V11.75C10.125 11.8056 10.1528 11.8611 10.2083 11.9167C10.2639 11.9722 10.3194 12 10.375 12H14.9167C15.5 12 15.9931 11.7986 16.3958 11.3958C16.7986 10.9931 17 10.5 17 9.91667C17 9.33333 16.7986 8.84028 16.3958 8.4375C15.9931 8.03472 15.5 7.83333 14.9167 7.83333H13.6667V6.16667C13.6667 5.01389 13.2606 4.03111 12.4483 3.21833C11.6356 2.40611 10.6528 2 9.5 2C8.34722 2 7.36472 2.40611 6.5525 3.21833C5.73972 4.03111 5.33333 5.01389 5.33333 6.16667H4.89583C4.10417 6.16667 3.42361 6.45139 2.85417 7.02083C2.28472 7.59028 2 8.27778 2 9.08333C2 9.88889 2.28472 10.5764 2.85417 11.1458C3.42361 11.7153 4.11111 12 4.91667 12H6.375C6.55556 12 6.705 12.0589 6.82333 12.1767C6.94111 12.295 7 12.4444 7 12.625C7 12.8056 6.94111 12.955 6.82333 13.0733C6.705 13.1911 6.55556 13.25 6.375 13.25H4.91667Z" fill="#2D516E"/>
</svg>
