<svg width="86" height="80" viewBox="0 0 86 80" fill="none" xmlns="http://www.w3.org/2000/svg">
<path d="M82.786 49.9946C82.1295 48.062 82.3714 46.8542 82.4059 45.9224C82.0604 45.2322 81.8186 44.8181 81.784 43.7828C83.8916 40.7114 82.8205 40.7804 81.9568 39.8141C81.3348 38.3302 84.2372 37.3984 84.5481 36.9498C83.3043 36.6047 83.3734 35.88 83.477 35.3278C84.5481 33.4988 84.8936 31.6697 84.8936 30.9105C84.168 30.2203 83.9607 29.1505 83.8225 28.6328C80.8166 28.6328 80.4711 27.1489 80.2637 26.4587C80.21 26.4779 80.1601 26.5047 80.1063 26.5239C80.1486 26.5009 80.187 26.4817 80.2292 26.4587C78.5362 23.8704 78.9047 22.7623 78.9163 22.0759C79.0199 16.5543 77.7415 16.2437 77.7415 16.2437C77.7415 16.2437 77.8797 14.7598 77.9143 14.035C78.1216 13.5519 77.3269 13.5519 76.9814 13.5519C76.8432 15.3464 76.0139 14.8633 75.4611 14.5527C74.5282 13.9315 74.1136 14.3801 73.388 14.6217C72.6625 14.8633 71.4186 14.6562 70.5203 14.6907C69.3801 14.2421 67.2034 13.966 66.1668 13.8625C65.0612 13.0342 64.3702 13.2413 63.2645 13.2413C63.1954 12.9652 62.7463 11.4123 62.2625 10.4115C60.7768 9.20362 58.4619 10.8256 57.9091 11.5848C57.9436 14.8633 57.4253 14.3456 57.4253 14.3456C57.4253 14.3456 55.8513 15.9638 55.1181 16.7345C55.7822 15.8756 57.0491 14.6409 57.4253 14.2613C57.1067 13.9852 56.6883 13.433 56.2237 12.4207C55.7631 10.6262 55.7669 9.89382 55.3523 9.01573C54.4309 6.94512 54.3848 3.40209 54.5653 2.61986C53.1832 1.10141 51.0679 2.38979 50.5151 2.89594C49.9623 3.40209 47.7932 1.23945 47.4285 0.733304C46.3229 0.457223 46.4611 0.457222 46.4611 0.0431006C44.8487 -0.325007 44.8947 1.74176 44.6183 3.31006C43.9772 5.35382 42.3111 4.03477 41.7851 3.69734C41.4588 2.94962 39.9808 3.42509 38.5642 4.09612C36.8366 5.61457 33.1051 4.3722 32.0685 3.61298C31.1011 1.88747 27.646 3.75102 26.4712 4.0271C25.7802 2.71572 24.8128 2.3016 23.8453 2.16356C21.2194 3.06082 20.1138 1.54237 20.1138 1.54237C17.9716 2.43963 19.561 4.30318 20.3211 4.3722C21.0812 4.44122 21.4958 5.40751 21.4267 6.16673C20.1138 7.82322 19.9065 10.8601 19.7683 12.8617C19.6301 14.8633 18.8008 14.7943 17.9716 15.0013C17.9255 15.2161 17.9025 15.4154 17.8948 15.6072C17.8756 15.4423 17.8564 15.2659 17.8334 15.0703C15.0693 13.6899 14.171 14.9323 14.1019 15.8986C14.7929 17.0029 14.0328 17.6931 13.4108 18.4523C10.854 19.4876 10.5776 16.3817 10.3012 15.1394C7.46802 13.966 5.69823 16.0136 5.94777 16.5888C8.08995 17.348 8.08995 17.9002 8.02084 18.3143C7.95174 18.7284 6.43148 19.3496 5.67136 19.5567C5.11854 21.1441 4.70392 21.3512 3.94379 22.3175C2.00892 22.9386 0.765073 26.1826 0.212253 27.1489C-0.340568 28.1152 0.350458 28.0462 1.24879 28.3913C2.14713 28.7364 1.93982 30.6689 2.21623 32.3254C3.73648 31.6352 3.94379 33.1537 3.94379 34.5341C3.94379 35.9145 5.53315 35.6384 6.08597 35.8454C6.63879 36.0525 9.26469 39.1584 9.26469 39.1584L11.188 39.0894C11.4568 39.5265 12.4626 41.5051 12.8695 41.8042C13.4224 42.1608 13.5721 42.0419 13.8638 42.0266C17.2307 44.542 19.1963 44.6225 20.1637 44.542C21.2118 43.825 22.5938 44.1394 22.9278 44.2928C24.7513 46.9462 25.2504 46.3902 25.642 46.3059C27.1623 45.5044 29.147 45.8342 30.1145 46.2253C31.0819 46.6126 32.1069 47.9393 32.8786 49.013C33.6502 50.0866 33.489 51.1948 33.5427 52.7707C34.1762 54.3697 33.6003 55.777 33.0475 56.7164C32.4947 57.6558 31.389 56.7164 30.8938 56.6052C30.1759 56.6052 30.341 57.491 31.1126 57.6827C32.8517 58.07 33.7385 58.8139 33.7385 58.8139C33.7385 58.8139 33.6272 60.9151 33.5965 61.7127C33.9535 62.2649 35.04 61.2986 35.4814 61.0225C37.1399 60.1367 39.9309 60.6084 39.9309 60.6084C39.9309 60.6084 39.9309 60.5739 39.927 60.5163C41.7775 60.6774 44.3726 62.4144 44.4725 62.4834C45.9543 65.1407 45.8238 67.0541 46.0273 68.0817C48.8605 68.979 49.5515 70.4284 49.5515 70.4284C49.5515 70.4284 53.1487 70.4246 54.9415 70.3594C62.2664 70.0833 63.1186 73.6954 63.1186 73.6954C63.1186 73.6954 63.372 73.8564 63.7406 73.7184C64.1091 73.5804 66.5085 75.651 67.1035 76.4792C68.3474 76.5712 68.7083 77.9976 69.8216 78.7339C71.2497 78.2737 71.8947 78.7799 73.2306 79.24C74.5666 79.6963 75.8565 79.5621 76.5053 79.4241C77.1541 78.7799 79.5881 79.1058 79.5881 79.1058C80.5555 79.2438 82.3522 78.6878 82.3522 78.6878C82.3522 78.6878 80.5555 76.3872 80.4173 75.9731C80.2791 75.5589 80.2791 73.6724 79.9605 72.0619C80.0065 67.8248 81.3847 67.8287 81.3847 67.8287C81.3847 67.8287 80.3597 65.8693 79.9797 65.018C80.5632 65.9038 81.1352 67.3455 81.3771 67.7711C82.2754 67.2535 83.4847 67.426 83.9339 67.288C84.383 67.15 85.4541 65.8386 85.7996 65.0448C86.5252 64.0095 84.9013 59.2471 84.7631 58.0738C84.5136 56.3099 83.097 51.5821 82.786 49.9946Z" fill="#94D676"/>
</svg>
