<svg width="14" height="10" viewBox="0 0 14 10" fill="none" xmlns="http://www.w3.org/2000/svg">
<path d="M8.53301 9.20003C8.41079 9.07781 8.34967 8.92225 8.34967 8.73337C8.34967 8.54448 8.41079 8.38892 8.53301 8.2667L11.133 5.6667H0.999674C0.810786 5.6667 0.652563 5.6027 0.525008 5.4747C0.397008 5.34714 0.333008 5.18892 0.333008 5.00003C0.333008 4.81114 0.397008 4.6527 0.525008 4.5247C0.652563 4.39714 0.810786 4.33337 0.999674 4.33337H11.133L8.53301 1.73337C8.41079 1.61114 8.34967 1.45559 8.34967 1.2667C8.34967 1.07781 8.41079 0.922255 8.53301 0.800032C8.65523 0.67781 8.81079 0.616699 8.99967 0.616699C9.18856 0.616699 9.34412 0.67781 9.46634 0.800032L13.1997 4.53337C13.2663 4.60003 13.3137 4.67225 13.3417 4.75003C13.3692 4.82781 13.383 4.91114 13.383 5.00003C13.383 5.08892 13.3692 5.17225 13.3417 5.25003C13.3137 5.32781 13.2663 5.40003 13.1997 5.4667L9.46634 9.20003C9.34412 9.32225 9.18856 9.38337 8.99967 9.38337C8.81079 9.38337 8.65523 9.32225 8.53301 9.20003Z" fill="#136EE5"/>
</svg>
