<svg width="16" height="17" viewBox="0 0 16 17" fill="none" xmlns="http://www.w3.org/2000/svg">
<mask id="mask0_579_130" style="mask-type:alpha" maskUnits="userSpaceOnUse" x="0" y="0" width="16" height="17">
<rect y="0.5" width="16" height="16" fill="#D9D9D9"/>
</mask>
<g mask="url(#mask0_579_130)">
<path d="M9.8 12.4997C9.36666 12.4997 9 12.3497 8.7 12.0497C8.4 11.7497 8.25 11.3886 8.25 10.9663C8.25 10.533 8.4 10.1663 8.7 9.86634C9 9.56634 9.36666 9.41634 9.8 9.41634C10.2222 9.41634 10.5833 9.56634 10.8833 9.86634C11.1833 10.1663 11.3333 10.533 11.3333 10.9663C11.3333 11.3886 11.1833 11.7497 10.8833 12.0497C10.5833 12.3497 10.2222 12.4997 9.8 12.4997ZM3.53333 14.833C3.2 14.833 2.91667 14.7163 2.68333 14.483C2.45 14.2497 2.33333 13.9663 2.33333 13.633V4.69967C2.33333 4.36634 2.45 4.08301 2.68333 3.84967C2.91667 3.61634 3.2 3.49967 3.53333 3.49967H4.46667V2.59967C4.46667 2.45523 4.51378 2.33301 4.608 2.23301C4.70267 2.13301 4.82222 2.08301 4.96667 2.08301C5.12222 2.08301 5.24711 2.13301 5.34133 2.23301C5.436 2.33301 5.48333 2.45523 5.48333 2.59967V3.49967H10.5333V2.58301C10.5333 2.44967 10.5833 2.33301 10.6833 2.23301C10.7833 2.13301 10.9 2.08301 11.0333 2.08301C11.1778 2.08301 11.2971 2.13301 11.3913 2.23301C11.486 2.33301 11.5333 2.44967 11.5333 2.58301V3.49967H12.4667C12.8 3.49967 13.0833 3.61634 13.3167 3.84967C13.55 4.08301 13.6667 4.36634 13.6667 4.69967V13.633C13.6667 13.9663 13.55 14.2497 13.3167 14.483C13.0833 14.7163 12.8 14.833 12.4667 14.833H3.53333ZM3.53333 13.833H12.4667C12.5222 13.833 12.5696 13.8137 12.6087 13.775C12.6473 13.7359 12.6667 13.6886 12.6667 13.633V7.36634H3.33333V13.633C3.33333 13.6886 3.35289 13.7359 3.392 13.775C3.43067 13.8137 3.47778 13.833 3.53333 13.833ZM3.33333 6.36634H12.6667V4.69967C12.6667 4.64412 12.6473 4.59701 12.6087 4.55834C12.5696 4.51923 12.5222 4.49967 12.4667 4.49967H3.53333C3.47778 4.49967 3.43067 4.51923 3.392 4.55834C3.35289 4.59701 3.33333 4.64412 3.33333 4.69967V6.36634Z" fill="#B8BFCC"/>
</g>
</svg>
