<svg width="16" height="16" viewBox="0 0 16 16" fill="none" xmlns="http://www.w3.org/2000/svg">
<mask id="mask0_1672_10751" style="mask-type:alpha" maskUnits="userSpaceOnUse" x="0" y="0" width="16" height="16">
<rect width="16" height="16" fill="#D9D9D9"/>
</mask>
<g mask="url(#mask0_1672_10751)">
<path d="M12.9499 13.634C11.661 13.634 10.3805 13.3255 9.10852 12.7087C7.83608 12.0922 6.69985 11.284 5.69985 10.284C4.69985 9.28398 3.89163 8.15065 3.27519 6.88398C2.6583 5.61732 2.34985 4.33398 2.34985 3.03398C2.34985 2.83398 2.41652 2.66732 2.54985 2.53398C2.68319 2.40065 2.84985 2.33398 3.04985 2.33398H5.21652C5.3943 2.33398 5.54696 2.38665 5.67452 2.49198C5.80252 2.59776 5.88319 2.73398 5.91652 2.90065L6.29985 4.86732C6.32208 5.03398 6.31652 5.18398 6.28319 5.31732C6.24985 5.45065 6.17763 5.56732 6.06652 5.66732L4.54985 7.16732C5.07208 8.05621 5.69696 8.86176 6.42452 9.58398C7.15252 10.3062 7.97763 10.934 8.89985 11.4673L10.3832 9.96732C10.4943 9.85621 10.625 9.77843 10.7752 9.73398C10.925 9.68954 11.0776 9.67843 11.2332 9.70065L13.0832 10.084C13.2499 10.1173 13.3861 10.1951 13.4919 10.3173C13.5972 10.4395 13.6499 10.5895 13.6499 10.7673V12.934C13.6499 13.134 13.5832 13.3007 13.4499 13.434C13.3165 13.5673 13.1499 13.634 12.9499 13.634Z" fill="url(#paint0_linear_1672_10751)"/>
</g>
<defs>
<linearGradient id="paint0_linear_1672_10751" x1="13.3175" y1="2.99869" x2="3.34691" y2="13.3016" gradientUnits="userSpaceOnUse">
<stop stop-color="#76A0A6"/>
<stop offset="1" stop-color="#899AC1"/>
</linearGradient>
</defs>
</svg>
