<svg width="16" height="16" viewBox="0 0 16 16" fill="none" xmlns="http://www.w3.org/2000/svg">
<mask id="mask0_1967_19154" style="mask-type:alpha" maskUnits="userSpaceOnUse" x="0" y="0" width="16" height="16">
<rect width="16" height="16" fill="#D9D9D9"/>
</mask>
<g mask="url(#mask0_1967_19154)">
<path d="M5.25008 10.75C5.35008 10.85 5.46675 10.9 5.60008 10.9C5.73341 10.9 5.85008 10.85 5.95008 10.75L8.00008 8.69999L10.0667 10.7667C10.1556 10.8555 10.2696 10.8971 10.4087 10.8913C10.5474 10.886 10.6612 10.8389 10.7501 10.75C10.8501 10.65 10.9001 10.5333 10.9001 10.4C10.9001 10.2667 10.8501 10.15 10.7501 10.05L8.70008 7.99999L10.7667 5.93332C10.8556 5.84443 10.8972 5.73043 10.8914 5.59132C10.8861 5.45266 10.839 5.33888 10.7501 5.24999C10.6501 5.14999 10.5334 5.09999 10.4001 5.09999C10.2667 5.09999 10.1501 5.14999 10.0501 5.24999L8.00008 7.29999L5.93341 5.23332C5.84453 5.14443 5.73075 5.10266 5.59208 5.10799C5.45297 5.11377 5.33897 5.1611 5.25008 5.24999C5.15008 5.34999 5.10008 5.46666 5.10008 5.59999C5.10008 5.73332 5.15008 5.84999 5.25008 5.94999L7.30008 7.99999L5.23341 10.0667C5.14453 10.1555 5.10297 10.2693 5.10875 10.408C5.11408 10.5471 5.16119 10.6611 5.25008 10.75ZM8.00008 14.3333C7.1223 14.3333 6.29741 14.1667 5.52541 13.8333C4.75297 13.5 4.08341 13.05 3.51675 12.4833C2.95008 11.9167 2.50008 11.2471 2.16675 10.4747C1.83341 9.70266 1.66675 8.87777 1.66675 7.99999C1.66675 7.12221 1.83341 6.2971 2.16675 5.52466C2.50008 4.75266 2.95008 4.08332 3.51675 3.51666C4.08341 2.94999 4.75297 2.49999 5.52541 2.16666C6.29741 1.83332 7.1223 1.66666 8.00008 1.66666C8.87786 1.66666 9.70297 1.83332 10.4754 2.16666C11.2474 2.49999 11.9167 2.94999 12.4834 3.51666C13.0501 4.08332 13.5001 4.75266 13.8334 5.52466C14.1667 6.2971 14.3334 7.12221 14.3334 7.99999C14.3334 8.87777 14.1667 9.70266 13.8334 10.4747C13.5001 11.2471 13.0501 11.9167 12.4834 12.4833C11.9167 13.05 11.2474 13.5 10.4754 13.8333C9.70297 14.1667 8.87786 14.3333 8.00008 14.3333ZM8.00008 13.3333C9.47786 13.3333 10.7363 12.814 11.7754 11.7753C12.8141 10.7362 13.3334 9.47777 13.3334 7.99999C13.3334 6.52221 12.8141 5.26377 11.7754 4.22466C10.7363 3.18599 9.47786 2.66666 8.00008 2.66666C6.5223 2.66666 5.26408 3.18599 4.22541 4.22466C3.1863 5.26377 2.66675 6.52221 2.66675 7.99999C2.66675 9.47777 3.1863 10.7362 4.22541 11.7753C5.26408 12.814 6.5223 13.3333 8.00008 13.3333Z" fill="#5F6B7D"/>
</g>
</svg>
