<svg width="6" height="9" viewBox="0 0 6 9" fill="none" xmlns="http://www.w3.org/2000/svg">
<path d="M0.656238 8.34355C0.543738 8.23105 0.487488 8.09981 0.487488 7.94981C0.487488 7.79981 0.543738 7.66856 0.656238 7.55606L3.71249 4.4998L0.656238 1.44355C0.543738 1.33105 0.487488 1.1998 0.487488 1.0498C0.487488 0.899805 0.543738 0.768555 0.656238 0.656055C0.768738 0.543555 0.899988 0.487305 1.04999 0.487305C1.19999 0.487305 1.33124 0.543555 1.44374 0.656055L4.81874 4.03105C4.88124 4.09355 4.92824 4.1653 4.95974 4.2463C4.99074 4.3278 5.00624 4.4123 5.00624 4.4998C5.00624 4.5873 4.99074 4.67155 4.95974 4.75255C4.92824 4.83405 4.88124 4.90605 4.81874 4.96855L1.44374 8.34355C1.33124 8.45606 1.19999 8.51231 1.04999 8.51231C0.899988 8.51231 0.768738 8.45606 0.656238 8.34355Z" fill="#9FA3B2"/>
</svg>
