<svg width="12" height="12" viewBox="0 0 12 12" fill="none" xmlns="http://www.w3.org/2000/svg">
<path d="M5.99991 6.87564L1.77075 11.1048C1.65964 11.2159 1.51742 11.2748 1.34408 11.2815C1.1702 11.2887 1.02075 11.2298 0.895752 11.1048C0.770752 10.9798 0.708252 10.834 0.708252 10.6673C0.708252 10.5006 0.770752 10.3548 0.895752 10.2298L5.12491 6.00064L0.895752 1.77148C0.784641 1.66037 0.725752 1.51787 0.719085 1.34398C0.711863 1.17065 0.770752 1.02148 0.895752 0.896484C1.02075 0.771484 1.16658 0.708984 1.33325 0.708984C1.49992 0.708984 1.64575 0.771484 1.77075 0.896484L5.99991 5.12564L10.2291 0.896484C10.3402 0.785373 10.4827 0.726207 10.6566 0.718984C10.8299 0.712318 10.9791 0.771484 11.1041 0.896484C11.2291 1.02148 11.2916 1.16732 11.2916 1.33398C11.2916 1.50065 11.2291 1.64648 11.1041 1.77148L6.87491 6.00064L11.1041 10.2298C11.2152 10.3409 11.2741 10.4831 11.2807 10.6565C11.288 10.8304 11.2291 10.9798 11.1041 11.1048C10.9791 11.2298 10.8332 11.2923 10.6666 11.2923C10.4999 11.2923 10.3541 11.2298 10.2291 11.1048L5.99991 6.87564Z" fill="#6B7B8C"/>
</svg>
