<svg width="20" height="20" viewBox="0 0 20 20" fill="none" xmlns="http://www.w3.org/2000/svg">
<mask id="mask0_3116_6788" style="mask-type:alpha" maskUnits="userSpaceOnUse" x="0" y="0" width="20" height="20">
<rect width="20" height="20" fill="#D9D9D9"/>
</mask>
<g mask="url(#mask0_3116_6788)">
<path d="M10.0002 11.1673L5.91683 15.2507C5.76405 15.4034 5.56961 15.4798 5.3335 15.4798C5.09738 15.4798 4.90294 15.4034 4.75016 15.2507C4.59738 15.0979 4.521 14.9034 4.521 14.6673C4.521 14.4312 4.59738 14.2368 4.75016 14.084L8.8335 10.0007L4.75016 5.91732C4.59738 5.76454 4.521 5.5701 4.521 5.33398C4.521 5.09787 4.59738 4.90343 4.75016 4.75065C4.90294 4.59787 5.09738 4.52148 5.3335 4.52148C5.56961 4.52148 5.76405 4.59787 5.91683 4.75065L10.0002 8.83398L14.0835 4.75065C14.2363 4.59787 14.4307 4.52148 14.6668 4.52148C14.9029 4.52148 15.0974 4.59787 15.2502 4.75065C15.4029 4.90343 15.4793 5.09787 15.4793 5.33398C15.4793 5.5701 15.4029 5.76454 15.2502 5.91732L11.1668 10.0007L15.2502 14.084C15.4029 14.2368 15.4793 14.4312 15.4793 14.6673C15.4793 14.9034 15.4029 15.0979 15.2502 15.2507C15.0974 15.4034 14.9029 15.4798 14.6668 15.4798C14.4307 15.4798 14.2363 15.4034 14.0835 15.2507L10.0002 11.1673Z" fill="#2C79BE"/>
</g>
</svg>
