<svg width="638" height="670" viewBox="0 0 638 670" fill="none" xmlns="http://www.w3.org/2000/svg">
<g filter="url(#filter0_dd_3379_28166)">
<rect x="3" y="2" width="632" height="664" rx="8" fill="white"/>
</g>
<path d="M3 10C3 5.58172 6.58172 2 11 2H627C631.418 2 635 5.58172 635 10V162H3V10Z" fill="#FEFEFE"/>
<line x1="137.975" y1="251" x2="137.975" y2="445" stroke="#E9EDF3" stroke-width="1.95097"/>
<rect x="137" y="262.5" width="128" height="12" rx="6" fill="url(#paint0_linear_3379_28166)"/>
<rect x="79" y="262" width="47" height="12" rx="6" fill="url(#paint1_linear_3379_28166)"/>
<rect x="53" y="311" width="73" height="12" rx="6" fill="url(#paint2_linear_3379_28166)"/>
<rect x="79" y="360" width="47" height="12" rx="6" fill="url(#paint3_linear_3379_28166)"/>
<rect x="34" y="409" width="92" height="12" rx="6" fill="url(#paint4_linear_3379_28166)"/>
<rect x="137" y="311" width="270" height="12" rx="6" fill="url(#paint5_linear_3379_28166)"/>
<rect x="137" y="360" width="195" height="12" rx="6" fill="url(#paint6_linear_3379_28166)"/>
<rect x="137" y="408" width="411" height="12" rx="6" fill="url(#paint7_linear_3379_28166)"/>
<rect x="26" y="197" width="166" height="12" rx="6" fill="url(#paint8_linear_3379_28166)"/>
<rect x="26" y="78" width="303" height="12" rx="6" fill="url(#paint9_linear_3379_28166)"/>
<rect x="26" y="98" width="103" height="12" rx="6" fill="url(#paint10_linear_3379_28166)"/>
<rect x="26" y="30" width="251" height="12" rx="6" fill="url(#paint11_linear_3379_28166)"/>
<path d="M591 79.2266C591 112.364 564.137 139.227 531 139.227C497.863 139.227 471 112.364 471 79.2266C471 46.0895 497.863 19.2266 531 19.2266C564.137 19.2266 591 46.0895 591 79.2266ZM477 79.2266C477 109.05 501.177 133.227 531 133.227C560.823 133.227 585 109.05 585 79.2266C585 49.4032 560.823 25.2266 531 25.2266C501.177 25.2266 477 49.4032 477 79.2266Z" fill="url(#paint12_linear_3379_28166)"/>
<defs>
<filter id="filter0_dd_3379_28166" x="0" y="0" width="638" height="670" filterUnits="userSpaceOnUse" color-interpolation-filters="sRGB">
<feFlood flood-opacity="0" result="BackgroundImageFix"/>
<feColorMatrix in="SourceAlpha" type="matrix" values="0 0 0 0 0 0 0 0 0 0 0 0 0 0 0 0 0 0 127 0" result="hardAlpha"/>
<feOffset dy="1"/>
<feGaussianBlur stdDeviation="1.5"/>
<feColorMatrix type="matrix" values="0 0 0 0 0.121569 0 0 0 0 0.219608 0 0 0 0 0.298039 0 0 0 0.1 0"/>
<feBlend mode="normal" in2="BackgroundImageFix" result="effect1_dropShadow_3379_28166"/>
<feColorMatrix in="SourceAlpha" type="matrix" values="0 0 0 0 0 0 0 0 0 0 0 0 0 0 0 0 0 0 127 0" result="hardAlpha"/>
<feOffset dy="1"/>
<feGaussianBlur stdDeviation="1"/>
<feColorMatrix type="matrix" values="0 0 0 0 0.121569 0 0 0 0 0.219608 0 0 0 0 0.298039 0 0 0 0.06 0"/>
<feBlend mode="normal" in2="effect1_dropShadow_3379_28166" result="effect2_dropShadow_3379_28166"/>
<feBlend mode="normal" in="SourceGraphic" in2="effect2_dropShadow_3379_28166" result="shape"/>
</filter>
<linearGradient id="paint0_linear_3379_28166" x1="137" y1="268.5" x2="265" y2="268.5" gradientUnits="userSpaceOnUse">
<stop stop-color="#E9EDF3"/>
<stop offset="0.461458" stop-color="#F9FAFC"/>
<stop offset="1" stop-color="#EAF3FA"/>
</linearGradient>
<linearGradient id="paint1_linear_3379_28166" x1="79" y1="268" x2="126" y2="268" gradientUnits="userSpaceOnUse">
<stop stop-color="#E9EDF3"/>
<stop offset="0.461458" stop-color="#F9FAFC"/>
<stop offset="1" stop-color="#EAF3FA"/>
</linearGradient>
<linearGradient id="paint2_linear_3379_28166" x1="53" y1="317" x2="126" y2="317" gradientUnits="userSpaceOnUse">
<stop stop-color="#E9EDF3"/>
<stop offset="0.461458" stop-color="#F9FAFC"/>
<stop offset="1" stop-color="#EAF3FA"/>
</linearGradient>
<linearGradient id="paint3_linear_3379_28166" x1="79" y1="366" x2="126" y2="366" gradientUnits="userSpaceOnUse">
<stop stop-color="#E9EDF3"/>
<stop offset="0.461458" stop-color="#F9FAFC"/>
<stop offset="1" stop-color="#EAF3FA"/>
</linearGradient>
<linearGradient id="paint4_linear_3379_28166" x1="34" y1="415" x2="126" y2="415" gradientUnits="userSpaceOnUse">
<stop stop-color="#E9EDF3"/>
<stop offset="0.461458" stop-color="#F9FAFC"/>
<stop offset="1" stop-color="#EAF3FA"/>
</linearGradient>
<linearGradient id="paint5_linear_3379_28166" x1="137" y1="317" x2="407" y2="317" gradientUnits="userSpaceOnUse">
<stop stop-color="#E9EDF3"/>
<stop offset="0.461458" stop-color="#F9FAFC"/>
<stop offset="1" stop-color="#EAF3FA"/>
</linearGradient>
<linearGradient id="paint6_linear_3379_28166" x1="137" y1="366" x2="332" y2="366" gradientUnits="userSpaceOnUse">
<stop stop-color="#E9EDF3"/>
<stop offset="0.461458" stop-color="#F9FAFC"/>
<stop offset="1" stop-color="#EAF3FA"/>
</linearGradient>
<linearGradient id="paint7_linear_3379_28166" x1="137" y1="414" x2="548" y2="414" gradientUnits="userSpaceOnUse">
<stop stop-color="#E9EDF3"/>
<stop offset="0.461458" stop-color="#F9FAFC"/>
<stop offset="1" stop-color="#EAF3FA"/>
</linearGradient>
<linearGradient id="paint8_linear_3379_28166" x1="26" y1="203" x2="192" y2="203" gradientUnits="userSpaceOnUse">
<stop stop-color="#E9EDF3"/>
<stop offset="0.461458" stop-color="#F9FAFC"/>
<stop offset="1" stop-color="#EAF3FA"/>
</linearGradient>
<linearGradient id="paint9_linear_3379_28166" x1="26" y1="84" x2="329" y2="83.9999" gradientUnits="userSpaceOnUse">
<stop stop-color="#E9EDF3"/>
<stop offset="0.461458" stop-color="#F9FAFC"/>
<stop offset="1" stop-color="#EAF3FA"/>
</linearGradient>
<linearGradient id="paint10_linear_3379_28166" x1="26" y1="104" x2="129" y2="104" gradientUnits="userSpaceOnUse">
<stop stop-color="#E9EDF3"/>
<stop offset="0.461458" stop-color="#F9FAFC"/>
<stop offset="1" stop-color="#EAF3FA"/>
</linearGradient>
<linearGradient id="paint11_linear_3379_28166" x1="26" y1="36" x2="277" y2="35.9999" gradientUnits="userSpaceOnUse">
<stop stop-color="#E9EDF3"/>
<stop offset="0.461458" stop-color="#F9FAFC"/>
<stop offset="1" stop-color="#EAF3FA"/>
</linearGradient>
<linearGradient id="paint12_linear_3379_28166" x1="530.74" y1="139.472" x2="530.74" y2="19.6866" gradientUnits="userSpaceOnUse">
<stop stop-color="#E9EDF3"/>
<stop offset="0.461458" stop-color="#F9FAFC"/>
<stop offset="1" stop-color="#EAF3FA"/>
</linearGradient>
</defs>
</svg>
