<svg width="13" height="14" viewBox="0 0 13 14" fill="none" xmlns="http://www.w3.org/2000/svg">
<path d="M2.31252 13.9751C1.93752 13.9751 1.61877 13.8438 1.35627 13.5813C1.09377 13.3188 0.962524 13.0001 0.962524 12.6251V3.1001H2.08752V12.6251C2.08752 12.6876 2.10927 12.7406 2.15277 12.7841C2.19677 12.8281 2.25002 12.8501 2.31252 12.8501H9.58752V13.9751H2.31252ZM4.93752 11.3501C4.56252 11.3501 4.24377 11.2188 3.98127 10.9563C3.71877 10.6938 3.58752 10.3751 3.58752 10.0001V1.46885C3.58752 1.08135 3.71877 0.756348 3.98127 0.493848C4.24377 0.231348 4.56252 0.100098 4.93752 0.100098H11.2188C11.6063 0.100098 11.9313 0.231348 12.1938 0.493848C12.4563 0.756348 12.5875 1.08135 12.5875 1.46885V10.0001C12.5875 10.3751 12.4563 10.6938 12.1938 10.9563C11.9313 11.2188 11.6063 11.3501 11.2188 11.3501H4.93752ZM4.93752 10.2251H11.2188C11.2813 10.2251 11.3375 10.2031 11.3875 10.1591C11.4375 10.1156 11.4625 10.0626 11.4625 10.0001V1.46885C11.4625 1.40635 11.4375 1.3501 11.3875 1.3001C11.3375 1.2501 11.2813 1.2251 11.2188 1.2251H4.93752C4.87502 1.2251 4.82202 1.2501 4.77852 1.3001C4.73452 1.3501 4.71252 1.40635 4.71252 1.46885V10.0001C4.71252 10.0626 4.73452 10.1156 4.77852 10.1591C4.82202 10.2031 4.87502 10.2251 4.93752 10.2251Z" fill="#5F6B7D"/>
</svg>
