<svg width="16" height="14" viewBox="0 0 16 14" fill="none" xmlns="http://www.w3.org/2000/svg">
<path d="M13.25 13.5625C12.7875 13.5625 12.3717 13.422 12.0028 13.141C11.6342 12.8595 11.3938 12.5 11.2812 12.0625H7.25C6.475 12.0625 5.8125 11.7875 5.2625 11.2375C4.7125 10.6875 4.4375 10.025 4.4375 9.25C4.4375 8.475 4.7125 7.8125 5.2625 7.2625C5.8125 6.7125 6.475 6.4375 7.25 6.4375H8.75C9.2125 6.4375 9.6095 6.27175 9.941 5.94025C10.272 5.60925 10.4375 5.2125 10.4375 4.75C10.4375 4.2875 10.272 3.8905 9.941 3.559C9.6095 3.228 9.2125 3.0625 8.75 3.0625H4.71875C4.59375 3.5 4.35 3.8595 3.9875 4.141C3.625 4.422 3.2125 4.5625 2.75 4.5625C2.175 4.5625 1.6875 4.3625 1.2875 3.9625C0.8875 3.5625 0.6875 3.075 0.6875 2.5C0.6875 1.925 0.8875 1.4375 1.2875 1.0375C1.6875 0.6375 2.175 0.4375 2.75 0.4375C3.2125 0.4375 3.625 0.578 3.9875 0.859C4.35 1.1405 4.59375 1.5 4.71875 1.9375H8.75C9.525 1.9375 10.1875 2.2125 10.7375 2.7625C11.2875 3.3125 11.5625 3.975 11.5625 4.75C11.5625 5.525 11.2875 6.1875 10.7375 6.7375C10.1875 7.2875 9.525 7.5625 8.75 7.5625H7.25C6.7875 7.5625 6.39075 7.728 6.05975 8.059C5.72825 8.3905 5.5625 8.7875 5.5625 9.25C5.5625 9.7125 5.72825 10.1093 6.05975 10.4403C6.39075 10.7717 6.7875 10.9375 7.25 10.9375H11.2812C11.4062 10.5 11.65 10.1405 12.0125 9.859C12.375 9.578 12.7875 9.4375 13.25 9.4375C13.825 9.4375 14.3125 9.6375 14.7125 10.0375C15.1125 10.4375 15.3125 10.925 15.3125 11.5C15.3125 12.075 15.1125 12.5625 14.7125 12.9625C14.3125 13.3625 13.825 13.5625 13.25 13.5625ZM2.75 3.4375C3.0125 3.4375 3.2345 3.34675 3.416 3.16525C3.597 2.98425 3.6875 2.7625 3.6875 2.5C3.6875 2.2375 3.597 2.0155 3.416 1.834C3.2345 1.653 3.0125 1.5625 2.75 1.5625C2.4875 1.5625 2.26575 1.653 2.08475 1.834C1.90325 2.0155 1.8125 2.2375 1.8125 2.5C1.8125 2.7625 1.90325 2.98425 2.08475 3.16525C2.26575 3.34675 2.4875 3.4375 2.75 3.4375Z" fill="#6B7B8C"/>
</svg>
