<svg width="20" height="20" viewBox="0 0 20 20" fill="none" xmlns="http://www.w3.org/2000/svg">
<path d="M17.3462 4.19141H2.65386C1.73078 4.19141 0.961548 4.96064 0.961548 5.88371V14.076C0.961548 14.9991 1.73078 15.7683 2.65386 15.7683H17.3462C18.2692 15.7683 19.0385 14.9991 19.0385 14.076V5.92218C19.0385 4.96064 18.2692 4.19141 17.3462 4.19141ZM4.61539 14.076C4.61539 12.9606 3.73078 12.1145 2.65386 12.1145V7.88371C3.76924 7.88371 4.61539 6.9991 4.61539 5.92218H15.3846C15.3846 7.03756 16.2692 7.88371 17.3462 7.88371V12.1145C16.2308 12.1145 15.3846 12.9991 15.3846 14.076H4.61539Z" fill="#FF00FF"/>
<path d="M10 12.6525C11.5507 12.6525 12.8077 11.3954 12.8077 9.8448C12.8077 8.29416 11.5507 7.03711 10 7.03711C8.44937 7.03711 7.19232 8.29416 7.19232 9.8448C7.19232 11.3954 8.44937 12.6525 10 12.6525Z" fill="#FF00FF"/>
</svg>
