<svg width="24" height="24" viewBox="0 0 24 24" fill="none" xmlns="http://www.w3.org/2000/svg">
<mask id="mask0_1129_1030" style="mask-type:alpha" maskUnits="userSpaceOnUse" x="0" y="0" width="24" height="24">
<rect width="24" height="24" fill="#D9D9D9"/>
</mask>
<g mask="url(#mask0_1129_1030)">
<path d="M12.6498 8.98639C12.7664 8.98639 12.8788 9.00306 12.9868 9.03639C13.0954 9.06973 13.1914 9.13639 13.2748 9.23639L17.7998 13.7364C17.9331 13.8864 17.9998 14.0614 17.9998 14.2614C17.9998 14.4614 17.9248 14.6364 17.7748 14.7864C17.6248 14.9197 17.4498 14.9864 17.2498 14.9864C17.0498 14.9864 16.8748 14.9197 16.7248 14.7864L12.6498 10.7114L8.54976 14.7864C8.41642 14.9364 8.24975 15.0074 8.04976 14.9994C7.84976 14.9907 7.67476 14.9197 7.52476 14.7864C7.37476 14.6364 7.29976 14.4574 7.29976 14.2494C7.29976 14.0407 7.37476 13.8697 7.52476 13.7364L12.0248 9.23639C12.1081 9.13639 12.2038 9.06973 12.3118 9.03639C12.4204 9.00306 12.5331 8.98639 12.6498 8.98639Z" fill="#464E5F"/>
</g>
</svg>
