<svg width="24" height="24" viewBox="0 0 24 24" fill="none" xmlns="http://www.w3.org/2000/svg">
<mask id="mask0_1129_1054" style="mask-type:alpha" maskUnits="userSpaceOnUse" x="0" y="0" width="24" height="24">
<rect y="24" width="24" height="24" transform="rotate(-90 0 24)" fill="#D9D9D9"/>
</mask>
<g mask="url(#mask0_1129_1054)">
<path d="M15.6498 12C15.6498 12.1167 15.6332 12.229 15.5998 12.337C15.5665 12.4457 15.4998 12.5417 15.3998 12.625L10.8998 17.15C10.7498 17.2834 10.5748 17.35 10.3748 17.35C10.1748 17.35 9.99984 17.275 9.84984 17.125C9.71651 16.975 9.64984 16.8 9.64984 16.6C9.64984 16.4 9.71651 16.225 9.84984 16.075L13.9248 12L9.84984 7.90004C9.69984 7.7667 9.62884 7.60004 9.63684 7.40004C9.6455 7.20004 9.71651 7.02504 9.84984 6.87504C9.99984 6.72504 10.1788 6.65004 10.3868 6.65004C10.5955 6.65004 10.7665 6.72504 10.8998 6.87504L15.3998 11.375C15.4998 11.4584 15.5665 11.554 15.5998 11.662C15.6332 11.7707 15.6498 11.8834 15.6498 12Z" fill="#464E5F"/>
</g>
</svg>
