<svg width="20" height="20" viewBox="0 0 20 20" fill="none" xmlns="http://www.w3.org/2000/svg">
<mask id="mask0_415_597" style="mask-type:alpha" maskUnits="userSpaceOnUse" x="0" y="0" width="20" height="20">
<rect width="20" height="20" fill="#D9D9D9"/>
</mask>
<g mask="url(#mask0_415_597)">
<path d="M3.45831 8.95898C3.24998 8.95898 3.07304 8.88621 2.92748 8.74065C2.78137 8.59454 2.70831 8.41732 2.70831 8.20898V3.45898C2.70831 3.25065 2.78137 3.07343 2.92748 2.92732C3.07304 2.78176 3.24998 2.70898 3.45831 2.70898H8.20831C8.41665 2.70898 8.59387 2.78176 8.73998 2.92732C8.88553 3.07343 8.95831 3.25065 8.95831 3.45898V8.20898C8.95831 8.41732 8.88553 8.59454 8.73998 8.74065C8.59387 8.88621 8.41665 8.95898 8.20831 8.95898H3.45831ZM11.7916 8.95898C11.5833 8.95898 11.4061 8.88621 11.26 8.74065C11.1144 8.59454 11.0416 8.41732 11.0416 8.20898V3.45898C11.0416 3.25065 11.1144 3.07343 11.26 2.92732C11.4061 2.78176 11.5833 2.70898 11.7916 2.70898H16.5416C16.75 2.70898 16.9272 2.78176 17.0733 2.92732C17.2189 3.07343 17.2916 3.25065 17.2916 3.45898V8.20898C17.2916 8.41732 17.2189 8.59454 17.0733 8.74065C16.9272 8.88621 16.75 8.95898 16.5416 8.95898H11.7916ZM3.45831 17.2923C3.24998 17.2923 3.07304 17.2195 2.92748 17.074C2.78137 16.9279 2.70831 16.7507 2.70831 16.5423V11.7923C2.70831 11.584 2.78137 11.4068 2.92748 11.2607C3.07304 11.1151 3.24998 11.0423 3.45831 11.0423H8.20831C8.41665 11.0423 8.59387 11.1151 8.73998 11.2607C8.88553 11.4068 8.95831 11.584 8.95831 11.7923V16.5423C8.95831 16.7507 8.88553 16.9279 8.73998 17.074C8.59387 17.2195 8.41665 17.2923 8.20831 17.2923H3.45831ZM14.1666 17.2923C13.9861 17.2923 13.8366 17.2334 13.7183 17.1157C13.6005 16.9973 13.5416 16.8479 13.5416 16.6673V14.7923H11.6458C11.4791 14.7923 11.3369 14.7334 11.2191 14.6157C11.1008 14.4973 11.0416 14.3479 11.0416 14.1673C11.0416 13.9868 11.1008 13.8373 11.2191 13.719C11.3369 13.6012 11.4861 13.5423 11.6666 13.5423H13.5416V11.6465C13.5416 11.4798 13.6005 11.3373 13.7183 11.219C13.8366 11.1012 13.9861 11.0423 14.1666 11.0423C14.3472 11.0423 14.4966 11.1012 14.615 11.219C14.7328 11.3373 14.7916 11.4868 14.7916 11.6673V13.5423H16.6875C16.8541 13.5423 16.9966 13.6012 17.115 13.719C17.2328 13.8373 17.2916 13.9868 17.2916 14.1673C17.2916 14.3479 17.2328 14.4973 17.115 14.6157C16.9966 14.7334 16.8472 14.7923 16.6666 14.7923H14.7916V16.6882C14.7916 16.8548 14.7328 16.9973 14.615 17.1157C14.4966 17.2334 14.3472 17.2923 14.1666 17.2923ZM12.2916 3.95898V7.70898H16.0416V3.95898H12.2916ZM3.95831 3.95898V7.70898H7.70831V3.95898H3.95831ZM3.95831 12.2923V16.0423H7.70831V12.2923H3.95831Z" fill="#FF00FF"/>
</g>
</svg>
