<svg width="24" height="24" viewBox="0 0 24 24" fill="none" xmlns="http://www.w3.org/2000/svg">
<mask id="mask0_2302_14599" style="mask-type:alpha" maskUnits="userSpaceOnUse" x="0" y="0" width="24" height="24">
<rect width="24" height="24" fill="white"/>
</mask>
<g mask="url(#mask0_2302_14599)">
<path d="M4.15 10.75C3.9 10.75 3.68767 10.6627 3.513 10.488C3.33767 10.3127 3.25 10.1 3.25 9.85V4.15C3.25 3.9 3.33767 3.68733 3.513 3.512C3.68767 3.33733 3.9 3.25 4.15 3.25H9.85C10.1 3.25 10.3127 3.33733 10.488 3.512C10.6627 3.68733 10.75 3.9 10.75 4.15V9.85C10.75 10.1 10.6627 10.3127 10.488 10.488C10.3127 10.6627 10.1 10.75 9.85 10.75H4.15ZM14.15 10.75C13.9 10.75 13.6873 10.6627 13.512 10.488C13.3373 10.3127 13.25 10.1 13.25 9.85V4.15C13.25 3.9 13.3373 3.68733 13.512 3.512C13.6873 3.33733 13.9 3.25 14.15 3.25H19.85C20.1 3.25 20.3127 3.33733 20.488 3.512C20.6627 3.68733 20.75 3.9 20.75 4.15V9.85C20.75 10.1 20.6627 10.3127 20.488 10.488C20.3127 10.6627 20.1 10.75 19.85 10.75H14.15ZM4.15 20.75C3.9 20.75 3.68767 20.6627 3.513 20.488C3.33767 20.3127 3.25 20.1 3.25 19.85V14.15C3.25 13.9 3.33767 13.6873 3.513 13.512C3.68767 13.3373 3.9 13.25 4.15 13.25H9.85C10.1 13.25 10.3127 13.3373 10.488 13.512C10.6627 13.6873 10.75 13.9 10.75 14.15V19.85C10.75 20.1 10.6627 20.3127 10.488 20.488C10.3127 20.6627 10.1 20.75 9.85 20.75H4.15ZM17 20.75C16.7833 20.75 16.604 20.6793 16.462 20.538C16.3207 20.396 16.25 20.2167 16.25 20V17.75H13.975C13.775 17.75 13.6043 17.6793 13.463 17.538C13.321 17.396 13.25 17.2167 13.25 17C13.25 16.7833 13.321 16.604 13.463 16.462C13.6043 16.3207 13.7833 16.25 14 16.25H16.25V13.975C16.25 13.775 16.3207 13.604 16.462 13.462C16.604 13.3207 16.7833 13.25 17 13.25C17.2167 13.25 17.396 13.3207 17.538 13.462C17.6793 13.604 17.75 13.7833 17.75 14V16.25H20.025C20.225 16.25 20.396 16.3207 20.538 16.462C20.6793 16.604 20.75 16.7833 20.75 17C20.75 17.2167 20.6793 17.396 20.538 17.538C20.396 17.6793 20.2167 17.75 20 17.75H17.75V20.025C17.75 20.225 17.6793 20.396 17.538 20.538C17.396 20.6793 17.2167 20.75 17 20.75ZM14.75 4.75V9.25H19.25V4.75H14.75ZM4.75 4.75V9.25H9.25V4.75H4.75ZM4.75 14.75V19.25H9.25V14.75H4.75Z" fill="white"/>
</g>
</svg>
