<svg width="20" height="20" viewBox="0 0 20 20" fill="none" xmlns="http://www.w3.org/2000/svg">
<mask id="mask0_3659_15483" style="mask-type:alpha" maskUnits="userSpaceOnUse" x="0" y="0" width="20" height="20">
<rect width="20" height="20" fill="#D9D9D9"/>
</mask>
<g mask="url(#mask0_3659_15483)">
<path d="M6.08333 17.0835C5.66666 17.0835 5.3125 16.9376 5.02083 16.646C4.72917 16.3543 4.58333 16.0001 4.58333 15.5835V5.00016H3.75V3.75016H7.49999V3.021H12.5V3.75016H16.25V5.00016H15.4166V15.5835C15.4166 16.0001 15.2708 16.3543 14.9791 16.646C14.6875 16.9376 14.3333 17.0835 13.9167 17.0835H6.08333ZM14.1666 5.00016H5.83333V15.5835C5.83333 15.6529 5.85777 15.7121 5.90666 15.761C5.955 15.8093 6.01389 15.8335 6.08333 15.8335H13.9167C13.9722 15.8335 14.0278 15.8057 14.0833 15.7501C14.1389 15.6946 14.1666 15.639 14.1666 15.5835V5.00016ZM7.83333 14.1668H9.08332V6.66682H7.83333V14.1668ZM10.9167 14.1668H12.1667V6.66682H10.9167V14.1668ZM5.83333 5.00016V15.8335V15.5835V5.00016Z" fill="#FF293D"/>
</g>
</svg>
