<svg width="8" height="30" viewBox="0 0 8 30" fill="none" xmlns="http://www.w3.org/2000/svg">
<path d="M4.5 1.3335C4.5 1.05735 4.27614 0.833496 4 0.833496C3.72386 0.833496 3.5 1.05735 3.5 1.3335H4.5ZM3.64645 29.687C3.84171 29.8823 4.15829 29.8823 4.35355 29.687L7.53553 26.5051C7.7308 26.3098 7.7308 25.9932 7.53553 25.798C7.34027 25.6027 7.02369 25.6027 6.82843 25.798L4 28.6264L1.17157 25.798C0.976311 25.6027 0.659728 25.6027 0.464466 25.798C0.269204 25.9932 0.269204 26.3098 0.464466 26.5051L3.64645 29.687ZM3.5 2.3335C3.5 2.60964 3.72386 2.8335 4 2.8335C4.27614 2.8335 4.5 2.60964 4.5 2.3335H3.5ZM4.5 4.3335C4.5 4.05735 4.27614 3.8335 4 3.8335C3.72386 3.8335 3.5 4.05735 3.5 4.3335H4.5ZM3.5 6.3335C3.5 6.60964 3.72386 6.8335 4 6.8335C4.27614 6.8335 4.5 6.60964 4.5 6.3335H3.5ZM4.5 8.3335C4.5 8.05735 4.27614 7.8335 4 7.8335C3.72386 7.8335 3.5 8.05735 3.5 8.3335H4.5ZM3.5 10.3335C3.5 10.6096 3.72386 10.8335 4 10.8335C4.27614 10.8335 4.5 10.6096 4.5 10.3335H3.5ZM4.5 12.3335C4.5 12.0574 4.27614 11.8335 4 11.8335C3.72386 11.8335 3.5 12.0574 3.5 12.3335H4.5ZM3.5 14.3335C3.5 14.6096 3.72386 14.8335 4 14.8335C4.27614 14.8335 4.5 14.6096 4.5 14.3335H3.5ZM4.5 16.3335C4.5 16.0574 4.27614 15.8335 4 15.8335C3.72386 15.8335 3.5 16.0574 3.5 16.3335H4.5ZM3.5 18.3335C3.5 18.6096 3.72386 18.8335 4 18.8335C4.27614 18.8335 4.5 18.6096 4.5 18.3335H3.5ZM4.5 20.3335C4.5 20.0574 4.27614 19.8335 4 19.8335C3.72386 19.8335 3.5 20.0574 3.5 20.3335H4.5ZM3.5 22.3335C3.5 22.6096 3.72386 22.8335 4 22.8335C4.27614 22.8335 4.5 22.6096 4.5 22.3335H3.5ZM4.5 24.3335C4.5 24.0574 4.27614 23.8335 4 23.8335C3.72386 23.8335 3.5 24.0574 3.5 24.3335H4.5ZM3.5 26.3335C3.5 26.6096 3.72386 26.8335 4 26.8335C4.27614 26.8335 4.5 26.6096 4.5 26.3335H3.5ZM4.5 28.3335C4.5 28.0574 4.27614 27.8335 4 27.8335C3.72386 27.8335 3.5 28.0574 3.5 28.3335H4.5ZM3.5 1.3335V2.3335H4.5V1.3335H3.5ZM3.5 4.3335V6.3335H4.5V4.3335H3.5ZM3.5 8.3335V10.3335H4.5V8.3335H3.5ZM3.5 12.3335V14.3335H4.5V12.3335H3.5ZM3.5 16.3335V18.3335H4.5V16.3335H3.5ZM3.5 20.3335V22.3335H4.5V20.3335H3.5ZM3.5 24.3335V26.3335H4.5V24.3335H3.5ZM3.5 28.3335V29.3335H4.5V28.3335H3.5Z" fill="#D1D3D6"/>
</svg>
