<svg width="8" height="9" viewBox="0 0 8 9" fill="none" xmlns="http://www.w3.org/2000/svg">
<path d="M4.00006 4.18332C3.92228 4.18332 3.8474 4.16932 3.7754 4.14132C3.70295 4.11377 3.63895 4.07221 3.5834 4.01666L0.583396 1.01666C0.494507 0.927768 0.447396 0.813768 0.442063 0.674657C0.436285 0.53599 0.483396 0.416656 0.583396 0.316656C0.683396 0.216656 0.800063 0.166656 0.933396 0.166656C1.06673 0.166656 1.1834 0.216656 1.2834 0.316656L4.00006 3.01666L6.71673 0.316656C6.80562 0.227768 6.91962 0.180434 7.05873 0.174657C7.1974 0.169323 7.31673 0.216656 7.41673 0.316656C7.51673 0.416656 7.56673 0.533323 7.56673 0.666656C7.56673 0.79999 7.51673 0.916657 7.41673 1.01666L4.41673 4.01666C4.36117 4.07221 4.2974 4.11377 4.2254 4.14132C4.15295 4.16932 4.07784 4.18332 4.00006 4.18332ZM4.00006 8.16666C3.92228 8.16666 3.8474 8.15555 3.7754 8.13332C3.70295 8.1111 3.63895 8.06666 3.5834 7.99999L0.583396 4.99999C0.494507 4.9111 0.447396 4.7971 0.442063 4.65799C0.436285 4.51932 0.483396 4.39999 0.583396 4.29999C0.683396 4.19999 0.800063 4.14999 0.933396 4.14999C1.06673 4.14999 1.1834 4.19999 1.2834 4.29999L4.00006 6.99999L6.71673 4.29999C6.80562 4.2111 6.91962 4.16399 7.05873 4.15866C7.1974 4.15288 7.31673 4.19999 7.41673 4.29999C7.51673 4.39999 7.56673 4.51932 7.56673 4.65799C7.56673 4.7971 7.51673 4.9111 7.41673 4.99999L4.41673 7.99999C4.36117 8.06666 4.2974 8.1111 4.2254 8.13332C4.15295 8.15555 4.07784 8.16666 4.00006 8.16666Z" fill="#1F384C" fill-opacity="0.7"/>
</svg>
