<svg width="8" height="9" viewBox="0 0 8 9" fill="none" xmlns="http://www.w3.org/2000/svg">
<path d="M0.583594 4.68332C0.483594 4.58332 0.433594 4.46665 0.433594 4.33332C0.433594 4.19998 0.483594 4.08332 0.583594 3.98332L3.58359 0.983317C3.63915 0.927762 3.70315 0.885984 3.77559 0.857984C3.84759 0.830428 3.92248 0.81665 4.00026 0.81665C4.07804 0.81665 4.15315 0.830428 4.22559 0.857984C4.29759 0.885984 4.36137 0.927762 4.41693 0.983317L7.41693 3.98332C7.50582 4.07221 7.55293 4.18598 7.55826 4.32465C7.56404 4.46376 7.51693 4.58332 7.41693 4.68332C7.31693 4.78332 7.20026 4.83332 7.06693 4.83332C6.93359 4.83332 6.81693 4.78332 6.71693 4.68332L4.00026 1.98332L1.28359 4.68332C1.1947 4.77221 1.08093 4.81954 0.94226 4.82532C0.803149 4.83065 0.683594 4.78332 0.583594 4.68332ZM0.583594 8.68332C0.483594 8.58332 0.433594 8.46665 0.433594 8.33332C0.433594 8.19998 0.483594 8.08332 0.583594 7.98332L3.58359 4.98332C3.63915 4.92776 3.70315 4.88598 3.77559 4.85798C3.84759 4.83043 3.92248 4.81665 4.00026 4.81665C4.07804 4.81665 4.15315 4.83043 4.22559 4.85798C4.29759 4.88598 4.36137 4.92776 4.41693 4.98332L7.41693 7.98332C7.50582 8.07221 7.55293 8.18621 7.55826 8.32532C7.56404 8.46398 7.51693 8.58332 7.41693 8.68332C7.31693 8.78332 7.20026 8.83332 7.06693 8.83332C6.93359 8.83332 6.81693 8.78332 6.71693 8.68332L4.00026 5.98332L1.28359 8.68332C1.1947 8.77221 1.08093 8.81954 0.94226 8.82532C0.803149 8.83065 0.683594 8.78332 0.583594 8.68332Z" fill="#1F384C" fill-opacity="0.7"/>
</svg>
