<svg width="16" height="16" viewBox="0 0 16 16" fill="none" xmlns="http://www.w3.org/2000/svg">
<mask id="mask0_1890_18843" style="mask-type:alpha" maskUnits="userSpaceOnUse" x="0" y="0" width="16" height="16">
<rect width="16" height="16" fill="#D9D9D9"/>
</mask>
<g mask="url(#mask0_1890_18843)">
<path d="M4.58332 7.68307C4.48332 7.58307 4.43332 7.46641 4.43332 7.33307C4.43332 7.19974 4.48332 7.08307 4.58332 6.98307L7.58332 3.98307C7.63887 3.92752 7.70287 3.88574 7.77532 3.85774C7.84732 3.83018 7.92221 3.81641 7.99999 3.81641C8.07776 3.81641 8.15287 3.83018 8.22532 3.85774C8.29732 3.88574 8.3611 3.92752 8.41665 3.98307L11.4167 6.98307C11.5055 7.07196 11.5527 7.18574 11.558 7.32441C11.5638 7.46352 11.5167 7.58307 11.4167 7.68307C11.3167 7.78307 11.2 7.83307 11.0667 7.83307C10.9333 7.83307 10.8167 7.78307 10.7167 7.68307L7.99999 4.98307L5.28332 7.68307C5.19443 7.77196 5.08065 7.8193 4.94199 7.82507C4.80287 7.83041 4.68332 7.78307 4.58332 7.68307ZM4.58332 11.6831C4.48332 11.5831 4.43332 11.4664 4.43332 11.3331C4.43332 11.1997 4.48332 11.0831 4.58332 10.9831L7.58332 7.98307C7.63887 7.92752 7.70287 7.88574 7.77532 7.85774C7.84732 7.83018 7.92221 7.81641 7.99999 7.81641C8.07776 7.81641 8.15287 7.83018 8.22532 7.85774C8.29732 7.88574 8.3611 7.92752 8.41665 7.98307L11.4167 10.9831C11.5055 11.072 11.5527 11.186 11.558 11.3251C11.5638 11.4637 11.5167 11.5831 11.4167 11.6831C11.3167 11.7831 11.2 11.8331 11.0667 11.8331C10.9333 11.8331 10.8167 11.7831 10.7167 11.6831L7.99999 8.98307L5.28332 11.6831C5.19443 11.772 5.08065 11.8193 4.94199 11.8251C4.80287 11.8304 4.68332 11.7831 4.58332 11.6831Z" fill="#EAF3FA"/>
</g>
</svg>
