<svg width="18" height="18" viewBox="0 0 18 18" fill="none" xmlns="http://www.w3.org/2000/svg">
<mask id="mask0_4362_6408" style="mask-type:alpha" maskUnits="userSpaceOnUse" x="0" y="0" width="18" height="18">
<rect width="18" height="18" fill="#D9D9D9"/>
</mask>
<g mask="url(#mask0_4362_6408)">
<path d="M10.725 13.725C10.5875 13.5875 10.5187 13.4125 10.5187 13.2C10.5187 12.9875 10.5875 12.8125 10.725 12.675L13.65 9.74998H2.25C2.0375 9.74998 1.8595 9.67798 1.716 9.53398C1.572 9.39048 1.5 9.21248 1.5 8.99998C1.5 8.78748 1.572 8.60923 1.716 8.46523C1.8595 8.32173 2.0375 8.24998 2.25 8.24998H13.65L10.725 5.32498C10.5875 5.18748 10.5187 5.01248 10.5187 4.79998C10.5187 4.58748 10.5875 4.41248 10.725 4.27498C10.8625 4.13748 11.0375 4.06873 11.25 4.06873C11.4625 4.06873 11.6375 4.13748 11.775 4.27498L15.975 8.47498C16.05 8.54998 16.1033 8.63123 16.1348 8.71873C16.1658 8.80623 16.1813 8.89998 16.1813 8.99998C16.1813 9.09998 16.1658 9.19373 16.1348 9.28123C16.1033 9.36873 16.05 9.44998 15.975 9.52498L11.775 13.725C11.6375 13.8625 11.4625 13.9312 11.25 13.9312C11.0375 13.9312 10.8625 13.8625 10.725 13.725Z" fill="#136EE5"/>
</g>
</svg>
