<svg width="14" height="14" viewBox="0 0 14 14" fill="none" xmlns="http://www.w3.org/2000/svg">
<path d="M12.1373 4.4874L9.60606 1.9749L10.5998 0.999902C10.8123 0.787402 11.0781 0.681152 11.3971 0.681152C11.7156 0.681152 11.9811 0.787402 12.1936 0.999902L13.1123 1.91865C13.3248 2.14365 13.4373 2.40915 13.4498 2.71515C13.4623 3.02165 13.3561 3.28115 13.1311 3.49365L12.1373 4.4874ZM1.4123 13.3749C1.2248 13.3749 1.06555 13.3094 0.934555 13.1784C0.803055 13.0469 0.737305 12.8874 0.737305 12.6999V11.1249C0.737305 11.0374 0.753055 10.9532 0.784555 10.8722C0.815555 10.7907 0.868555 10.7124 0.943555 10.6374L8.7998 2.78115L11.3311 5.3124L3.4748 13.1687C3.3998 13.2437 3.3218 13.2969 3.2408 13.3284C3.1593 13.3594 3.0748 13.3749 2.9873 13.3749H1.4123Z" fill="#B8BFCC"/>
</svg>
