<svg width="15" height="16" viewBox="0 0 15 16" fill="none" xmlns="http://www.w3.org/2000/svg">
<path d="M12.7082 5.20823L9.89567 2.41657L10.9998 1.33323C11.2359 1.09712 11.5312 0.979065 11.8857 0.979065C12.2396 0.979065 12.5346 1.09712 12.7707 1.33323L13.7915 2.35406C14.0276 2.60406 14.1526 2.89907 14.1665 3.23906C14.1804 3.57962 14.0623 3.86795 13.8123 4.10406L12.7082 5.20823ZM0.791504 15.0832C0.583171 15.0832 0.406226 15.0105 0.260671 14.8649C0.114559 14.7188 0.0415039 14.5416 0.0415039 14.3332V12.5832C0.0415039 12.486 0.0590039 12.3924 0.0940039 12.3024C0.128448 12.2118 0.187337 12.1249 0.27067 12.0416L8.99984 3.3124L11.8123 6.1249L3.08317 14.8541C2.99984 14.9374 2.91317 14.9966 2.82317 15.0316C2.73261 15.066 2.63873 15.0832 2.5415 15.0832H0.791504Z" fill="#05956F"/>
</svg>
