<svg width="14" height="14" viewBox="0 0 14 14" fill="none" xmlns="http://www.w3.org/2000/svg">
<path d="M2.25 13.2498C1.83333 13.2498 1.47917 13.104 1.1875 12.8123C0.895833 12.5207 0.75 12.1665 0.75 11.7498V9.49984H2V11.7498C2 11.8054 2.02778 11.8609 2.08333 11.9165C2.13889 11.9721 2.19444 11.9998 2.25 11.9998H11.75C11.8056 11.9998 11.8611 11.9721 11.9167 11.9165C11.9722 11.8609 12 11.8054 12 11.7498V9.49984H13.25V11.7498C13.25 12.1665 13.1042 12.5207 12.8125 12.8123C12.5208 13.104 12.1667 13.2498 11.75 13.2498H2.25ZM7 10.0207L3.4375 6.45817L4.3125 5.5415L6.375 7.604V0.604004H7.625V7.604L9.6875 5.5415L10.5625 6.45817L7 10.0207Z" fill="#136EE5"/>
</svg>
