<svg width="36" height="36" viewBox="0 0 36 36" fill="none" xmlns="http://www.w3.org/2000/svg">
<g clip-path="url(#clip0_2097_38900)">
<g filter="url(#filter0_f_2097_38900)">
<path d="M4.49954 3.375C4.49954 3.07663 4.61807 2.79048 4.82904 2.5795C5.04002 2.36853 5.32617 2.25 5.62454 2.25C5.92291 2.25 6.20906 2.36853 6.42004 2.5795C6.63102 2.79048 6.74954 3.07663 6.74954 3.375V4.5H7.87454C8.17291 4.5 8.45906 4.61853 8.67004 4.8295C8.88102 5.04048 8.99954 5.32663 8.99954 5.625C8.99954 5.92337 8.88102 6.20952 8.67004 6.4205C8.45906 6.63147 8.17291 6.75 7.87454 6.75H6.74954V7.875C6.74954 8.17337 6.63102 8.45952 6.42004 8.6705C6.20906 8.88147 5.92291 9 5.62454 9C5.32617 9 5.04002 8.88147 4.82904 8.6705C4.61807 8.45952 4.49954 8.17337 4.49954 7.875V6.75H3.37454C3.07617 6.75 2.79002 6.63147 2.57904 6.4205C2.36807 6.20952 2.24954 5.92337 2.24954 5.625C2.24954 5.32663 2.36807 5.04048 2.57904 4.8295C2.79002 4.61853 3.07617 4.5 3.37454 4.5H4.49954V3.375ZM26.9995 7.875C26.9995 7.57663 27.1181 7.29048 27.329 7.0795C27.54 6.86853 27.8262 6.75 28.1245 6.75C28.4229 6.75 28.7091 6.86853 28.92 7.0795C29.131 7.29048 29.2495 7.57663 29.2495 7.875V9H30.3745C30.6729 9 30.9591 9.11853 31.17 9.3295C31.381 9.54048 31.4995 9.82663 31.4995 10.125C31.4995 10.4234 31.381 10.7095 31.17 10.9205C30.9591 11.1315 30.6729 11.25 30.3745 11.25H29.2495V12.375C29.2495 12.6734 29.131 12.9595 28.92 13.1705C28.7091 13.3815 28.4229 13.5 28.1245 13.5C27.8262 13.5 27.54 13.3815 27.329 13.1705C27.1181 12.9595 26.9995 12.6734 26.9995 12.375V11.25H25.8745C25.5762 11.25 25.29 11.1315 25.079 10.9205C24.8681 10.7095 24.7495 10.4234 24.7495 10.125C24.7495 9.82663 24.8681 9.54048 25.079 9.3295C25.29 9.11853 25.5762 9 25.8745 9H26.9995V7.875ZM6.74954 25.875C6.74954 26.1734 6.86807 26.4595 7.07904 26.6705C7.29002 26.8815 7.57617 27 7.87454 27H8.99954V28.125C8.99954 28.4234 9.11807 28.7095 9.32904 28.9205C9.54002 29.1315 9.82617 29.25 10.1245 29.25C10.4229 29.25 10.7091 29.1315 10.92 28.9205C11.131 28.7095 11.2495 28.4234 11.2495 28.125V27H12.3745C12.6729 27 12.9591 26.8815 13.17 26.6705C13.381 26.4595 13.4995 26.1734 13.4995 25.875C13.4995 25.5766 13.381 25.2905 13.17 25.0795C12.9591 24.8685 12.6729 24.75 12.3745 24.75H11.2495V23.625C11.2495 23.3266 11.131 23.0405 10.92 22.8295C10.7091 22.6185 10.4229 22.5 10.1245 22.5C9.82617 22.5 9.54002 22.6185 9.32904 22.8295C9.11807 23.0405 8.99954 23.3266 8.99954 23.625V24.75H7.87454C7.57617 24.75 7.29002 24.8685 7.07904 25.0795C6.86807 25.2905 6.74954 25.5766 6.74954 25.875ZM16.357 10.2668C15.5491 9.45907 14.4533 9.00543 13.3109 9.00564C12.1684 9.00586 11.0728 9.45989 10.2652 10.2679C9.45748 11.0759 9.00385 12.1716 9.00406 13.314C9.00427 14.4565 9.45831 15.5521 10.2663 16.3597L11.3463 17.4397L17.437 11.3445L16.357 10.2645V10.2668ZM19.0278 12.9375L12.937 19.0282L26.3988 32.49C27.2065 33.2977 28.3019 33.7514 29.4442 33.7514C30.5864 33.7514 31.6819 33.2977 32.4895 32.49C33.2972 31.6823 33.751 30.5869 33.751 29.4446C33.751 28.3024 33.2972 27.2069 32.4895 26.3993L19.0278 12.9375Z" fill="#5F6B7D" fill-opacity="0.3"/>
</g>
<path d="M4.49954 3.375C4.49954 3.07663 4.61807 2.79048 4.82904 2.5795C5.04002 2.36853 5.32617 2.25 5.62454 2.25C5.92291 2.25 6.20906 2.36853 6.42004 2.5795C6.63102 2.79048 6.74954 3.07663 6.74954 3.375V4.5H7.87454C8.17291 4.5 8.45906 4.61853 8.67004 4.8295C8.88102 5.04048 8.99954 5.32663 8.99954 5.625C8.99954 5.92337 8.88102 6.20952 8.67004 6.4205C8.45906 6.63147 8.17291 6.75 7.87454 6.75H6.74954V7.875C6.74954 8.17337 6.63102 8.45952 6.42004 8.6705C6.20906 8.88147 5.92291 9 5.62454 9C5.32617 9 5.04002 8.88147 4.82904 8.6705C4.61807 8.45952 4.49954 8.17337 4.49954 7.875V6.75H3.37454C3.07617 6.75 2.79002 6.63147 2.57904 6.4205C2.36807 6.20952 2.24954 5.92337 2.24954 5.625C2.24954 5.32663 2.36807 5.04048 2.57904 4.8295C2.79002 4.61853 3.07617 4.5 3.37454 4.5H4.49954V3.375ZM26.9995 7.875C26.9995 7.57663 27.1181 7.29048 27.329 7.0795C27.54 6.86853 27.8262 6.75 28.1245 6.75C28.4229 6.75 28.7091 6.86853 28.92 7.0795C29.131 7.29048 29.2495 7.57663 29.2495 7.875V9H30.3745C30.6729 9 30.9591 9.11853 31.17 9.3295C31.381 9.54048 31.4995 9.82663 31.4995 10.125C31.4995 10.4234 31.381 10.7095 31.17 10.9205C30.9591 11.1315 30.6729 11.25 30.3745 11.25H29.2495V12.375C29.2495 12.6734 29.131 12.9595 28.92 13.1705C28.7091 13.3815 28.4229 13.5 28.1245 13.5C27.8262 13.5 27.54 13.3815 27.329 13.1705C27.1181 12.9595 26.9995 12.6734 26.9995 12.375V11.25H25.8745C25.5762 11.25 25.29 11.1315 25.079 10.9205C24.8681 10.7095 24.7495 10.4234 24.7495 10.125C24.7495 9.82663 24.8681 9.54048 25.079 9.3295C25.29 9.11853 25.5762 9 25.8745 9H26.9995V7.875ZM6.74954 25.875C6.74954 26.1734 6.86807 26.4595 7.07904 26.6705C7.29002 26.8815 7.57617 27 7.87454 27H8.99954V28.125C8.99954 28.4234 9.11807 28.7095 9.32904 28.9205C9.54002 29.1315 9.82617 29.25 10.1245 29.25C10.4229 29.25 10.7091 29.1315 10.92 28.9205C11.131 28.7095 11.2495 28.4234 11.2495 28.125V27H12.3745C12.6729 27 12.9591 26.8815 13.17 26.6705C13.381 26.4595 13.4995 26.1734 13.4995 25.875C13.4995 25.5766 13.381 25.2905 13.17 25.0795C12.9591 24.8685 12.6729 24.75 12.3745 24.75H11.2495V23.625C11.2495 23.3266 11.131 23.0405 10.92 22.8295C10.7091 22.6185 10.4229 22.5 10.1245 22.5C9.82617 22.5 9.54002 22.6185 9.32904 22.8295C9.11807 23.0405 8.99954 23.3266 8.99954 23.625V24.75H7.87454C7.57617 24.75 7.29002 24.8685 7.07904 25.0795C6.86807 25.2905 6.74954 25.5766 6.74954 25.875ZM16.357 10.2668C15.5491 9.45907 14.4533 9.00543 13.3109 9.00564C12.1684 9.00586 11.0728 9.45989 10.2652 10.2679C9.45748 11.0759 9.00385 12.1716 9.00406 13.314C9.00427 14.4565 9.45831 15.5521 10.2663 16.3597L11.3463 17.4397L17.437 11.3445L16.357 10.2645V10.2668ZM19.0278 12.9375L12.937 19.0282L26.3988 32.49C27.2065 33.2977 28.3019 33.7514 29.4442 33.7514C30.5864 33.7514 31.6819 33.2977 32.4895 32.49C33.2972 31.6823 33.751 30.5869 33.751 29.4446C33.751 28.3024 33.2972 27.2069 32.4895 26.3993L19.0278 12.9375Z" fill="#1F384C" fill-opacity="0.55"/>
</g>
<defs>
<filter id="filter0_f_2097_38900" x="-7.75" y="-7.75" width="51.501" height="51.5015" filterUnits="userSpaceOnUse" color-interpolation-filters="sRGB">
<feFlood flood-opacity="0" result="BackgroundImageFix"/>
<feBlend mode="normal" in="SourceGraphic" in2="BackgroundImageFix" result="shape"/>
<feGaussianBlur stdDeviation="5" result="effect1_foregroundBlur_2097_38900"/>
</filter>
<clipPath id="clip0_2097_38900">
<rect width="36" height="36" fill="white" transform="matrix(-1 0 0 1 36 0)"/>
</clipPath>
</defs>
</svg>
