<svg width="27" height="28" viewBox="0 0 27 28" fill="none" xmlns="http://www.w3.org/2000/svg">
<path d="M1.4625 27.4997C1.0375 27.4997 0.6875 27.3557 0.4125 27.0677C0.1375 26.7807 0 26.4247 0 25.9997C0 25.5747 0.1435 25.2187 0.4305 24.9317C0.7185 24.6437 1.075 24.4997 1.5 24.4997H16.5375C16.9625 24.4997 17.3125 24.6437 17.5875 24.9317C17.8625 25.2187 18 25.5747 18 25.9997C18 26.4247 17.8565 26.7807 17.5695 27.0677C17.2815 27.3557 16.925 27.4997 16.5 27.4997H1.4625ZM6.3375 18.0872L2.1 13.8497C1.525 13.2747 1.231 12.5682 1.218 11.7302C1.206 10.8932 1.4875 10.1872 2.0625 9.61215L3.15 8.52465L11.7 16.9997L10.6125 18.0872C10.0375 18.6622 9.325 18.9497 8.475 18.9497C7.625 18.9497 6.9125 18.6622 6.3375 18.0872ZM18 10.6997L9.525 2.14965L10.6125 1.06215C11.1875 0.487153 11.894 0.205653 12.732 0.217653C13.569 0.230653 14.275 0.524653 14.85 1.09965L19.0875 5.33715C19.6625 5.91215 19.95 6.62465 19.95 7.47465C19.95 8.32465 19.6625 9.03715 19.0875 9.61215L18 10.6997ZM23.85 24.9497L5.325 6.42465L7.425 4.32465L25.9875 22.8872C26.2625 23.1622 26.394 23.5057 26.382 23.9177C26.369 24.3307 26.225 24.6747 25.95 24.9497C25.675 25.2247 25.325 25.3622 24.9 25.3622C24.475 25.3622 24.125 25.2247 23.85 24.9497Z" fill="#1F384C" fill-opacity="0.55"/>
</svg>
