<svg width="16" height="12" viewBox="0 0 16 12" fill="none" xmlns="http://www.w3.org/2000/svg">
<path d="M5.54974 11.2749C5.43307 11.2749 5.32074 11.2539 5.21274 11.2119C5.10407 11.1706 5.00807 11.1082 4.92474 11.0249L0.74974 6.8499C0.59974 6.6999 0.52874 6.52057 0.53674 6.3119C0.545407 6.1039 0.616407 5.9249 0.74974 5.7749C0.89974 5.6249 1.07907 5.5499 1.28774 5.5499C1.49574 5.5499 1.66641 5.6249 1.79974 5.7749L5.54974 9.5249L14.1997 0.874902C14.3331 0.724902 14.5081 0.649902 14.7247 0.649902C14.9414 0.649902 15.1164 0.724902 15.2497 0.874902C15.3997 1.0249 15.4747 1.2039 15.4747 1.4119C15.4747 1.62057 15.3997 1.7999 15.2497 1.9499L6.17474 11.0249C6.09141 11.1082 5.99574 11.1706 5.88774 11.2119C5.77907 11.2539 5.66641 11.2749 5.54974 11.2749Z" fill="#05956F"/>
</svg>
