<svg width="22" height="14" viewBox="0 0 22 14" fill="none" xmlns="http://www.w3.org/2000/svg">
<path d="M19.8154 0.03125H2.18464C1.07695 0.03125 0.15387 0.954327 0.15387 2.06202V11.8928C0.15387 13.0005 1.07695 13.9236 2.18464 13.9236H19.8154C20.9231 13.9236 21.8462 13.0005 21.8462 11.8928V2.10817C21.8462 0.954327 20.9231 0.03125 19.8154 0.03125ZM4.53849 11.8928C4.53849 10.5543 3.47695 9.53894 2.18464 9.53894V4.46202C3.5231 4.46202 4.53849 3.40048 4.53849 2.10817H17.4616C17.4616 3.44663 18.5231 4.46202 19.8154 4.46202V9.53894C18.4769 9.53894 17.4616 10.6005 17.4616 11.8928H4.53849Z" fill="white"/>
<path d="M11 10.1857C12.8608 10.1857 14.3693 8.67727 14.3693 6.8165C14.3693 4.95572 12.8608 3.44727 11 3.44727C9.13925 3.44727 7.6308 4.95572 7.6308 6.8165C7.6308 8.67727 9.13925 10.1857 11 10.1857Z" fill="white"/>
</svg>
