<svg width="10" height="12" viewBox="0 0 10 12" fill="none" xmlns="http://www.w3.org/2000/svg">
<path d="M1 11.6666C0.722222 11.6666 0.486222 11.5693 0.292 11.3746C0.0973335 11.1804 0 10.9444 0 10.6666V4.66663C0 4.51107 0.0360001 4.36107 0.108 4.21663C0.180445 4.07218 0.277778 3.95552 0.4 3.86663L4.4 0.849959C4.48889 0.783293 4.58333 0.735959 4.68333 0.707959C4.78333 0.680404 4.88889 0.666626 5 0.666626C5.11111 0.666626 5.21667 0.680404 5.31667 0.707959C5.41667 0.735959 5.51111 0.783293 5.6 0.849959L9.6 3.86663C9.72222 3.95552 9.81933 4.07218 9.89133 4.21663C9.96378 4.36107 10 4.51107 10 4.66663V10.6666C10 10.9444 9.90267 11.1804 9.708 11.3746C9.51378 11.5693 9.27778 11.6666 9 11.6666H6.26667V7.19996H3.73333V11.6666H1Z" fill="url(#paint0_linear_2785_32644)"/>
<defs>
<linearGradient id="paint0_linear_2785_32644" x1="9.70588" y1="1.31369" x2="0.0137299" y2="10.4184" gradientUnits="userSpaceOnUse">
<stop stop-color="#76A0A6"/>
<stop offset="1" stop-color="#899AC1"/>
</linearGradient>
</defs>
</svg>
