<svg width="16" height="16" viewBox="0 0 16 16" fill="none" xmlns="http://www.w3.org/2000/svg">
<mask id="mask0_1672_10756" style="mask-type:alpha" maskUnits="userSpaceOnUse" x="0" y="0" width="16" height="16">
<rect width="16" height="16" fill="#D9D9D9"/>
</mask>
<g mask="url(#mask0_1672_10756)">
<path d="M4 13.666C3.72222 13.666 3.48622 13.5687 3.292 13.374C3.09733 13.1798 3 12.9438 3 12.666V6.66602C3 6.51046 3.036 6.36046 3.108 6.21602C3.18044 6.07157 3.27778 5.9549 3.4 5.86602L7.4 2.84935C7.48889 2.78268 7.58333 2.73535 7.68333 2.70735C7.78333 2.67979 7.88889 2.66602 8 2.66602C8.11111 2.66602 8.21667 2.67979 8.31667 2.70735C8.41667 2.73535 8.51111 2.78268 8.6 2.84935L12.6 5.86602C12.7222 5.9549 12.8193 6.07157 12.8913 6.21602C12.9638 6.36046 13 6.51046 13 6.66602V12.666C13 12.9438 12.9027 13.1798 12.708 13.374C12.5138 13.5687 12.2778 13.666 12 13.666H9.26667V9.19935H6.73333V13.666H4Z" fill="url(#paint0_linear_1672_10756)"/>
</g>
<defs>
<linearGradient id="paint0_linear_1672_10756" x1="12.7059" y1="3.31307" x2="3.01373" y2="12.4178" gradientUnits="userSpaceOnUse">
<stop stop-color="#76A0A6"/>
<stop offset="1" stop-color="#899AC1"/>
</linearGradient>
</defs>
</svg>
