<svg width="32" height="32" viewBox="0 0 32 32" fill="none" xmlns="http://www.w3.org/2000/svg">
<rect x="0.5" y="0.5" width="31" height="31" rx="15.5" fill="white"/>
<mask id="mask0_1830_16267" style="mask-type:alpha" maskUnits="userSpaceOnUse" x="6" y="6" width="20" height="20">
<rect x="6" y="6" width="20" height="20" fill="#D9D9D9"/>
</mask>
<g mask="url(#mask0_1830_16267)">
<path d="M15.9999 16.8756L11.7708 21.1048C11.6596 21.2159 11.5174 21.2748 11.3441 21.2815C11.1702 21.2887 11.0208 21.2298 10.8958 21.1048C10.7708 20.9798 10.7083 20.834 10.7083 20.6673C10.7083 20.5006 10.7708 20.3548 10.8958 20.2298L15.1249 16.0006L10.8958 11.7715C10.7846 11.6604 10.7258 11.5179 10.7191 11.344C10.7119 11.1707 10.7708 11.0215 10.8958 10.8965C11.0208 10.7715 11.1666 10.709 11.3333 10.709C11.4999 10.709 11.6458 10.7715 11.7708 10.8965L15.9999 15.1256L20.2291 10.8965C20.3402 10.7854 20.4827 10.7262 20.6566 10.719C20.8299 10.7123 20.9791 10.7715 21.1041 10.8965C21.2291 11.0215 21.2916 11.1673 21.2916 11.334C21.2916 11.5006 21.2291 11.6465 21.1041 11.7715L16.8749 16.0006L21.1041 20.2298C21.2152 20.3409 21.2741 20.4831 21.2807 20.6565C21.288 20.8304 21.2291 20.9798 21.1041 21.1048C20.9791 21.2298 20.8332 21.2923 20.6666 21.2923C20.4999 21.2923 20.3541 21.2298 20.2291 21.1048L15.9999 16.8756Z" fill="#6B7B8C"/>
</g>
<rect x="0.5" y="0.5" width="31" height="31" rx="15.5" stroke="#EAF3FA"/>
</svg>
