<svg width="24" height="24" viewBox="0 0 24 24" fill="none" xmlns="http://www.w3.org/2000/svg">
<path fill-rule="evenodd" clip-rule="evenodd" d="M15.486 2.53491C15.9002 2.53491 16.236 2.8707 16.236 3.28491V4.27777H18.1006C19.4775 4.27777 20.5937 5.39395 20.5937 6.77082V10.2569V18.9721C20.5937 20.349 19.4775 21.4652 18.1006 21.4652H5.8993C4.52242 21.4652 3.40625 20.349 3.40625 18.9721V10.2569V6.77082C3.40625 5.39395 4.52242 4.27777 5.8993 4.27777H7.76379V3.28491C7.76379 2.8707 8.09958 2.53491 8.51379 2.53491C8.928 2.53491 9.26379 2.8707 9.26379 3.28491V4.27777H14.736V3.28491C14.736 2.8707 15.0718 2.53491 15.486 2.53491ZM19.0937 6.77082V9.50687H4.90625V6.77082C4.90625 6.22238 5.35085 5.77777 5.8993 5.77777H7.76379V6.771C7.76379 7.18522 8.09958 7.521 8.51379 7.521C8.928 7.521 9.26379 7.18522 9.26379 6.771V5.77777H14.736V6.771C14.736 7.18522 15.0718 7.521 15.486 7.521C15.9002 7.521 16.236 7.18522 16.236 6.771V5.77777H18.1006C18.6491 5.77777 19.0937 6.22238 19.0937 6.77082ZM19.0937 11.0069H4.90625V18.9721C4.90625 19.5206 5.35085 19.9652 5.8993 19.9652H18.1006C18.6491 19.9652 19.0937 19.5206 19.0937 18.9721V11.0069ZM11.7255 17.7288C11.8134 17.756 11.9049 17.7695 12 17.7695C12.095 17.7695 12.1868 17.756 12.2753 17.7288C12.3632 17.7017 12.4412 17.6474 12.509 17.5659L16.1743 13.9006C16.2965 13.792 16.3576 13.6528 16.3576 13.4828C16.3576 13.3134 16.2965 13.1676 16.1743 13.0454C16.0521 12.9368 15.9096 12.879 15.7467 12.8719C15.5838 12.8654 15.4481 12.9232 15.3395 13.0454L12 16.3645L8.68085 13.0454C8.55868 12.9368 8.41614 12.8825 8.25324 12.8825C8.09034 12.8825 7.9478 12.9368 7.82562 13.0454C7.70345 13.1676 7.64236 13.3101 7.64236 13.473C7.64236 13.6359 7.69666 13.7785 7.80526 13.9006L11.4909 17.5659C11.5588 17.6474 11.637 17.7017 11.7255 17.7288Z" fill="#2C79BE"/>
</svg>
