<svg width="24" height="24" viewBox="0 0 24 24" fill="none" xmlns="http://www.w3.org/2000/svg">
<path fill-rule="evenodd" clip-rule="evenodd" d="M15.486 2.53491C15.9002 2.53491 16.236 2.8707 16.236 3.28491V4.27777H18.1006C19.4775 4.27777 20.5937 5.39395 20.5937 6.77082V10.2569V18.9721C20.5937 20.349 19.4775 21.4652 18.1006 21.4652H5.8993C4.52242 21.4652 3.40625 20.349 3.40625 18.9721V10.2569V6.77082C3.40625 5.39395 4.52242 4.27777 5.8993 4.27777H7.76379V3.28491C7.76379 2.8707 8.09958 2.53491 8.51379 2.53491C8.928 2.53491 9.26379 2.8707 9.26379 3.28491V4.27777H14.736V3.28491C14.736 2.8707 15.0718 2.53491 15.486 2.53491ZM19.0937 6.77082V9.50687H4.90625V6.77082C4.90625 6.22238 5.35085 5.77777 5.8993 5.77777H7.76379V6.771C7.76379 7.18522 8.09958 7.521 8.51379 7.521C8.928 7.521 9.26379 7.18522 9.26379 6.771V5.77777H14.736V6.771C14.736 7.18522 15.0718 7.521 15.486 7.521C15.9002 7.521 16.236 7.18522 16.236 6.771V5.77777H18.1006C18.6491 5.77777 19.0937 6.22238 19.0937 6.77082ZM19.0937 11.0069H4.90625V18.9721C4.90625 19.5206 5.35085 19.9652 5.8993 19.9652H18.1006C18.6491 19.9652 19.0937 19.5206 19.0937 18.9721V11.0069ZM12.2744 12.9121C12.1865 12.8849 12.095 12.8713 11.9999 12.8713C11.9049 12.8713 11.8132 12.8849 11.7246 12.9121C11.6367 12.9392 11.5588 12.9935 11.4909 13.075L7.8256 16.7402C7.70342 16.8488 7.64233 16.9881 7.64233 17.1581C7.64233 17.3275 7.70342 17.4733 7.8256 17.5955C7.94777 17.7041 8.09031 17.7619 8.25321 17.769C8.41612 17.7755 8.55187 17.7177 8.66047 17.5955L11.9999 14.2764L15.3191 17.5955C15.4412 17.7041 15.5838 17.7584 15.7467 17.7584C15.9096 17.7584 16.0521 17.7041 16.1743 17.5955C16.2965 17.4733 16.3576 17.3308 16.3576 17.1679C16.3576 17.005 16.3033 16.8624 16.1947 16.7402L12.509 13.075C12.4411 12.9935 12.3629 12.9392 12.2744 12.9121Z" fill="#2C79BE"/>
</svg>
