<svg width="16" height="17" viewBox="0 0 16 17" fill="none" xmlns="http://www.w3.org/2000/svg">
<mask id="mask0_579_262" style="mask-type:alpha" maskUnits="userSpaceOnUse" x="0" y="0" width="16" height="17">
<rect y="0.5" width="16" height="16" fill="#D9D9D9"/>
</mask>
<g mask="url(#mask0_579_262)">
<path d="M8 11.667C8.14444 11.667 8.264 11.6199 8.35866 11.5257C8.45289 11.431 8.5 11.3114 8.5 11.167V8.31699C8.5 8.18366 8.45289 8.06966 8.35866 7.97499C8.264 7.88077 8.14444 7.83366 8 7.83366C7.85555 7.83366 7.73622 7.88077 7.642 7.97499C7.54733 8.06966 7.5 8.18921 7.5 8.33366V11.1837C7.5 11.317 7.54733 11.431 7.642 11.5257C7.73622 11.6199 7.85555 11.667 8 11.667ZM8 6.70033C8.15555 6.70033 8.28333 6.64744 8.38333 6.54166C8.48333 6.43633 8.53333 6.30588 8.53333 6.15033C8.53333 6.00588 8.48333 5.88077 8.38333 5.77499C8.28333 5.66966 8.15555 5.61699 8 5.61699C7.84444 5.61699 7.71666 5.66966 7.61666 5.77499C7.51666 5.88077 7.46666 6.00588 7.46666 6.15033C7.46666 6.30588 7.51666 6.43633 7.61666 6.54166C7.71666 6.64744 7.84444 6.70033 8 6.70033ZM8 14.8337C7.12222 14.8337 6.29733 14.667 5.52533 14.3337C4.75289 14.0003 4.08333 13.5503 3.51666 12.9837C2.95 12.417 2.5 11.7474 2.16666 10.975C1.83333 10.203 1.66666 9.3781 1.66666 8.50033C1.66666 7.62255 1.83333 6.79744 2.16666 6.02499C2.5 5.25299 2.95 4.58366 3.51666 4.01699C4.08333 3.45033 4.75289 3.00033 5.52533 2.66699C6.29733 2.33366 7.12222 2.16699 8 2.16699C8.87778 2.16699 9.70289 2.33366 10.4753 2.66699C11.2473 3.00033 11.9167 3.45033 12.4833 4.01699C13.05 4.58366 13.5 5.25299 13.8333 6.02499C14.1667 6.79744 14.3333 7.62255 14.3333 8.50033C14.3333 9.3781 14.1667 10.203 13.8333 10.975C13.5 11.7474 13.05 12.417 12.4833 12.9837C11.9167 13.5503 11.2473 14.0003 10.4753 14.3337C9.70289 14.667 8.87778 14.8337 8 14.8337ZM8 13.8337C9.47778 13.8337 10.7362 13.3143 11.7753 12.2757C12.814 11.2365 13.3333 9.9781 13.3333 8.50033C13.3333 7.02255 12.814 5.7641 11.7753 4.72499C10.7362 3.68633 9.47778 3.16699 8 3.16699C6.52222 3.16699 5.264 3.68633 4.22533 4.72499C3.18622 5.7641 2.66666 7.02255 2.66666 8.50033C2.66666 9.9781 3.18622 11.2365 4.22533 12.2757C5.264 13.3143 6.52222 13.8337 8 13.8337Z" fill="#F5AC42"/>
</g>
</svg>
