<svg width="42" height="46" viewBox="0 0 42 46" fill="none" xmlns="http://www.w3.org/2000/svg">
<path d="M40.9422 40.2848C40.4584 40.0778 39.9056 40.2158 39.1109 39.6291C38.2126 38.3177 36.6578 36.7993 35.5176 36.0746C33.9628 34.4871 32.4425 30.2424 32.0279 29.1381C30.3004 25.3419 28.1236 24.4102 27.3289 24.1341C27.2598 22.8227 26.8798 22.6156 26.4997 22.4086C24.2193 20.9591 24.5533 18.1523 24.5994 17.5081C23.3555 17.673 22.6184 16.0817 22.4572 15.8056C22.296 15.5296 21.1865 15.5334 21.1865 15.5334C21.1865 15.5334 21.1865 15.2535 21.1865 14.7473C20.4264 14.0149 19.8505 13.133 19.505 12.4236C19.3668 10.192 19.1134 8.94963 18.8831 8.25943C16.0959 6.23483 15.8426 3.65807 15.7735 3.01389C14.8751 2.00542 14.3453 2.57292 13.9998 2.7378C12.7099 2.07444 12.4373 0.571334 12.3414 0C9.78456 0.897263 8.41403 2.7378 8.21824 2.89885C8.12226 4.39045 6.70182 4.89277 6.46764 5.06149C6.55978 6.18882 6.39854 6.33453 6.19123 6.60294C5.73054 7.17811 5.68448 7.50787 5.52708 7.80312C5.55395 9.87757 5.29289 9.85456 5.01648 10.0118C3.60756 9.89674 3.12768 10.0808 2.62477 10.2188C-0.300576 13.2327 0.474908 14.3831 0.643826 14.9812C1.68036 16.7566 1.53448 17.0672 1.53448 17.0672C4.88596 17.999 3.73425 19.7206 3.8379 20.6524C3.94155 21.5842 6.80931 22.8265 6.80931 22.8265C6.80931 22.8265 6.74021 24.7246 6.80931 25.4838C7.43124 26.1395 10.967 26.1433 11.7156 26.3466C12.5794 27.4509 13.1322 27.8995 13.685 27.8995C15.5853 27.0023 17.071 26.8987 17.5202 26.8642C17.9694 26.8297 18.4876 25.8289 19.5933 25.2768C21.7009 24.6211 21.1826 26.8297 21.39 28.5552C23.1175 28.5897 22.9448 30.2807 22.7375 30.8329C22.2537 32.2133 21.5973 32.6274 21.9082 33.4557C24.8796 34.4565 23.6358 36.5961 24.0159 36.8722C24.3959 37.1482 25.467 36.6996 27.2291 36.5961C28.9912 36.4925 28.7494 37.1137 29.475 37.8039C30.6152 39.84 29.7859 40.9098 29.2677 41.2204C28.4384 41.9451 29.4711 41.995 29.9587 41.9451C33.0683 45.3271 33.3447 44.0503 33.7939 43.8087C35.9015 42.5318 36.8689 43.8777 37.249 44.0848C37.56 43.6706 39.8787 45.3885 40.5314 45.2581C42.5661 44.8402 41.0113 41.0441 40.9422 40.2848Z" fill="#FFBB8C"/>
</svg>
