<svg width="43" height="46" viewBox="0 0 43 46" fill="none" xmlns="http://www.w3.org/2000/svg">
<path d="M41.3958 40.984C40.912 40.777 40.3592 40.915 39.5645 40.3284C38.6662 39.017 37.1114 37.4985 35.9712 36.7738C34.4164 35.1863 32.8961 30.9416 32.4815 29.8373C30.754 26.0412 28.5772 25.1094 27.7826 24.8333C27.7135 23.5219 27.3334 23.3149 26.9533 23.1078C24.6729 21.6584 25.0069 18.8515 25.053 18.2074C23.8092 18.3722 23.0721 16.7809 22.9108 16.5049C22.7496 16.2288 21.6401 16.2326 21.6401 16.2326C21.6401 16.2326 21.6401 15.9527 21.6401 15.4465C20.88 14.7142 20.3041 13.8322 19.9586 13.1229C19.8204 10.8912 19.567 9.64885 19.3367 8.95864C16.5495 6.93405 16.2962 4.35729 16.2271 3.7131C15.3287 2.70464 14.7989 3.27214 14.4534 3.43702C13.1635 2.77366 12.8909 1.27055 12.795 0.699219C10.2382 1.59648 8.86764 3.43702 8.67185 3.59807C8.57588 5.08967 7.15543 5.59199 6.92125 5.76071C7.01339 6.88804 6.85215 7.03375 6.64484 7.30216C6.18416 7.87733 6.13809 8.20709 5.98069 8.50234C6.00756 10.5768 5.74651 10.5538 5.4701 10.711C4.06117 10.596 3.58129 10.78 3.07838 10.9181C0.153037 13.9319 0.928521 15.0823 1.09744 15.6804C2.13398 17.4558 1.98809 17.7664 1.98809 17.7664C5.33957 18.6982 4.18786 20.4198 4.29151 21.3516C4.39517 22.2834 7.26293 23.5258 7.26293 23.5258C7.26293 23.5258 7.19382 25.4238 7.26293 26.183C7.88485 26.8387 11.4206 26.8426 12.1692 27.0458C13.033 28.1501 13.5858 28.5987 14.1386 28.5987C16.039 27.7015 17.5247 27.5979 17.9738 27.5634C18.423 27.5289 18.9413 26.5281 20.0469 25.976C22.1545 25.3203 21.6363 27.5289 21.8436 29.2544C23.5711 29.2889 23.3984 30.9799 23.1911 31.5321C22.7074 32.9125 22.0509 33.3266 22.3618 34.1549C25.3333 35.1557 24.0894 37.2953 24.4695 37.5714C24.8495 37.8475 25.9206 37.3988 27.6827 37.2953C29.4449 37.1918 29.203 37.8129 29.9286 38.5032C31.0688 40.5392 30.2395 41.6091 29.7213 41.9197C28.892 42.6444 29.9247 42.6942 30.4123 42.6444C33.5219 46.0264 33.7983 44.7495 34.2475 44.5079C36.3551 43.231 37.3226 44.5769 37.7026 44.784C38.0136 44.3699 40.3323 46.0877 40.985 45.9573C43.0197 45.5394 41.4649 41.7433 41.3958 40.984Z" fill="#FFE5D3"/>
</svg>
