<svg width="33" height="26" viewBox="0 0 33 26" fill="none" xmlns="http://www.w3.org/2000/svg">
<path d="M27.75 21.0056H5.25C4.65345 21.005 4.0815 20.7678 3.65967 20.3459C3.23784 19.9241 3.0006 19.3522 3 18.7556V3.00562C3.0006 2.40906 3.23784 1.83711 3.65967 1.41528C4.0815 0.993455 4.65345 0.756211 5.25 0.755615H27.75C28.3466 0.756211 28.9185 0.993455 29.3403 1.41528C29.7622 1.83711 29.9994 2.40906 30 3.00562V18.7556C29.9991 19.3521 29.7618 19.9239 29.34 20.3456C28.9182 20.7674 28.3465 21.0047 27.75 21.0056ZM5.25 3.00562V18.7556H27.75V3.00562H5.25ZM0.75 23.2556H32.25V25.5056H0.75V23.2556Z" fill="url(#paint0_linear_601_3538)"/>
<defs>
<linearGradient id="paint0_linear_601_3538" x1="30.0404" y1="0.755616" x2="-0.420146" y2="24.1855" gradientUnits="userSpaceOnUse">
<stop stop-color="#05956F"/>
<stop offset="1" stop-color="#FFD05B"/>
</linearGradient>
</defs>
</svg>
