<svg width="16" height="16" viewBox="0 0 16 16" fill="none" xmlns="http://www.w3.org/2000/svg">
<mask id="mask0_4642_30468" style="mask-type:alpha" maskUnits="userSpaceOnUse" x="0" y="0" width="16" height="16">
<rect width="16" height="16" fill="#D9D9D9"/>
</mask>
<g mask="url(#mask0_4642_30468)">
<path d="M7.99967 11.3335C8.18856 11.3335 8.34701 11.2695 8.47501 11.1415C8.60256 11.0139 8.66634 10.8557 8.66634 10.6668V7.9835C8.66634 7.79461 8.60256 7.63905 8.47501 7.51683C8.34701 7.39461 8.18856 7.3335 7.99967 7.3335C7.81079 7.3335 7.65256 7.39727 7.52501 7.52483C7.39701 7.65283 7.33301 7.81127 7.33301 8.00016V10.6835C7.33301 10.8724 7.39701 11.0279 7.52501 11.1502C7.65256 11.2724 7.81079 11.3335 7.99967 11.3335ZM7.99967 6.00016C8.18856 6.00016 8.34701 5.93616 8.47501 5.80816C8.60256 5.68061 8.66634 5.52238 8.66634 5.3335C8.66634 5.14461 8.60256 4.98616 8.47501 4.85816C8.34701 4.73061 8.18856 4.66683 7.99967 4.66683C7.81079 4.66683 7.65256 4.73061 7.52501 4.85816C7.39701 4.98616 7.33301 5.14461 7.33301 5.3335C7.33301 5.52238 7.39701 5.68061 7.52501 5.80816C7.65256 5.93616 7.81079 6.00016 7.99967 6.00016ZM7.99967 14.6668C7.07745 14.6668 6.21079 14.4917 5.39967 14.1415C4.58856 13.7917 3.88301 13.3168 3.28301 12.7168C2.68301 12.1168 2.20812 11.4113 1.85834 10.6002C1.50812 9.78905 1.33301 8.92238 1.33301 8.00016C1.33301 7.07794 1.50812 6.21127 1.85834 5.40016C2.20812 4.58905 2.68301 3.8835 3.28301 3.2835C3.88301 2.6835 4.58856 2.20838 5.39967 1.85816C6.21079 1.50838 7.07745 1.3335 7.99967 1.3335C8.9219 1.3335 9.78856 1.50838 10.5997 1.85816C11.4108 2.20838 12.1163 2.6835 12.7163 3.2835C13.3163 3.8835 13.7912 4.58905 14.141 5.40016C14.4912 6.21127 14.6663 7.07794 14.6663 8.00016C14.6663 8.92238 14.4912 9.78905 14.141 10.6002C13.7912 11.4113 13.3163 12.1168 12.7163 12.7168C12.1163 13.3168 11.4108 13.7917 10.5997 14.1415C9.78856 14.4917 8.9219 14.6668 7.99967 14.6668ZM7.99967 13.3335C9.47745 13.3335 10.7359 12.8142 11.775 11.7755C12.8137 10.7364 13.333 9.47794 13.333 8.00016C13.333 6.52238 12.8137 5.26394 11.775 4.22483C10.7359 3.18616 9.47745 2.66683 7.99967 2.66683C6.5219 2.66683 5.26367 3.18616 4.22501 4.22483C3.1859 5.26394 2.66634 6.52238 2.66634 8.00016C2.66634 9.47794 3.1859 10.7364 4.22501 11.7755C5.26367 12.8142 6.5219 13.3335 7.99967 13.3335Z" fill="#6B7B8C"/>
</g>
</svg>
