<svg width="16" height="18" viewBox="0 0 16 18" fill="none" xmlns="http://www.w3.org/2000/svg">
<path d="M16 8.83253C16 8.58117 15.94 8.34531 15.8396 8.13093C15.1695 5.96914 12.0322 6.12705 7.56974 6.02161C6.82366 6.00412 7.25042 5.12312 7.51227 3.18921C7.68268 1.93141 6.87163 0 5.5084 0C3.26067 0 5.42295 1.773 3.43557 6.15754C2.37366 8.50022 0 7.18796 0 9.54113V14.8976C0 15.8136 0.0899494 16.6941 1.37822 16.839C2.62702 16.9794 2.34618 17.8694 4.14767 17.8694H13.1646C14.0831 17.8694 14.8302 17.1219 14.8302 16.2034C14.8302 15.8226 14.6967 15.4758 14.4814 15.195C14.9911 14.9096 15.3409 14.3709 15.3409 13.7463C15.3409 13.3665 15.2079 13.0197 14.9931 12.7393C15.5043 12.4545 15.8551 11.9153 15.8551 11.2896C15.8551 10.8354 15.6712 10.4236 15.3749 10.1223C15.7531 9.81698 16 9.35524 16 8.83253Z" fill="#FFDB5E"/>
<path d="M10.0354 10.4981H14.335C14.9196 10.4981 15.4683 10.1853 15.7671 9.68208C15.8901 9.47469 15.8216 9.20634 15.6137 9.08291C15.4064 8.95948 15.138 9.02895 15.0146 9.23633C14.8732 9.47569 14.6118 9.62361 14.3345 9.62361H9.93193C9.49568 9.62361 9.14088 9.26881 9.14088 8.83256C9.14088 8.3963 9.49568 8.0415 9.93193 8.0415H12.8738C13.1151 8.0415 13.311 7.84561 13.311 7.60425C13.311 7.36288 13.1151 7.16699 12.8738 7.16699H9.93143C9.01295 7.16699 8.26587 7.91407 8.26587 8.83256C8.26587 9.34477 8.50324 9.79801 8.86803 10.1038C8.5607 10.4062 8.36931 10.8259 8.36931 11.2897C8.36931 11.8034 8.60818 12.2581 8.97497 12.5635C8.66964 12.8653 8.48025 13.2836 8.48025 13.7463C8.48025 14.306 8.75959 14.7997 9.18435 15.102C8.9225 15.3964 8.75859 15.7796 8.75859 16.2034C8.75859 17.1219 9.50567 17.869 10.4242 17.869H13.1646C13.7493 17.869 14.2985 17.5566 14.5973 17.0534C14.7207 16.846 14.6523 16.5777 14.4449 16.4543C14.237 16.3318 13.9687 16.3993 13.8457 16.6067C13.7033 16.846 13.442 16.9945 13.1646 16.9945H10.4242C9.9879 16.9945 9.6331 16.6397 9.6331 16.2034C9.6331 15.7672 9.9879 15.4124 10.4242 15.4124H13.6753C14.26 15.4124 14.8097 15.0995 15.108 14.5963C15.2315 14.3884 15.163 14.1201 14.9556 13.9971C14.7462 13.8717 14.4789 13.9422 14.3564 14.1496C14.212 14.3929 13.9572 14.5378 13.6753 14.5378H10.1458C9.70956 14.5378 9.35476 14.1825 9.35476 13.7463C9.35476 13.31 9.70956 12.9552 10.1458 12.9552H14.189C14.7737 12.9552 15.3229 12.6429 15.6217 12.1397C15.7452 11.9323 15.6767 11.664 15.4693 11.5405C15.2609 11.4176 14.9931 11.4856 14.8702 11.6929C14.7257 11.9358 14.4709 12.0807 14.189 12.0807H10.0354C9.59912 12.0807 9.24432 11.7259 9.24432 11.2897C9.24432 10.8534 9.59862 10.4981 10.0354 10.4981Z" fill="#EE9547"/>
</svg>
