<svg width="19" height="18" viewBox="0 0 19 18" fill="none" xmlns="http://www.w3.org/2000/svg">
<path d="M8 9.74997C8.32209 10.1806 8.73302 10.5369 9.20491 10.7947C9.67681 11.0525 10.1986 11.2058 10.735 11.2442C11.2713 11.2826 11.8097 11.2052 12.3135 11.0173C12.8173 10.8294 13.2748 10.5353 13.655 10.155L15.905 7.90497C16.5881 7.19772 16.9661 6.25046 16.9575 5.26722C16.949 4.28398 16.5546 3.34343 15.8593 2.64815C15.164 1.95287 14.2235 1.55849 13.2403 1.54995C12.257 1.5414 11.3098 1.91938 10.6025 2.60247L9.3125 3.88497" stroke="#677499" stroke-width="1.5" stroke-linecap="round" stroke-linejoin="round"/>
<path d="M10.9999 8.24992C10.6778 7.81933 10.2669 7.46304 9.79499 7.20522C9.3231 6.9474 8.80127 6.79409 8.26492 6.75567C7.72856 6.71726 7.19022 6.79465 6.6864 6.98259C6.18258 7.17053 5.72507 7.46462 5.34491 7.84492L3.09491 10.0949C2.41181 10.8022 2.03383 11.7494 2.04238 12.7327C2.05092 13.7159 2.44531 14.6565 3.14059 15.3517C3.83587 16.047 4.77641 16.4414 5.75965 16.45C6.74289 16.4585 7.69015 16.0805 8.39741 15.3974L9.67991 14.1149" stroke="#677499" stroke-width="1.5" stroke-linecap="round" stroke-linejoin="round"/>
</svg>
