<svg width="19" height="19" viewBox="0 0 19 19" fill="none" xmlns="http://www.w3.org/2000/svg">
<path fill-rule="evenodd" clip-rule="evenodd" d="M10.45 15.2C10.9539 15.2 11.4372 15.4002 11.7935 15.7565C12.1498 16.1128 12.35 16.5961 12.35 17.1C12.35 17.6039 12.1498 18.0872 11.7935 18.4435C11.4372 18.7998 10.9539 19 10.45 19C9.94609 19 9.46282 18.7998 9.1065 18.4435C8.75018 18.0872 8.55 17.6039 8.55 17.1C8.55 16.5961 8.75018 16.1128 9.1065 15.7565C9.46282 15.4002 9.94609 15.2 10.45 15.2ZM4.50395 12.35C5.13384 12.35 5.73793 12.6002 6.18333 13.0456C6.62873 13.491 6.87895 14.0951 6.87895 14.725C6.87895 15.3549 6.62873 15.959 6.18333 16.4044C5.73793 16.8498 5.13384 17.1 4.50395 17.1C3.87406 17.1 3.26997 16.8498 2.82457 16.4044C2.37917 15.959 2.12895 15.3549 2.12895 14.725C2.12895 14.0951 2.37917 13.491 2.82457 13.0456C3.26997 12.6002 3.87406 12.35 4.50395 12.35ZM15.503 12.825C16.007 12.825 16.4902 13.0252 16.8466 13.3815C17.2029 13.7378 17.403 14.2211 17.403 14.725C17.403 15.2289 17.2029 15.7122 16.8466 16.0685C16.4902 16.4248 16.007 16.625 15.503 16.625C14.9991 16.625 14.5159 16.4248 14.1595 16.0685C13.8032 15.7122 13.6031 15.2289 13.6031 14.725C13.6031 14.2211 13.8032 13.7378 14.1595 13.3815C14.5159 13.0252 14.9991 12.825 15.503 12.825ZM17.575 8.85305C17.9529 8.85305 18.3154 9.00318 18.5826 9.27042C18.8499 9.53766 19 9.90012 19 10.2781C19 10.656 18.8499 11.0184 18.5826 11.2857C18.3154 11.5529 17.9529 11.703 17.575 11.703C17.1971 11.703 16.8346 11.5529 16.5674 11.2857C16.3001 11.0184 16.15 10.656 16.15 10.2781C16.15 9.90012 16.3001 9.53766 16.5674 9.27042C16.8346 9.00318 17.1971 8.85305 17.575 8.85305ZM2.375 5.7C3.00489 5.7 3.60898 5.95022 4.05438 6.39562C4.49978 6.84102 4.75 7.44511 4.75 8.075C4.75 8.70489 4.49978 9.30898 4.05438 9.75438C3.60898 10.1998 3.00489 10.45 2.375 10.45C1.74511 10.45 1.14102 10.1998 0.695621 9.75438C0.250222 9.30898 0 8.70489 0 8.075C0 7.44511 0.250222 6.84102 0.695621 6.39562C1.14102 5.95022 1.74511 5.7 2.375 5.7ZM16.8967 4.94665C17.1487 4.94665 17.3903 5.04674 17.5685 5.2249C17.7466 5.40306 17.8467 5.64469 17.8467 5.89665C17.8467 6.14861 17.7466 6.39024 17.5685 6.5684C17.3903 6.74656 17.1487 6.84665 16.8967 6.84665C16.6447 6.84665 16.4031 6.74656 16.2249 6.5684C16.0468 6.39024 15.9467 6.14861 15.9467 5.89665C15.9467 5.64469 16.0468 5.40306 16.2249 5.2249C16.4031 5.04674 16.6447 4.94665 16.8967 4.94665ZM7.6 0C8.35587 0 9.08078 0.300267 9.61525 0.834746C10.1497 1.36922 10.45 2.09413 10.45 2.85C10.45 3.60587 10.1497 4.33078 9.61525 4.86525C9.08078 5.39973 8.35587 5.7 7.6 5.7C6.84413 5.7 6.11922 5.39973 5.58475 4.86525C5.05027 4.33078 4.75 3.60587 4.75 2.85C4.75 2.09413 5.05027 1.36922 5.58475 0.834746C6.11922 0.300267 6.84413 0 7.6 0V0ZM14.725 2.85C14.851 2.85 14.9718 2.90004 15.0609 2.98912C15.15 3.0782 15.2 3.19902 15.2 3.325C15.2 3.45098 15.15 3.5718 15.0609 3.66088C14.9718 3.74996 14.851 3.8 14.725 3.8C14.599 3.8 14.4782 3.74996 14.3891 3.66088C14.3 3.5718 14.25 3.45098 14.25 3.325C14.25 3.19902 14.3 3.0782 14.3891 2.98912C14.4782 2.90004 14.599 2.85 14.725 2.85Z" fill="white"/>
</svg>
