<svg width="13" height="13" viewBox="0 0 13 13" fill="none" xmlns="http://www.w3.org/2000/svg">
<path fill-rule="evenodd" clip-rule="evenodd" d="M7.29992 10.1333C7.63586 10.1333 7.95804 10.2668 8.19559 10.5043C8.43313 10.7419 8.56659 11.0641 8.56659 11.4C8.56659 11.7359 8.43313 12.0581 8.19559 12.2957C7.95804 12.5332 7.63586 12.6667 7.29992 12.6667C6.96398 12.6667 6.6418 12.5332 6.40425 12.2957C6.1667 12.0581 6.03325 11.7359 6.03325 11.4C6.03325 11.0641 6.1667 10.7419 6.40425 10.5043C6.6418 10.2668 6.96398 10.1333 7.29992 10.1333ZM3.33589 8.23333C3.75581 8.23333 4.15854 8.40015 4.45547 8.69708C4.7524 8.99401 4.91922 9.39674 4.91922 9.81667C4.91922 10.2366 4.7524 10.6393 4.45547 10.9363C4.15854 11.2332 3.75581 11.4 3.33589 11.4C2.91596 11.4 2.51323 11.2332 2.2163 10.9363C1.91937 10.6393 1.75255 10.2366 1.75255 9.81667C1.75255 9.39674 1.91937 8.99401 2.2163 8.69708C2.51323 8.40015 2.91596 8.23333 3.33589 8.23333ZM10.6686 8.55C11.0046 8.55 11.3267 8.68345 11.5643 8.921C11.8018 9.15854 11.9353 9.48073 11.9353 9.81667C11.9353 10.1526 11.8018 10.4748 11.5643 10.7123C11.3267 10.9499 11.0046 11.0833 10.6686 11.0833C10.3327 11.0833 10.0105 10.9499 9.77295 10.7123C9.5354 10.4748 9.40195 10.1526 9.40195 9.81667C9.40195 9.48073 9.5354 9.15854 9.77295 8.921C10.0105 8.68345 10.3327 8.55 10.6686 8.55ZM12.0499 5.90203C12.3019 5.90203 12.5435 6.00212 12.7217 6.18028C12.8998 6.35844 12.9999 6.60008 12.9999 6.85203C12.9999 7.10399 12.8998 7.34563 12.7217 7.52379C12.5435 7.70194 12.3019 7.80203 12.0499 7.80203C11.798 7.80203 11.5563 7.70194 11.3782 7.52379C11.2 7.34563 11.0999 7.10399 11.0999 6.85203C11.0999 6.60008 11.2 6.35844 11.3782 6.18028C11.5563 6.00212 11.798 5.90203 12.0499 5.90203ZM1.91659 3.8C2.33651 3.8 2.73924 3.96681 3.03617 4.26375C3.3331 4.56068 3.49992 4.96341 3.49992 5.38333C3.49992 5.80326 3.3331 6.20599 3.03617 6.50292C2.73924 6.79985 2.33651 6.96667 1.91659 6.96667C1.49666 6.96667 1.09393 6.79985 0.797 6.50292C0.500067 6.20599 0.333252 5.80326 0.333252 5.38333C0.333252 4.96341 0.500067 4.56068 0.797 4.26375C1.09393 3.96681 1.49666 3.8 1.91659 3.8ZM11.5977 3.29777C11.7657 3.29777 11.9268 3.36449 12.0456 3.48327C12.1643 3.60204 12.2311 3.76313 12.2311 3.9311C12.2311 4.09907 12.1643 4.26016 12.0456 4.37893C11.9268 4.49771 11.7657 4.56443 11.5977 4.56443C11.4297 4.56443 11.2687 4.49771 11.1499 4.37893C11.0311 4.26016 10.9644 4.09907 10.9644 3.9311C10.9644 3.76313 11.0311 3.60204 11.1499 3.48327C11.2687 3.36449 11.4297 3.29777 11.5977 3.29777ZM5.39992 0C5.90383 0 6.3871 0.200178 6.74342 0.556497C7.09974 0.912816 7.29992 1.39609 7.29992 1.9C7.29992 2.40391 7.09974 2.88718 6.74342 3.2435C6.3871 3.59982 5.90383 3.8 5.39992 3.8C4.89601 3.8 4.41273 3.59982 4.05642 3.2435C3.7001 2.88718 3.49992 2.40391 3.49992 1.9C3.49992 1.39609 3.7001 0.912816 4.05642 0.556497C4.41273 0.200178 4.89601 0 5.39992 0V0ZM10.1499 1.9C10.2339 1.9 10.3144 1.93336 10.3738 1.99275C10.4332 2.05214 10.4666 2.13268 10.4666 2.21667C10.4666 2.30065 10.4332 2.3812 10.3738 2.44058C10.3144 2.49997 10.2339 2.53333 10.1499 2.53333C10.0659 2.53333 9.98539 2.49997 9.926 2.44058C9.86661 2.3812 9.83325 2.30065 9.83325 2.21667C9.83325 2.13268 9.86661 2.05214 9.926 1.99275C9.98539 1.93336 10.0659 1.9 10.1499 1.9Z" fill="white"/>
</svg>
