<svg width="16" height="16" viewBox="0 0 16 16" fill="none" xmlns="http://www.w3.org/2000/svg">
<mask id="mask0_1672_10746" style="mask-type:alpha" maskUnits="userSpaceOnUse" x="0" y="0" width="16" height="16">
<rect width="16" height="16" fill="#D9D9D9"/>
</mask>
<g mask="url(#mask0_1672_10746)">
<path d="M2.86675 13C2.53341 13 2.25008 12.8833 2.01675 12.65C1.78341 12.4167 1.66675 12.1333 1.66675 11.8V4.2C1.66675 3.86667 1.78341 3.58333 2.01675 3.35C2.25008 3.11667 2.53341 3 2.86675 3H13.1334C13.4667 3 13.7501 3.11667 13.9834 3.35C14.2167 3.58333 14.3334 3.86667 14.3334 4.2V11.8C14.3334 12.1333 14.2167 12.4167 13.9834 12.65C13.7501 12.8833 13.4667 13 13.1334 13H2.86675ZM8.00008 8.26667C8.05564 8.26667 8.11119 8.25822 8.16675 8.24133C8.2223 8.22489 8.2723 8.2 8.31675 8.16667L13.1001 5.11667C13.1667 5.07222 13.2167 5.01111 13.2501 4.93333C13.2834 4.85556 13.2945 4.77778 13.2834 4.7C13.2723 4.54444 13.1974 4.42778 13.0587 4.35C12.9196 4.27222 12.7779 4.27778 12.6334 4.36667L8.00008 7.33333L3.36675 4.36667C3.2223 4.27778 3.08075 4.27222 2.94208 4.35C2.80297 4.42778 2.72786 4.53889 2.71675 4.68333C2.70564 4.77222 2.71675 4.85556 2.75008 4.93333C2.78341 5.01111 2.83341 5.07222 2.90008 5.11667L7.68341 8.16667C7.72786 8.2 7.77786 8.22489 7.83342 8.24133C7.88897 8.25822 7.94453 8.26667 8.00008 8.26667Z" fill="url(#paint0_linear_1672_10746)"/>
</g>
<defs>
<linearGradient id="paint0_linear_1672_10746" x1="13.9609" y1="3.58824" x2="5.44305" y2="14.7371" gradientUnits="userSpaceOnUse">
<stop stop-color="#76A0A6"/>
<stop offset="1" stop-color="#899AC1"/>
</linearGradient>
</defs>
</svg>
