<svg width="24" height="24" viewBox="0 0 24 24" fill="none" xmlns="http://www.w3.org/2000/svg">
<g clip-path="url(#clip0_809_167)">
<path d="M24 12C24 15.512 22.491 18.6716 20.0865 20.8663C17.9531 22.8127 15.1154 24 12 24C8.88464 24 6.04688 22.8127 3.91351 20.8663C1.50897 18.6716 0 15.512 0 12C0 5.37286 5.37286 0 12 0C18.6271 0 24 5.37286 24 12Z" fill="#FFAA20"/>
<path d="M24 12C24 15.512 22.491 18.6716 20.0865 20.8663C17.9531 22.8127 15.1154 24 12 24V0C18.6271 0 24 5.37286 24 12Z" fill="#FF8900"/>
<path d="M20.0865 20.8187V20.8665C17.9531 22.8129 15.1154 24.0002 12 24.0002C8.88464 24.0002 6.04688 22.8129 3.91351 20.8665V20.8187C3.91351 17.3425 6.11865 14.371 9.20398 13.2312C10.0754 12.9086 11.0175 12.7324 12 12.7324C12.9825 12.7324 13.9246 12.9086 14.7966 13.2312C17.8819 14.3716 20.0865 17.3425 20.0865 20.8187Z" fill="#7985EB"/>
<path d="M20.0865 20.8187V20.8665C17.9531 22.8129 15.1154 24.0002 12 24.0002V12.7324C12.9825 12.7324 13.9246 12.9086 14.7966 13.2312C17.8819 14.3716 20.0865 17.3425 20.0865 20.8187Z" fill="#4B5BE6"/>
<path d="M16.9598 9.13702C16.9598 11.8717 14.7352 14.097 12 14.097C9.26532 14.097 7.04022 11.8717 7.04022 9.13702C7.04022 6.40234 9.26532 4.17725 12 4.17725C14.7352 4.17725 16.9598 6.40234 16.9598 9.13702Z" fill="#FFDBA9"/>
<path d="M16.9598 9.13702C16.9598 11.8717 14.7352 14.097 12 14.097V4.17725C14.7352 4.17725 16.9598 6.40234 16.9598 9.13702Z" fill="#FFC473"/>
</g>
<defs>
<clipPath id="clip0_809_167">
<rect width="24" height="24" fill="white"/>
</clipPath>
</defs>
</svg>
