<svg width="18" height="18" viewBox="0 0 18 18" fill="none" xmlns="http://www.w3.org/2000/svg">
<path d="M1.5 5.78571H16.5M5.78571 1.5V16.5M2.57143 1.5H15.4286C15.7127 1.5 15.9852 1.61288 16.1862 1.81381C16.3871 2.01475 16.5 2.28727 16.5 2.57143V15.4286C16.5 15.7127 16.3871 15.9852 16.1862 16.1862C15.9852 16.3871 15.7127 16.5 15.4286 16.5H2.57143C2.28727 16.5 2.01475 16.3871 1.81381 16.1862C1.61288 15.9852 1.5 15.7127 1.5 15.4286V2.57143C1.5 2.28727 1.61288 2.01475 1.81381 1.81381C2.01475 1.61288 2.28727 1.5 2.57143 1.5V1.5Z" stroke="#6B7B8C" stroke-width="1.35"/>
</svg>
