<svg width="80" height="107" viewBox="0 0 80 107" fill="none" xmlns="http://www.w3.org/2000/svg">
<path d="M47.3936 103.268C47.3936 103.268 47.2938 103.207 47.1594 103.092L47.1172 103.13L47.3936 103.268Z" fill="#FFE98C"/>
<path d="M8.00536 72.6919C8.00536 72.6919 6.96883 72.8989 5.17216 73.244C2.75357 74.6935 4.13562 81.1814 4.20472 81.5265L6.13959 84.2873C6.55421 84.9775 6.93811 85.1385 7.42567 85.2267C8.71559 85.775 10.0093 88.6777 10.0976 88.9538C10.1898 89.2299 11.2993 90.6371 11.71 91.0244C13.1842 91.2967 14.4319 92.3626 15.2611 92.865C16.505 92.911 19.6376 93.6932 19.6376 93.6932C19.6376 93.6932 19.6415 93.6894 19.6415 93.6855C20.0906 93.9731 26.951 98.3636 27.2197 98.3636C27.2351 98.3636 27.2543 98.3597 27.2735 98.3521C27.2159 98.5591 27.0239 99.3414 27.0815 100.227C26.3214 100.503 26.2523 102.298 26.2523 102.298C26.5978 101.884 27.4961 102.505 28.0489 102.85C27.8416 104.023 28.5327 104.368 29.6383 104.644C31.6423 104.437 32.126 105.956 32.126 105.956C32.126 105.956 33.3008 105.749 34.4755 105.266C36.4104 104.506 38.0688 105.956 38.0688 105.956C38.0688 105.956 42.906 106.094 43.7352 106.025C44.5645 105.956 42.3532 104.299 40.902 102.712C39.4509 101.124 39.52 100.434 39.52 100.434C39.52 100.434 41.9386 101.331 43.6661 101.608C45.3937 101.538 45.4628 99.675 45.601 98.3636C45.7392 97.0522 45.1173 97.3283 44.4263 96.431C43.3168 96.1242 42.9252 95.7063 42.8523 95.6219C42.883 95.6104 42.906 95.6028 42.906 95.6028C42.906 95.6028 42.3532 95.3267 41.7313 94.7055C41.5969 91.0282 44.1767 90.269 44.3418 90.223C44.3725 90.2422 44.3955 90.269 44.4263 90.2882C47.9505 91.5996 47.1904 95.3957 47.5359 96.0859C47.8814 96.7761 47.1904 98.2255 47.1904 98.2255C47.1904 98.2255 46.8449 99.6749 46.6375 100.71C46.0156 101.899 46.7527 102.743 47.1635 103.088L50.3691 100.089C50.3691 100.089 50.8528 100.296 51.682 100.572C52.0966 99.951 53.2714 97.2592 53.4787 96.569C53.686 95.8788 54.3924 95.4187 55.2063 92.4278C56.1046 89.134 55.7936 91.1855 55.2408 89.8051C52.8414 89.5175 54.7225 86.5611 55.3445 85.6638C55.3368 85.591 55.3214 85.5181 55.3022 85.4491C55.3176 85.476 55.3291 85.499 55.3445 85.5258C56.4501 85.1117 55.9664 83.6623 56.7956 81.9368C57.6249 80.2113 61.1069 80.3416 61.9092 80.1422C66.1245 79.1069 65.5026 76.4841 65.3643 74.6206C63.9132 71.9978 64.2587 70.8935 64.8806 69.9962C68.8579 71.4687 68.7926 70.8667 69.7332 70.0576C71.2688 68.3321 69.8291 67.2776 68.4855 65.648C67.3338 63.1556 70.405 62.197 72.2477 61.4838C74.0905 60.7705 74.6279 60.088 75.4725 58.6808C76.225 56.6945 77.1195 56.8326 77.9141 56.5641C78.705 54.6661 78.9468 53.5733 79.1388 52.9022C79.3307 52.2312 78.275 50.6974 77.6032 49.2595C75.6837 48.3009 75.4917 48.0133 75.7796 47.2464C77.4112 45.2333 77.5072 44.4664 77.7759 43.4043C76.701 42.7256 76.559 41.0154 76.559 41.0154H76.4899C77.941 40.3942 77.5264 39.0138 77.5955 37.9785C77.4573 36.5291 76.8354 36.391 75.7988 36.253C74.7623 36.115 74.6932 35.8389 74.8314 35.1487C75.5915 34.3204 75.5224 33.5612 75.0387 33.3542C74.6241 32.871 75.1078 30.8694 75.5915 29.558C75.6606 27.2804 74.1404 28.3157 73.242 27.9016C72.3437 27.4874 69.0959 27.4874 66.47 26.8663C63.2913 24.7266 65.2262 16.7893 65.2262 16.2371C65.2262 15.685 65.2952 13.4763 65.2262 12.303C63.0149 12.9242 59.3524 12.234 58.9378 11.8889C58.5232 11.5438 58.1777 11.2677 56.3119 10.9916C54.5152 9.47316 54.0315 10.8536 52.8568 11.2677C51.682 11.6818 48.9179 11.4057 48.9179 11.4057C46.7758 9.81826 43.3897 11.7508 41.9386 12.8551C40.4874 13.9595 39.3818 13.1312 38.2761 12.372C35.7884 11.6128 35.3738 10.7845 34.1991 9.74923C33.3699 10.6465 32.6097 10.3014 31.0895 9.9563C31.1048 9.98314 31.1163 10.0138 31.1279 10.0445C30.8361 10.033 29.7458 9.98697 29.2659 9.91028C28.7131 9.81825 28.1603 9.08204 27.6535 8.52988C24.2905 7.79366 20.559 5.44697 19.1309 4.61873C17.3803 2.5903 16.6432 3.33419 15.3533 3.69846C13.7178 4.92165 12.3051 4.26596 12.0056 4.10108C12.0095 4.09724 12.0095 4.09341 12.0133 4.09341C10.6313 3.0581 9.98631 0.366314 9.98631 0.366314C6.57341 -0.73801 5.21439 0.941483 4.61934 1.63169C4.61934 5.63486 5.72498 7.98155 6.13959 8.57972C5.68275 9.68405 3.74404 11.2447 2.8649 11.7547C1.57498 13.6872 0.837891 19.1628 0.837891 19.1628L1.62106 19.2549C2.03567 19.2549 1.52892 20.6813 1.57883 21.8354C2.59233 22.5257 2.7766 25.2865 2.82267 27.2612C2.40805 29.6501 3.23345 30.4822 4.10875 32.1386C4.79977 34.4853 6.96882 34.0252 7.60994 34.2092C8.02456 35.1755 7.84029 35.3136 8.53131 36.2338C9.22234 37.1541 7.84029 39.8267 7.28747 40.8352C7.09935 42.0354 7.70976 42.3881 8.38159 42.5415C7.88252 42.622 4.78442 44.639 5.87086 45.5938C7.15694 46.7288 6.83062 47.3844 5.99755 48.5961C5.16448 49.8078 5.8056 51.6637 5.8056 51.6637C6.44672 52.4306 6.06281 52.6223 6.06281 53.5809C6.57341 55.4982 9.13404 66.6181 9.70989 68.8536C10.2857 71.0891 8.00153 72.6343 8.00153 72.6343M49.8124 71.9902C49.8124 71.994 49.8124 71.9978 49.8124 72.0017L49.751 72.1512C49.7702 72.0937 49.7932 72.04 49.8124 71.9902ZM48.1732 15.4281C48.0426 15.9419 47.9083 16.379 47.7739 16.751C47.9006 16.2601 48.0004 15.8 48.154 15.4702C48.1616 15.4587 48.1655 15.4434 48.1732 15.4281Z" fill="#FFE98C"/>
</svg>
