<svg width="16" height="16" viewBox="0 0 16 16" fill="none" xmlns="http://www.w3.org/2000/svg">
<mask id="mask0_1672_10741" style="mask-type:alpha" maskUnits="userSpaceOnUse" x="0" y="0" width="16" height="16">
<rect width="16" height="16" fill="#D9D9D9"/>
</mask>
<g mask="url(#mask0_1672_10741)">
<path d="M6.95005 13.5332C6.83894 13.6332 6.7196 13.6388 6.59205 13.5499C6.46405 13.461 6.42227 13.3443 6.46672 13.1999L6.88338 11.8832L5.85005 11.1499C5.72783 11.0721 5.69183 10.961 5.74205 10.8165C5.79183 10.6721 5.88894 10.5999 6.03338 10.5999H7.28338L7.76672 9.04987L5.45005 7.6832C5.23894 7.56098 5.07783 7.39698 4.96672 7.1912C4.8556 6.98587 4.80005 6.75542 4.80005 6.49987V2.7332C4.80005 2.39987 4.91672 2.11654 5.15005 1.8832C5.38338 1.64987 5.66672 1.5332 6.00005 1.5332H10C10.3334 1.5332 10.6167 1.64987 10.85 1.8832C11.0834 2.11654 11.2 2.39987 11.2 2.7332V6.49987C11.2 6.74431 11.1418 6.9692 11.0254 7.17454C10.9085 7.38031 10.7445 7.54431 10.5334 7.66654L8.23338 9.04987L8.71672 10.5999H9.96672C10.1112 10.5999 10.2083 10.6721 10.258 10.8165C10.3083 10.961 10.2723 11.0721 10.15 11.1499L9.11672 11.8832L9.53338 13.1999C9.57783 13.3443 9.53627 13.461 9.40872 13.5499C9.28072 13.6388 9.16116 13.6332 9.05005 13.5332L8.00005 12.7332L6.95005 13.5332ZM8.00005 8.01654L8.50005 7.71654V3.0332C8.50005 2.88876 8.45294 2.7692 8.35872 2.67454C8.26405 2.58031 8.14449 2.5332 8.00005 2.5332C7.8556 2.5332 7.73627 2.58031 7.64205 2.67454C7.54738 2.7692 7.50005 2.88876 7.50005 3.0332V7.71654L8.00005 8.01654Z" fill="url(#paint0_linear_1672_10741)"/>
</g>
<defs>
<linearGradient id="paint0_linear_1672_10741" x1="11.0118" y1="2.24376" x2="2.02784" y2="7.16238" gradientUnits="userSpaceOnUse">
<stop stop-color="#76A0A6"/>
<stop offset="1" stop-color="#899AC1"/>
</linearGradient>
</defs>
</svg>
