<svg width="19" height="28" viewBox="0 0 19 28" fill="none" xmlns="http://www.w3.org/2000/svg">
<path d="M16.5 0H2.5C1.96957 0 1.46086 0.210714 1.08579 0.585786C0.710714 0.960859 0.5 1.46957 0.5 2V26C0.5 26.5304 0.710714 27.0391 1.08579 27.4142C1.46086 27.7893 1.96957 28 2.5 28H16.5C17.0304 28 17.5391 27.7893 17.9142 27.4142C18.2893 27.0391 18.5 26.5304 18.5 26V2C18.5 1.46957 18.2893 0.960859 17.9142 0.585786C17.5391 0.210714 17.0304 0 16.5 0ZM2.5 2H16.5V20H2.5V2ZM2.5 26V22H16.5V26H2.5Z" fill="url(#paint0_linear_601_3540)"/>
<defs>
<linearGradient id="paint0_linear_601_3540" x1="16.7476" y1="0.847357" x2="1.16497" y2="28" gradientUnits="userSpaceOnUse">
<stop stop-color="#136EE5"/>
<stop offset="1" stop-color="#FF24FB"/>
</linearGradient>
</defs>
</svg>
