<svg width="16" height="4" viewBox="0 0 16 4" fill="none" xmlns="http://www.w3.org/2000/svg">
<path d="M2 3.99951C1.45 3.99951 0.979332 3.80351 0.587999 3.41151C0.196 3.02018 0 2.54951 0 1.99951C0 1.44951 0.196 0.978511 0.587999 0.586511C0.979332 0.195178 1.45 -0.000488281 2 -0.000488281C2.55 -0.000488281 3.02066 0.195178 3.412 0.586511C3.804 0.978511 4 1.44951 4 1.99951C4 2.54951 3.804 3.02018 3.412 3.41151C3.02066 3.80351 2.55 3.99951 2 3.99951ZM7.99999 3.99951C7.44999 3.99951 6.97933 3.80351 6.588 3.41151C6.196 3.02018 6 2.54951 6 1.99951C6 1.44951 6.196 0.978511 6.588 0.586511C6.97933 0.195178 7.44999 -0.000488281 7.99999 -0.000488281C8.54999 -0.000488281 9.02099 0.195178 9.41299 0.586511C9.80433 0.978511 9.99999 1.44951 9.99999 1.99951C9.99999 2.54951 9.80433 3.02018 9.41299 3.41151C9.02099 3.80351 8.54999 3.99951 7.99999 3.99951ZM14 3.99951C13.45 3.99951 12.979 3.80351 12.587 3.41151C12.1957 3.02018 12 2.54951 12 1.99951C12 1.44951 12.1957 0.978511 12.587 0.586511C12.979 0.195178 13.45 -0.000488281 14 -0.000488281C14.55 -0.000488281 15.021 0.195178 15.413 0.586511C15.8043 0.978511 16 1.44951 16 1.99951C16 2.54951 15.8043 3.02018 15.413 3.41151C15.021 3.80351 14.55 3.99951 14 3.99951Z" fill="#6B7B8C"/>
</svg>
