<svg width="12" height="16" viewBox="0 0 12 16" fill="none" xmlns="http://www.w3.org/2000/svg">
<path d="M6 15.875C5.81944 15.875 5.67028 15.8158 5.5525 15.6975C5.43417 15.5797 5.375 15.4305 5.375 15.25V2.41663L1.75 6.04163C1.63889 6.15274 1.49667 6.2119 1.32333 6.21913C1.14944 6.22579 1 6.16663 0.875 6.04163C0.75 5.93051 0.6875 5.78468 0.6875 5.60413C0.6875 5.42357 0.75 5.27774 0.875 5.16663L5.47917 0.562459C5.54861 0.493015 5.62861 0.440793 5.71917 0.405793C5.80917 0.371348 5.90278 0.354126 6 0.354126C6.09722 0.354126 6.19111 0.371348 6.28167 0.405793C6.37167 0.440793 6.45139 0.493015 6.52083 0.562459L11.125 5.16663C11.25 5.27774 11.3125 5.41996 11.3125 5.59329C11.3125 5.76718 11.25 5.91663 11.125 6.04163C11 6.16663 10.8508 6.22913 10.6775 6.22913C10.5036 6.22913 10.3542 6.16663 10.2292 6.04163L6.625 2.43746V15.25C6.625 15.4305 6.56611 15.5797 6.44833 15.6975C6.33 15.8158 6.18056 15.875 6 15.875Z" fill="url(#paint0_linear_1004_1080)"/>
<defs>
<linearGradient id="paint0_linear_1004_1080" x1="11" y1="1.26712" x2="-1.92025" y2="10.4067" gradientUnits="userSpaceOnUse">
<stop stop-color="#76A0A6"/>
<stop offset="1" stop-color="#899AC1"/>
</linearGradient>
</defs>
</svg>
