<svg width="76" height="61" viewBox="0 0 76 61" fill="none" xmlns="http://www.w3.org/2000/svg">
<path d="M63.2897 18.9761C62.138 16.9476 65.2245 15.7091 66.6565 15.5251C68.0846 15.341 68.6835 16.6294 69.1442 16.7252C69.6049 16.8211 71.033 16.6792 72.7836 16.8173C74.538 16.9553 75.3634 16.035 75.7281 14.9767C75.6821 13.8724 74.5303 12.6761 72.6876 12.1239C70.8449 11.5717 72.0426 9.63916 72.273 8.67288C71.6741 8.16673 69.7853 8.43897 68.9561 8.35078C68.2651 7.47652 66.288 6.73647 64.856 6.65211C64.4875 5.50561 63.4317 5.9159 62.0458 5.82387C59.9228 3.33914 58.9631 3.61522 57.4428 3.2011C55.9226 2.23482 54.0299 2.33068 52.6978 2.32685C51.3157 1.59063 49.2426 1.40657 47.2617 2.09678C45.2808 2.78698 44.2711 1.95873 43.7144 1.58679C43.1616 1.21485 42.4245 2.5109 42.1481 2.55308C40.2132 1.17267 37.8906 1.33755 37.8906 1.33755C33.399 2.23482 33.399 1.61363 31.9478 1.54461C30.4966 1.47559 28.4927 2.78698 27.0415 3.40816C25.5904 4.02934 23.5864 2.23482 22.8954 1.40657C22.4117 1.88971 22.4808 1.61364 21.4442 1.88972C20.5459 1.40658 19.7166 1.75168 18.611 1.75168C18.1964 0.854414 17.5745 1.13049 17.0216 1.06147C16.4688 0.992453 16.2615 0.578333 15.225 0.164211C14.1884 -0.24991 8.24562 0.233229 6.72537 0.37127C4.9287 1.06147 0.851641 1.82069 0.851641 1.82069C1.01288 3.71492 0.341049 9.07166 0.298819 9.9996C0.0224088 15.7973 2.00336 16.4185 2.34503 16.453C3.86529 16.591 9.07485 17.4883 9.69677 17.4883C11.3552 17.4538 11.217 18.4891 11.217 19.0067C10.8024 20.042 10.4224 22.0091 10.526 22.6993C11.217 23.1825 11.0097 23.5352 10.8715 23.9494C10.0423 25.648 10.6373 25.6058 11.2401 25.7017C13.1749 25.9356 12.9446 26.5721 13.221 27.9525C13.4552 30.4373 12.1845 30.3261 12.1845 30.3261C12.1845 30.3261 12.6682 32.7418 13.3592 33.0179C13.4206 32.5692 13.8429 32.0976 14.3689 31.7026C13.8928 32.1053 13.6164 32.5385 13.4014 32.922C13.3055 34.2564 12.7027 34.9006 11.7391 36.235C11.0212 37.1131 11.3629 37.4697 12.1422 37.9413C13.4936 38.8386 14.0848 40.0004 14.4495 40.7865C15.1904 42.1362 14.5455 42.9644 14.3151 43.9767C13.0137 46.9676 13.7009 46.542 14.031 47.8572C15.2749 47.9953 16.4419 47.7422 17.0831 47.9761C17.728 48.21 18.0121 49.0766 17.5821 51.9984C15.8815 52.6426 16.2039 54.8014 16.7567 55.4916C17.3096 56.1818 17.1906 56.8605 17.1906 57.6888C16.7759 58.0569 16.8182 59.0883 16.7491 59.9166C17.2328 60.6068 17.9814 61.0439 18.8106 60.6988C20.6764 58.9733 21.5056 60.0086 21.5056 60.0086C20.8146 58.3943 21.8742 58.007 21.8742 57.0407C21.8742 56.0745 20.9989 55.8406 21.736 54.7362C22.4731 53.6319 22.8416 53.3136 24.8226 54.8321C26.8035 56.3505 28.8305 56.3927 30.5811 56.8068C32.3317 57.221 32.9767 56.3467 33.5756 55.4264C32.9767 53.7699 33.1609 52.6656 33.4373 51.8834C33.4335 51.8834 33.4335 51.8796 33.4297 51.8757C33.66 51.822 33.8366 51.082 33.9019 50.503C33.8097 47.6502 34.8232 48.0604 35.6486 47.9722C37.1228 48.8005 37.0307 50.8711 37.7716 52.1595C39.1038 52.9877 39.3878 51.8374 39.5683 50.9631C39.1038 50.411 38.3705 49.2606 39.2919 48.2445C39.9829 47.2782 41.2267 48.1525 41.8256 48.5206C42.4744 47.7345 43.8987 48.1525 44.4938 48.2023C45.0888 48.2483 45.0927 49.901 45.1848 51.3772C46.014 51.9754 46.4286 53.214 46.4286 53.214C46.4286 53.214 47.0275 52.5698 47.7685 51.9294C47.4498 50.687 47.446 48.5704 47.5343 47.0021C47.7147 42.9529 48.4595 43.5971 49.1927 43.4131C49.926 43.229 49.7916 41.7566 49.6534 41.0664C49.8838 39.9621 50.8051 40.8862 51.4501 41.0242C52.0951 41.1622 56.5637 41.1162 57.9918 40.5142C60.2031 39.4099 58.821 37.2051 58.4064 36.1928C57.8536 35.5026 57.9419 34.0263 58.1722 33.2479C59.0015 32.5577 60.9824 34.9427 61.7656 35.1345C61.7233 27.4962 64.0728 23.6771 64.2993 22.6687C63.1092 21.8788 63.2897 18.9761 63.2897 18.9761ZM49.5958 29.0377C49.5651 29.0454 49.5383 29.0492 49.5075 29.053C49.5383 29.0492 49.5651 29.0454 49.5958 29.0377ZM32.4699 47.5504C32.4622 47.4354 32.4546 47.305 32.443 47.167C32.5928 48.9922 32.8001 50.3803 32.9997 51.1357C32.7003 50.1694 32.539 48.5091 32.4699 47.5504Z" fill="#8CB3FE"/>
</svg>
