<svg width="15" height="14" viewBox="0 0 15 14" fill="none" xmlns="http://www.w3.org/2000/svg">
<path d="M2.25 13.75C1.8375 13.75 1.48425 13.6033 1.19025 13.3097C0.89675 13.0157 0.75 12.6625 0.75 12.25V1.75C0.75 1.3375 0.89675 0.98425 1.19025 0.69025C1.48425 0.39675 1.8375 0.25 2.25 0.25H7.5V1.75H2.25V12.25H12.75V7H14.25V12.25C14.25 12.6625 14.1033 13.0157 13.8097 13.3097C13.5157 13.6033 13.1625 13.75 12.75 13.75H2.25ZM5.775 9.775L4.725 8.725L11.7 1.75H9V0.25H14.25V5.5H12.75V2.8L5.775 9.775Z" fill="#136EE5"/>
</svg>
