<svg width="10" height="10" viewBox="0 0 10 10" fill="none" xmlns="http://www.w3.org/2000/svg">
<path d="M1.09167 9.95866C0.8 9.95866 0.552083 9.85658 0.347916 9.65241C0.143749 9.44824 0.041666 9.20033 0.041666 8.90866V1.09199C0.041666 0.800326 0.143749 0.552409 0.347916 0.348242C0.552083 0.144076 0.8 0.0419922 1.09167 0.0419922H4.78125V0.916992H1.09167C1.05278 0.916992 1.01389 0.936437 0.974999 0.975326C0.93611 1.01421 0.916666 1.0531 0.916666 1.09199V8.90866C0.916666 8.94755 0.93611 8.98644 0.974999 9.02533C1.01389 9.06421 1.05278 9.08366 1.09167 9.08366H8.90833C8.94722 9.08366 8.98611 9.06421 9.025 9.02533C9.06389 8.98644 9.08333 8.94755 9.08333 8.90866V5.21908H9.95833V8.90866C9.95833 9.20033 9.85625 9.44824 9.65208 9.65241C9.44792 9.85658 9.2 9.95866 8.90833 9.95866H1.09167ZM3.67292 6.93991L3.06042 6.32741L8.47083 0.916992H6.16667V0.0419922H9.95833V3.83366H9.08333V1.52949L3.67292 6.93991Z" fill="#464E5F"/>
</svg>
