<svg width="20" height="20" viewBox="0 0 20 20" fill="none" xmlns="http://www.w3.org/2000/svg">
<mask id="mask0_1432_5396" style="mask-type:alpha" maskUnits="userSpaceOnUse" x="0" y="0" width="20" height="20">
<rect width="20" height="20" fill="#D9D9D9"/>
</mask>
<g mask="url(#mask0_1432_5396)">
<path d="M11.25 17.9168H8.72914C8.54858 17.9168 8.38886 17.8543 8.24997 17.7293C8.11108 17.6043 8.02775 17.4446 7.99997 17.2502L7.74997 15.3752C7.52775 15.3057 7.30219 15.2016 7.0733 15.0627C6.84386 14.9238 6.63192 14.7779 6.43747 14.6252L4.7083 15.3752C4.52775 15.4446 4.3508 15.4516 4.17747 15.396C4.00358 15.3404 3.86108 15.2293 3.74997 15.0627L2.49997 12.8752C2.40275 12.7085 2.37497 12.5313 2.41664 12.3435C2.4583 12.1563 2.54858 12.0071 2.68747 11.896L4.2083 10.7502C4.18053 10.6252 4.1633 10.5002 4.15664 10.3752C4.14942 10.2502 4.1458 10.1252 4.1458 10.0002C4.1458 9.88905 4.14942 9.771 4.15664 9.646C4.1633 9.521 4.18053 9.38905 4.2083 9.25016L2.68747 8.10433C2.54858 7.99322 2.4583 7.84405 2.41664 7.65683C2.37497 7.46905 2.40275 7.29183 2.49997 7.12516L3.74997 4.9585C3.84719 4.79183 3.98608 4.68072 4.16664 4.62516C4.34719 4.56961 4.5208 4.57655 4.68747 4.646L6.43747 5.37516C6.63192 5.22238 6.84386 5.08016 7.0733 4.9485C7.30219 4.81627 7.52775 4.7085 7.74997 4.62516L7.99997 2.75016C8.02775 2.55572 8.11108 2.396 8.24997 2.271C8.38886 2.146 8.54858 2.0835 8.72914 2.0835H11.25C11.4444 2.0835 11.6111 2.146 11.75 2.271C11.8889 2.396 11.9722 2.55572 12 2.75016L12.25 4.62516C12.5 4.72239 12.7255 4.82988 12.9266 4.94766C13.1283 5.066 13.3333 5.2085 13.5416 5.37516L15.3125 4.646C15.4791 4.57655 15.6494 4.56961 15.8233 4.62516C15.9966 4.68072 16.1389 4.79183 16.25 4.9585L17.5 7.12516C17.5972 7.29183 17.625 7.46905 17.5833 7.65683C17.5416 7.84405 17.4514 7.99322 17.3125 8.10433L15.7708 9.271C15.7986 9.40988 15.8125 9.53488 15.8125 9.646V10.0002C15.8125 10.1113 15.8089 10.2257 15.8016 10.3435C15.795 10.4618 15.7777 10.5974 15.75 10.7502L17.2708 11.896C17.4236 12.0071 17.5208 12.1563 17.5625 12.3435C17.6041 12.5313 17.5694 12.7085 17.4583 12.8752L16.2083 15.0418C16.1111 15.2085 15.9722 15.3196 15.7916 15.3752C15.6111 15.4307 15.4305 15.4238 15.25 15.3543L13.5416 14.6252C13.3333 14.7918 13.1216 14.9377 12.9066 15.0627C12.6911 15.1877 12.4722 15.2918 12.25 15.3752L12 17.2502C11.9722 17.4446 11.8889 17.6043 11.75 17.7293C11.6111 17.8543 11.4444 17.9168 11.25 17.9168ZM9.99997 12.5002C10.6944 12.5002 11.2847 12.2571 11.7708 11.771C12.2569 11.2849 12.5 10.6946 12.5 10.0002C12.5 9.30572 12.2569 8.71544 11.7708 8.22933C11.2847 7.74322 10.6944 7.50016 9.99997 7.50016C9.30553 7.50016 8.71525 7.74322 8.22914 8.22933C7.74303 8.71544 7.49997 9.30572 7.49997 10.0002C7.49997 10.6946 7.74303 11.2849 8.22914 11.771C8.71525 12.2571 9.30553 12.5002 9.99997 12.5002ZM9.99997 11.2502C9.65275 11.2502 9.35775 11.1285 9.11497 10.8852C8.87164 10.6424 8.74997 10.3474 8.74997 10.0002C8.74997 9.65294 8.87164 9.35794 9.11497 9.11516C9.35775 8.87183 9.65275 8.75016 9.99997 8.75016C10.3472 8.75016 10.6422 8.87183 10.885 9.11516C11.1283 9.35794 11.25 9.65294 11.25 10.0002C11.25 10.3474 11.1283 10.6424 10.885 10.8852C10.6422 11.1285 10.3472 11.2502 9.99997 11.2502ZM9.16664 16.6668H10.8125L11.1041 14.4377C11.5347 14.3266 11.9236 14.1668 12.2708 13.9585C12.618 13.7502 12.9583 13.4863 13.2916 13.1668L15.3541 14.0418L16.1875 12.6252L14.375 11.271C14.4444 11.0488 14.4897 10.8335 14.5108 10.6252C14.5314 10.4168 14.5416 10.2085 14.5416 10.0002C14.5416 9.77794 14.5314 9.56627 14.5108 9.36516C14.4897 9.1635 14.4444 8.9585 14.375 8.75016L16.1875 7.37516L15.375 5.9585L13.2708 6.8335C12.993 6.54183 12.6597 6.28127 12.2708 6.05183C11.8819 5.82294 11.493 5.65989 11.1041 5.56266L10.8333 3.3335H9.18747L8.8958 5.56266C8.47914 5.65989 8.09025 5.81266 7.72914 6.021C7.36803 6.22933 7.0208 6.49322 6.68747 6.81266L4.62497 5.9585L3.81247 7.37516L5.60414 8.7085C5.53469 8.91683 5.48608 9.12516 5.4583 9.3335C5.43053 9.54183 5.41664 9.76405 5.41664 10.0002C5.41664 10.2224 5.43053 10.4377 5.4583 10.646C5.48608 10.8543 5.53469 11.0627 5.60414 11.271L3.81247 12.6252L4.62497 14.0418L6.68747 13.1668C7.00692 13.4863 7.34719 13.7502 7.7083 13.9585C8.06942 14.1668 8.46525 14.3266 8.8958 14.4377L9.16664 16.6668Z" fill="#FF24FB"/>
</g>
</svg>
