<svg width="24" height="24" viewBox="0 0 24 24" fill="none" xmlns="http://www.w3.org/2000/svg">
<mask id="mask0_785_2160" style="mask-type:alpha" maskUnits="userSpaceOnUse" x="0" y="0" width="24" height="24">
<rect width="24" height="24" fill="#D9D9D9"/>
</mask>
<g mask="url(#mask0_785_2160)">
<path d="M9.7 10.45H10.825C11.075 10.45 11.2833 10.3627 11.45 10.188C11.6167 10.0127 11.7 9.8 11.7 9.55V8.45C11.7 8.2 11.6167 7.98733 11.45 7.812C11.2833 7.63733 11.075 7.55 10.825 7.55H9.3C9.16667 7.55 9.05433 7.596 8.963 7.688C8.871 7.77933 8.825 7.89167 8.825 8.025V12C8.825 12.1167 8.871 12.2207 8.963 12.312C9.05433 12.404 9.15833 12.45 9.275 12.45C9.39167 12.45 9.49167 12.404 9.575 12.312C9.65833 12.2207 9.7 12.1167 9.7 12V10.45ZM9.7 9.55V8.45H10.825V9.55H9.7ZM14.7 12.45C14.95 12.45 15.1583 12.3627 15.325 12.188C15.4917 12.0127 15.575 11.8 15.575 11.55V8.45C15.575 8.2 15.4917 7.98733 15.325 7.812C15.1583 7.63733 14.95 7.55 14.7 7.55H13.2C13.0667 7.55 12.9543 7.596 12.863 7.688C12.771 7.77933 12.725 7.89167 12.725 8.025V11.975C12.725 12.1083 12.771 12.2207 12.863 12.312C12.9543 12.404 13.0667 12.45 13.2 12.45H14.7ZM13.625 11.55V8.45H14.7V11.55H13.625ZM17.575 10.45H18.325C18.4417 10.45 18.546 10.404 18.638 10.312C18.7293 10.2207 18.775 10.1167 18.775 10C18.775 9.88333 18.7293 9.77933 18.638 9.688C18.546 9.596 18.4417 9.55 18.325 9.55H17.575V8.45H18.325C18.4417 8.45 18.546 8.404 18.638 8.312C18.7293 8.22067 18.775 8.11667 18.775 8C18.775 7.88333 18.7293 7.77933 18.638 7.688C18.546 7.596 18.4417 7.55 18.325 7.55H17.15C17.0333 7.55 16.929 7.596 16.837 7.688C16.7457 7.77933 16.7 7.89167 16.7 8.025V12C16.7 12.1167 16.7457 12.2207 16.837 12.312C16.929 12.404 17.025 12.45 17.125 12.45C17.2417 12.45 17.346 12.404 17.438 12.312C17.5293 12.2207 17.575 12.1167 17.575 12V10.45ZM8.05 17.5C7.55 17.5 7.125 17.325 6.775 16.975C6.425 16.625 6.25 16.2 6.25 15.7V4.3C6.25 3.8 6.425 3.375 6.775 3.025C7.125 2.675 7.55 2.5 8.05 2.5H19.45C19.95 2.5 20.375 2.675 20.725 3.025C21.075 3.375 21.25 3.8 21.25 4.3V15.7C21.25 16.2 21.075 16.625 20.725 16.975C20.375 17.325 19.95 17.5 19.45 17.5H8.05ZM8.05 16H19.45C19.5333 16 19.6043 15.9707 19.663 15.912C19.721 15.854 19.75 15.7833 19.75 15.7V4.3C19.75 4.21667 19.721 4.14567 19.663 4.087C19.6043 4.029 19.5333 4 19.45 4H8.05C7.96667 4 7.896 4.029 7.838 4.087C7.77933 4.14567 7.75 4.21667 7.75 4.3V15.7C7.75 15.7833 7.77933 15.854 7.838 15.912C7.896 15.9707 7.96667 16 8.05 16ZM4.55 21C4.05 21 3.625 20.825 3.275 20.475C2.925 20.125 2.75 19.7 2.75 19.2V7.05C2.75 6.85 2.821 6.675 2.963 6.525C3.10433 6.375 3.28333 6.3 3.5 6.3C3.71667 6.3 3.89567 6.375 4.037 6.525C4.179 6.675 4.25 6.85 4.25 7.05V19.2C4.25 19.2833 4.27933 19.3543 4.338 19.413C4.396 19.471 4.46667 19.5 4.55 19.5H16.7C16.9 19.5 17.075 19.5707 17.225 19.712C17.375 19.854 17.45 20.0333 17.45 20.25C17.45 20.4667 17.375 20.646 17.225 20.788C17.075 20.9293 16.9 21 16.7 21H4.55Z" fill="#136EE5"/>
</g>
</svg>
