<svg width="24" height="24" viewBox="0 0 24 24" fill="none" xmlns="http://www.w3.org/2000/svg">
<mask id="mask0_2302_14693" style="mask-type:alpha" maskUnits="userSpaceOnUse" x="0" y="0" width="24" height="24">
<rect width="24" height="24" fill="white"/>
</mask>
<g mask="url(#mask0_2302_14693)">
<path d="M5.05 20.5C4.55 20.5 4.125 20.325 3.775 19.975C3.425 19.625 3.25 19.2 3.25 18.7V5.3C3.25 4.8 3.425 4.375 3.775 4.025C4.125 3.675 4.55 3.5 5.05 3.5H14.2V5H5.05C4.98333 5 4.91667 5.03333 4.85 5.1C4.78333 5.16667 4.75 5.23333 4.75 5.3V18.7C4.75 18.7667 4.78333 18.8333 4.85 18.9C4.91667 18.9667 4.98333 19 5.05 19H18.45C18.5167 19 18.5833 18.9667 18.65 18.9C18.7167 18.8333 18.75 18.7667 18.75 18.7V9.55H20.25V18.7C20.25 19.2 20.075 19.625 19.725 19.975C19.375 20.325 18.95 20.5 18.45 20.5H5.05ZM8 16.75V15.25H15.5V16.75H8ZM8 13.75V12.25H15.5V13.75H8ZM8 10.75V9.25H15.5V10.75H8ZM17.25 8.5V6.5H15.25V5H17.25V3H18.75V5H20.75V6.5H18.75V8.5H17.25Z" fill="white"/>
</g>
</svg>
