<svg width="90" height="93" viewBox="0 0 90 93" fill="none" xmlns="http://www.w3.org/2000/svg">
<path d="M87.5176 42.1982C87.0339 41.3355 88.5887 39.9896 88.8996 39.8515C89.2106 39.7135 87.3103 39.886 86.0664 40.1276C84.2698 40.9904 83.8897 39.886 83.5442 38.9888C83.6133 37.3668 82.4731 37.8499 81.8166 38.0915C80.7801 38.057 80.5382 36.8491 80.5728 36.0209C81.4711 35.6068 82.1621 34.7095 82.3349 33.9503C79.6399 33.1221 79.7435 31.8107 79.709 31.155C78.5688 31.362 77.0831 30.7063 76.8758 30.4993C76.6685 30.2922 76.8412 30.0506 76.7721 29.0499C75.1828 30.1887 73.5243 29.464 72.9024 29.2224C72.7642 29.9126 73.5243 30.1887 74.2844 31.1895C75.0446 32.1903 74.008 32.915 73.1788 33.3636C72.315 34.1919 73.5243 35.6758 74.1117 36.435C74.699 37.1942 74.0426 38.2295 73.4552 38.8507C72.7987 38.9888 71.9004 40.0931 71.7276 40.3692C71.5549 40.6453 70.5874 40.7833 70.2765 40.6453C70.0077 40.5226 69.9348 39.9972 69.5854 40.0241C69.5854 40.0241 69.5854 39.4374 69.2745 38.5746C65.0247 40.3347 65.0938 36.8491 65.0247 36.3315C64.6446 35.9519 64.0572 36.6076 62.9862 37.6429C61.9151 38.6782 59.531 37.0217 58.7363 35.5723C57.9417 34.1228 57.8726 34.3989 56.2832 33.7087C54.3483 31.362 51.5842 30.6028 50.7895 30.2577C51.066 29.533 50.9969 27.3244 50.9623 26.4616C48.06 23.5627 50.1676 20.94 50.2367 20.5604C50.3058 20.1808 48.5092 19.318 48.5092 19.318C48.5092 19.318 48.5437 17.558 48.5092 16.8678C48.0254 16.8333 46.1021 16.8755 45.6414 16.7643C44.2248 14.5211 42.6354 13.4513 42.5318 14.7972C42.3974 16.5227 42.0826 17.2129 42.0826 17.2129C42.0826 17.2129 42.7391 18.3862 42.7391 18.6278C42.7391 18.6278 42.7429 18.67 42.7506 18.739C42.5702 18.0795 42.2323 17.5426 42.0826 17.2397C41.8945 17.3778 41.86 17.3202 41.2534 16.9636C40.094 15.9974 39.8099 16.584 39.6218 16.7451C39.5105 17.9299 39.069 18.1255 38.5162 18.4591C38.8502 18.4092 38.7926 18.6508 38.8502 18.9C39.3761 19.2336 40.9194 20.1347 41.2265 20.6946C42.0865 22.2399 39.2648 23.1793 39.2648 23.1793C39.2648 23.1793 39.0959 23.5666 39.403 24.2568C39.7101 25.5298 39.0498 25.7676 38.1898 26.0206C36.9498 26.4041 34.8422 23.7353 34.5351 23.4554C34.4199 23.6279 34.3201 23.8158 34.228 24.0037C34.2433 23.8657 34.2126 23.7736 34.1589 23.7046C31.9476 23.1525 31.4869 22.0021 31.0262 21.3119C30.2929 20.6217 31.0262 20.0235 31.3448 19.2413C30.696 19.0112 30.4542 18.716 29.5059 17.8149C28.6306 15.8823 27.9396 13.0793 27.9396 12.8454C27.9396 12.6115 26.9453 12.6652 26.1391 12.6154C25.4481 11.0969 23.7935 9.57848 23.2406 9.25638C23.2867 8.88444 22.5957 8.38596 22.5496 8.19807C22.5036 8.01402 20.7069 6.17348 20.7069 6.17348C20.7069 6.17348 20.3882 6.12746 20.0619 6.07762C19.7394 5.89356 17.3439 2.99855 17.3439 2.99855C17.4399 0.878091 17.0214 0 17.0214 0C16.2383 0 15.1326 1.89039 14.9483 2.99471C14.7641 4.09904 13.382 6.26167 13.3359 6.53775C13.2937 6.81383 11.8157 9.7587 12.5489 10.3569C13.835 11.0471 15.3591 9.76253 15.5472 9.71268C15.7315 9.66667 16.9293 9.4366 17.7124 9.34457C18.4956 9.25255 19.4093 11.2656 19.8777 11.5532C21.2136 12.3815 20.5687 14.9084 20.5687 15.3225C20.5687 15.7366 20.872 15.7443 21.444 16.0587C23.0065 16.933 22.5957 18.2674 22.1811 18.8655C21.9047 19.8318 19.5091 19.2797 18.7259 19.2336C17.9927 19.4637 15.9618 20.0159 14.8984 20.384C13.0058 21.5842 13.1018 24.3411 12.7332 25.8596C12.3647 27.378 10.568 27.24 10.0612 27.332C9.88849 27.3627 9.84626 27.4701 9.87313 27.6311C9.6927 27.0943 9.447 27.2438 8.77517 27.2438C7.57739 27.3359 7.32018 27.819 5.965 28.7623C3.98406 31.109 4.16833 31.7992 4.26047 32.3513C5.91893 32.2133 5.7385 33.0875 5.82679 34.4679C5.91893 35.8484 4.39867 36.1244 3.66158 36.2625C2.55594 36.4005 1.35432 37.5048 0.989614 37.9611C0.621067 38.4174 0.897477 40.4459 0.943546 41.1361C0.985775 41.8263 1.03952 43.9429 0.989614 44.8632C0.621067 46.2436 1.77278 46.9798 2.27953 47.4859C2.83235 48.2682 3.89576 47.045 4.49081 46.8916C6.51782 47.7237 9.05158 47.3057 9.32799 47.3977C9.6044 47.4898 11.1208 50.1586 12.1343 51.2169C13.931 50.9408 13.9771 52.0451 13.9771 52.9194C14.0231 54.1617 15.6355 53.8856 15.6355 53.8856C16.0809 53.855 15.3514 52.6356 14.9906 51.861C14.576 51.1708 14.6105 50.542 14.741 50.1202C15.267 48.3525 16.3419 47.4974 16.649 47.1408C17.2326 46.4775 18.4457 46.7842 19.1866 46.6999C19.9314 46.6193 19.6895 45.2888 19.7394 44.7366C19.7932 44.1845 20.1272 43.8317 20.3806 43.3294C20.8835 42.9421 20.6685 42.1905 20.7069 41.7304C22.2809 40.9328 22.2579 40.35 22.4536 39.6598C23.6975 37.896 25.8819 37.037 26.2927 36.8415C26.4808 36.8146 26.5537 36.7341 26.5653 36.5462C26.5806 36.6574 26.5883 36.7495 26.596 36.8146C26.5038 37.8269 27.882 39.4834 28.2544 39.4374C29.3178 38.9313 29.2219 39.1153 29.7747 39.6675C29.8438 39.6828 29.9129 39.6905 29.982 39.6981C30.1317 42.643 32.8152 44.8478 33.0916 44.9053C33.368 44.9629 33.7519 48.4944 33.6982 48.989C33.6406 49.4837 35.4142 51.4469 35.4142 51.4469L35.3873 52.2445C35.3873 52.2445 36.159 52.325 36.4354 52.325C36.7118 52.325 37.2646 53.4293 37.5679 53.8166C37.8443 54.1732 38.4471 54.2231 38.8041 54.1656C38.6198 56.8727 39.4107 58.069 40.5585 59.0353C41.8024 59.3574 41.2918 60.7532 41.5682 60.8298C43.5453 61.3858 44.8851 63.4066 46.0368 65.2471C46.8661 68.2419 49.2155 72.5403 49.9526 72.9314C51.2425 73.6178 52.8972 75.7382 53.4078 76.3824C54.2869 77.0649 56.7708 77.2452 57.7305 77.0304C56.9742 77.3027 55.692 77.0611 55.1008 77.0151C56.6556 81.4669 55.239 81.7775 54.6862 82.0191C52.9932 81.0528 51.6073 80.8035 51.3769 80.5696C50.9623 80.7077 51.2387 83.0544 51.5612 84.8489C52.114 87.3336 52.1255 87.1036 52.4365 87.6097C52.8089 91.5209 54.2754 92.3453 54.2754 92.3453C54.8628 92.1727 54.5787 90.4395 54.786 89.6113C54.9933 88.7831 56.3062 88.3344 57.5155 88.0238C59.6232 87.5407 59.5195 89.9909 60.0378 91.2333C61.9035 91.1297 62.6291 91.5439 63.0437 91.8544C64.7713 91.9235 67.259 92.6482 67.259 92.6482C67.259 92.6482 69.4357 92.8897 70.3341 92.6137C71.1633 92.096 71.6739 92.2571 71.8889 92.3721C73.5819 93.649 73.8237 91.958 73.8237 91.5093C73.9619 89.2662 75.2403 85.6426 75.7586 84.2967C77.9008 82.7438 78.5573 82.0191 79.1101 81.0183C77.6935 79.5343 77.6935 74.8064 77.6589 74.1162C77.6397 74.1201 77.6244 74.1201 77.6052 74.1239C77.6282 74.1124 77.6474 74.0971 77.6589 74.0817C79.2483 71.7005 82.0815 72.5633 82.8762 72.7358C82.6689 71.5625 83.4981 70.6307 83.7745 70.3201C84.0509 70.0095 85.433 59.7945 85.7094 58.1381C82.5307 54.9976 83.118 51.6847 82.7725 48.8203C82.427 44.2995 86.2277 45.3348 87.0914 45.1277C87.5061 43.6783 88.6462 42.8846 89.1991 42.3324C88.7269 42.4398 88.0013 43.061 87.5176 42.1982Z" fill="#FF8C8C"/>
</svg>
