<svg width="16" height="17" viewBox="0 0 16 17" fill="none" xmlns="http://www.w3.org/2000/svg">
<mask id="mask0_477_2615" style="mask-type:alpha" maskUnits="userSpaceOnUse" x="0" y="0" width="16" height="17">
<rect y="0.5" width="16" height="16" fill="#D9D9D9"/>
</mask>
<g mask="url(#mask0_477_2615)">
<path d="M9.98335 11.1827C10.0722 11.2716 10.1834 11.316 10.3167 11.316C10.45 11.316 10.5667 11.266 10.6667 11.166C10.7667 11.066 10.8167 10.9493 10.8167 10.816C10.8167 10.6827 10.7667 10.566 10.6667 10.466L8.50002 8.29935V5.64935C8.50002 5.51602 8.45291 5.40224 8.35869 5.30802C8.26402 5.21335 8.14446 5.16602 8.00002 5.16602C7.85558 5.16602 7.73624 5.21335 7.64202 5.30802C7.54735 5.40224 7.50002 5.52157 7.50002 5.66602V8.44935C7.50002 8.52713 7.5138 8.60202 7.54135 8.67402C7.56935 8.74646 7.61669 8.81602 7.68335 8.88268L9.98335 11.1827ZM8.00002 14.8327C7.12224 14.8327 6.29735 14.666 5.52535 14.3327C4.75291 13.9993 4.08335 13.5493 3.51669 12.9827C2.95002 12.416 2.50002 11.7465 2.16669 10.974C1.83335 10.202 1.66669 9.37713 1.66669 8.49935C1.66669 7.62157 1.83335 6.79646 2.16669 6.02402C2.50002 5.25202 2.95002 4.58268 3.51669 4.01602C4.08335 3.44935 4.75291 2.99935 5.52535 2.66602C6.29735 2.33268 7.12224 2.16602 8.00002 2.16602C8.8778 2.16602 9.70291 2.33268 10.4754 2.66602C11.2474 2.99935 11.9167 3.44935 12.4834 4.01602C13.05 4.58268 13.5 5.25202 13.8334 6.02402C14.1667 6.79646 14.3334 7.62157 14.3334 8.49935C14.3334 9.37713 14.1667 10.202 13.8334 10.974C13.5 11.7465 13.05 12.416 12.4834 12.9827C11.9167 13.5493 11.2474 13.9993 10.4754 14.3327C9.70291 14.666 8.8778 14.8327 8.00002 14.8327ZM8.00002 13.8327C9.4778 13.8327 10.7362 13.3133 11.7754 12.2747C12.814 11.2356 13.3334 9.97713 13.3334 8.49935C13.3334 7.02157 12.814 5.76313 11.7754 4.72402C10.7362 3.68535 9.4778 3.16602 8.00002 3.16602C6.52224 3.16602 5.26402 3.68535 4.22535 4.72402C3.18624 5.76313 2.66669 7.02157 2.66669 8.49935C2.66669 9.97713 3.18624 11.2356 4.22535 12.2747C5.26402 13.3133 6.52224 13.8327 8.00002 13.8327Z" fill="#B8BFCC"/>
</g>
</svg>
