<svg width="20" height="20" viewBox="0 0 20 20" fill="none" xmlns="http://www.w3.org/2000/svg">
<mask id="mask0_775_472" style="mask-type:alpha" maskUnits="userSpaceOnUse" x="0" y="0" width="20" height="20">
<rect width="20" height="20" fill="#D9D9D9"/>
</mask>
<g mask="url(#mask0_775_472)">
<path d="M4.20831 17.0833C3.79165 17.0833 3.43748 16.9375 3.14581 16.6458C2.85415 16.3542 2.70831 16 2.70831 15.5833V4.41667C2.70831 4 2.85415 3.64583 3.14581 3.35417C3.43748 3.0625 3.79165 2.91667 4.20831 2.91667H11.8333V4.16667H4.20831C4.15276 4.16667 4.0972 4.19444 4.04165 4.25C3.98609 4.30556 3.95831 4.36111 3.95831 4.41667V15.5833C3.95831 15.6389 3.98609 15.6944 4.04165 15.75C4.0972 15.8056 4.15276 15.8333 4.20831 15.8333H15.375C15.4305 15.8333 15.4861 15.8056 15.5416 15.75C15.5972 15.6944 15.625 15.6389 15.625 15.5833V7.95833H16.875V15.5833C16.875 16 16.7291 16.3542 16.4375 16.6458C16.1458 16.9375 15.7916 17.0833 15.375 17.0833H4.20831ZM6.66665 13.9583V12.7083H12.9166V13.9583H6.66665ZM6.66665 11.4583V10.2083H12.9166V11.4583H6.66665ZM6.66665 8.95833V7.70833H12.9166V8.95833H6.66665ZM14.375 7.08333V5.41667H12.7083V4.16667H14.375V2.5H15.625V4.16667H17.2916V5.41667H15.625V7.08333H14.375Z" fill="#FF00FF"/>
</g>
</svg>
