<svg width="16" height="16" viewBox="0 0 16 16" fill="none" xmlns="http://www.w3.org/2000/svg">
<path d="M9.25003 15.9168H6.7292C6.54864 15.9168 6.38892 15.8543 6.25003 15.7293C6.11114 15.6043 6.02781 15.4446 6.00003 15.2502L5.75003 13.3752C5.52781 13.3057 5.30225 13.2016 5.07337 13.0627C4.84392 12.9238 4.63198 12.7779 4.43753 12.6252L2.70837 13.3752C2.52781 13.4446 2.35087 13.4516 2.17753 13.396C2.00364 13.3404 1.86114 13.2293 1.75003 13.0627L0.500032 10.8752C0.40281 10.7085 0.375033 10.5313 0.416699 10.3435C0.458366 10.1563 0.548643 10.0071 0.687532 9.896L2.20837 8.75016C2.18059 8.62516 2.16337 8.50016 2.1567 8.37516C2.14948 8.25016 2.14587 8.12516 2.14587 8.00016C2.14587 7.88905 2.14948 7.771 2.1567 7.646C2.16337 7.521 2.18059 7.38905 2.20837 7.25016L0.687532 6.10433C0.548643 5.99322 0.458366 5.84405 0.416699 5.65683C0.375033 5.46905 0.40281 5.29183 0.500032 5.12516L1.75003 2.9585C1.84725 2.79183 1.98614 2.68072 2.1667 2.62516C2.34725 2.56961 2.52087 2.57655 2.68753 2.646L4.43753 3.37516C4.63198 3.22238 4.84392 3.08016 5.07337 2.9485C5.30225 2.81627 5.52781 2.7085 5.75003 2.62516L6.00003 0.750163C6.02781 0.555718 6.11114 0.395996 6.25003 0.270996C6.38892 0.145996 6.54864 0.0834961 6.7292 0.0834961H9.25003C9.44448 0.0834961 9.61114 0.145996 9.75003 0.270996C9.88892 0.395996 9.97225 0.555718 10 0.750163L10.25 2.62516C10.5 2.72239 10.7256 2.82988 10.9267 2.94766C11.1284 3.066 11.3334 3.2085 11.5417 3.37516L13.3125 2.646C13.4792 2.57655 13.6495 2.56961 13.8234 2.62516C13.9967 2.68072 14.1389 2.79183 14.25 2.9585L15.5 5.12516C15.5973 5.29183 15.625 5.46905 15.5834 5.65683C15.5417 5.84405 15.4514 5.99322 15.3125 6.10433L13.7709 7.271C13.7986 7.40988 13.8125 7.53488 13.8125 7.646V8.00016C13.8125 8.11127 13.8089 8.22572 13.8017 8.3435C13.795 8.46183 13.7778 8.59738 13.75 8.75016L15.2709 9.896C15.4236 10.0071 15.5209 10.1563 15.5625 10.3435C15.6042 10.5313 15.5695 10.7085 15.4584 10.8752L14.2084 13.0418C14.1111 13.2085 13.9723 13.3196 13.7917 13.3752C13.6111 13.4307 13.4306 13.4238 13.25 13.3543L11.5417 12.6252C11.3334 12.7918 11.1217 12.9377 10.9067 13.0627C10.6911 13.1877 10.4723 13.2918 10.25 13.3752L10 15.2502C9.97225 15.4446 9.88892 15.6043 9.75003 15.7293C9.61114 15.8543 9.44448 15.9168 9.25003 15.9168ZM8.00003 10.5002C8.69448 10.5002 9.28475 10.2571 9.77087 9.771C10.257 9.28488 10.5 8.69461 10.5 8.00016C10.5 7.30572 10.257 6.71544 9.77087 6.22933C9.28475 5.74322 8.69448 5.50016 8.00003 5.50016C7.30559 5.50016 6.71531 5.74322 6.2292 6.22933C5.74309 6.71544 5.50003 7.30572 5.50003 8.00016C5.50003 8.69461 5.74309 9.28488 6.2292 9.771C6.71531 10.2571 7.30559 10.5002 8.00003 10.5002ZM8.00003 9.25016C7.65281 9.25016 7.35781 9.1285 7.11503 8.88516C6.8717 8.64238 6.75003 8.34738 6.75003 8.00016C6.75003 7.65294 6.8717 7.35794 7.11503 7.11516C7.35781 6.87183 7.65281 6.75016 8.00003 6.75016C8.34725 6.75016 8.64225 6.87183 8.88503 7.11516C9.12837 7.35794 9.25003 7.65294 9.25003 8.00016C9.25003 8.34738 9.12837 8.64238 8.88503 8.88516C8.64225 9.1285 8.34725 9.25016 8.00003 9.25016ZM7.1667 14.6668H8.81253L9.1042 12.4377C9.53475 12.3266 9.92364 12.1668 10.2709 11.9585C10.6181 11.7502 10.9584 11.4863 11.2917 11.1668L13.3542 12.0418L14.1875 10.6252L12.375 9.271C12.4445 9.04877 12.4898 8.8335 12.5109 8.62516C12.5314 8.41683 12.5417 8.2085 12.5417 8.00016C12.5417 7.77794 12.5314 7.56627 12.5109 7.36516C12.4898 7.1635 12.4445 6.9585 12.375 6.75016L14.1875 5.37516L13.375 3.9585L11.2709 4.8335C10.9931 4.54183 10.6598 4.28127 10.2709 4.05183C9.88198 3.82294 9.49309 3.65989 9.1042 3.56266L8.83337 1.3335H7.18753L6.89587 3.56266C6.4792 3.65989 6.09031 3.81266 5.7292 4.021C5.36809 4.22933 5.02087 4.49322 4.68753 4.81266L2.62503 3.9585L1.81253 5.37516L3.6042 6.7085C3.53475 6.91683 3.48614 7.12516 3.45837 7.3335C3.43059 7.54183 3.4167 7.76405 3.4167 8.00016C3.4167 8.22238 3.43059 8.43766 3.45837 8.646C3.48614 8.85433 3.53475 9.06266 3.6042 9.271L1.81253 10.6252L2.62503 12.0418L4.68753 11.1668C5.00698 11.4863 5.34725 11.7502 5.70837 11.9585C6.06948 12.1668 6.46531 12.3266 6.89587 12.4377L7.1667 14.6668Z" fill="#FF24FB"/>
</svg>
