<svg width="24" height="24" viewBox="0 0 24 24" fill="none" xmlns="http://www.w3.org/2000/svg">
<mask id="mask0_2302_14609" style="mask-type:alpha" maskUnits="userSpaceOnUse" x="0" y="0" width="24" height="24">
<rect width="24" height="24" fill="white"/>
</mask>
<g mask="url(#mask0_2302_14609)">
<path d="M2.79999 20.8V4.3C2.79999 3.8 2.97499 3.375 3.32499 3.025C3.67499 2.675 4.09999 2.5 4.59999 2.5H14.975C15.475 2.5 15.9043 2.675 16.263 3.025C16.621 3.375 16.8 3.8 16.8 4.3V4.65C16.5 4.78333 16.225 4.94567 15.975 5.137C15.725 5.329 15.5 5.55 15.3 5.8V4.3C15.3 4.21667 15.271 4.14567 15.213 4.087C15.1543 4.029 15.075 4 14.975 4H4.59999C4.49999 4 4.42499 4.029 4.37499 4.087C4.32499 4.14567 4.29999 4.21667 4.29999 4.3V16.525L4.79999 16H14.975C15.075 16 15.1543 15.9707 15.213 15.912C15.271 15.854 15.3 15.7833 15.3 15.7V12.2C15.5 12.45 15.725 12.6707 15.975 12.862C16.225 13.054 16.5 13.2167 16.8 13.35V15.7C16.8 16.2 16.621 16.625 16.263 16.975C15.9043 17.325 15.475 17.5 14.975 17.5H6.07499L2.79999 20.8ZM6.54999 13.75H10.05V12.25H6.54999V13.75ZM18.8 11.75C18.05 11.75 17.4043 11.4833 16.863 10.95C16.321 10.4167 16.05 9.76667 16.05 9C16.05 8.23333 16.321 7.58333 16.863 7.05C17.4043 6.51667 18.05 6.25 18.8 6.25C19.0667 6.25 19.296 6.27933 19.488 6.338C19.6793 6.396 19.8667 6.49167 20.05 6.625V1.25H23.55V2.75H21.55V9C21.55 9.76667 21.2833 10.4167 20.75 10.95C20.2167 11.4833 19.5667 11.75 18.8 11.75ZM6.54999 10.75H13.05V9.25H6.54999V10.75ZM6.54999 7.75H13.05V6.25H6.54999V7.75Z" fill="white"/>
</g>
</svg>
