<svg width="104" height="186" viewBox="0 0 104 186" fill="none" xmlns="http://www.w3.org/2000/svg">
<path d="M89.6302 180.788C89.6302 180.788 88.5936 179.753 87.1425 180.719C85.6913 181.685 86.797 183.618 87.488 183.825C88.179 184.032 88.7165 185.106 89.5611 185.067C91.0813 184.998 91.1504 183.618 90.6667 182.721C90.4594 181.133 89.6302 180.788 89.6302 180.788Z" fill="#A39CFF"/>
<path d="M103.174 151.453C102.345 150.349 101.516 146.967 101.239 144.689C101.032 141.446 99.7189 139.237 99.7189 139.237C99.7189 139.237 99.5807 129.298 99.5807 129.091C99.5807 128.884 100.203 128.056 100.825 127.158C100.272 126.33 100.548 124.812 100.548 124.812C101.861 124.328 101.654 123.914 101.239 122.948C100.133 121.706 100.133 120.67 100.548 119.911C100.963 119.152 99.5116 116.805 99.5807 116.253C99.1392 115.689 98.2984 113.86 97.3425 111.74C98.2524 113.534 99.5807 116.184 99.5807 116.184C100.341 116.115 100.064 114.459 99.3043 113.423C98.8205 110.662 99.3734 111.698 100.41 111.146C101.446 110.593 100.825 110.317 100.755 109.351C98.7514 106.866 99.2352 105.141 99.5807 103.76C99.9262 101.552 99.5116 100.724 98.8205 100.102C97.6458 98.2388 97.784 96.0302 98.0604 95.0639C99.2352 93.2694 98.1986 93.2694 97.5767 92.9933C97.3694 92.1651 96.9548 90.2325 96.9548 90.2325C96.9548 90.2325 96.6093 88.3689 96.8166 87.1956C96.1256 86.0223 95.9182 85.125 95.8491 84.0897C96.1946 77.2567 93.085 78.223 93.085 78.223C93.085 78.223 92.9468 76.4284 92.8777 75.1171C93.0159 72.7013 91.5648 72.3562 90.8737 71.7351C91.5648 70.0786 91.0811 69.1813 90.5973 68.215C89.2153 66.1444 90.0445 64.626 90.39 63.5907C88.8007 62.3483 89.4917 60.1397 89.4917 60.1397C89.4917 60.1397 89.2844 60.1397 88.5243 59.7946C87.2804 58.4141 87.3495 57.2408 87.1422 55.7914C86.8658 53.3757 86.7967 54.2729 87.8332 53.2376C88.8698 52.2023 90.3209 54.549 90.9428 54.7561C91.5648 54.9631 91.6339 53.8588 91.5648 52.8235C90.5973 51.236 87.8332 48.1301 87.8332 48.1301C87.8332 48.1301 87.695 46.5427 87.8332 45.3693C85.8984 44.334 86.0366 43.0226 85.691 41.9183C85.7601 40.4689 85.5644 40.2273 85.0691 39.5716C84.6545 37.6391 84.7236 35.9826 84.309 34.4641C83.4798 33.4288 84.309 32.3245 84.4472 30.9441C84.5854 29.5637 85 29.4256 83.4107 29.0115C81.8213 28.5974 82.305 30.4609 82.305 30.4609C82.305 30.4609 81.7522 31.7033 81.1994 32.9457C80.5775 33.6359 80.3702 32.5315 80.0938 31.1511C79.3336 28.8735 78.919 29.3566 77.9516 28.9425C76.9841 28.5284 76.915 29.4256 76.915 30.668C75.9246 30.9978 75.3141 32.1404 75.2604 32.244C75.2067 32.2363 75.1644 32.2631 75.1376 32.3437C74.6769 32.8038 74.1471 32.6658 73.6634 32.3897C73.1796 32.1136 71.5212 31.7685 70.9684 30.6642C70.4155 28.3865 67.9969 29.0077 67.9969 29.0077C67.9969 29.0077 68.0661 29.6979 67.9278 31.5614C68.7571 31.8375 68.2043 32.8038 68.688 33.356C69.1717 33.9081 68.4116 35.9787 68.1352 37.4972C69.6554 37.7733 69.4481 39.2917 69.3099 39.9129C68.4807 40.8792 68.688 41.9145 68.4116 43.1568C66.5458 44.5372 60.7412 45.2274 60.7412 45.2274C60.7412 45.2274 60.603 45.6416 60.603 46.8149C59.8428 47.16 59.4973 48.7475 59.6355 49.7138C59.7737 50.68 59.5664 52.3365 59.5664 52.3365C59.981 52.7506 60.9485 53.993 61.0176 54.6142C61.0867 55.2354 59.912 57.5821 59.7046 57.9962C59.4973 58.4103 59.9811 59.8597 60.0502 61.6543C60.1154 63.3874 57.4857 65.2433 57.3014 65.3699C57.2861 65.3584 57.2707 65.343 57.2592 65.3354C56.7985 65.0133 56.0614 66.3937 55.3704 66.6237C53.8156 66.7196 51.4546 67.6399 51.4123 67.659C51.2588 67.3791 50.656 67.4136 49.7923 66.7157C47.8113 66.9918 47.4428 66.2096 47.2623 65.4274C47.3084 64.277 46.89 63.537 46.4331 62.7624C47.6347 60.3736 46.387 59.5875 45.8803 58.7132C45.3735 57.839 44.7746 56.7347 44.5904 55.2162C42.6094 54.3419 42.1487 52.9616 41.7341 51.9493C40.4481 52.3634 40.6285 53.0076 40.6285 53.8358C41.1391 54.016 40.6285 55.6763 40.6707 56.3665C40.7129 57.0567 42.237 59.3076 42.5634 59.9556C42.3829 60.4157 42.3292 61.9342 42.7438 62.3943C43.1584 62.8506 42.7438 63.5945 43.2083 64.5109C44.2218 65.5692 43.6229 65.8492 42.978 66.2134C41.3195 66.7656 41.0431 65.2471 40.9049 65.3852C40.9049 65.3852 40.8166 65.4159 40.6861 65.4696L40.7667 65.4312C40.7667 65.4312 41.1352 64.9251 41.3618 64.0968C39.2887 62.7164 38.6936 62.1642 38.5055 61.244C37.7223 60.5538 38.041 59.1273 37.9527 58.2071C37.8605 57.2868 37.1695 55.0743 37.3077 53.8818C37.4459 52.6855 36.6589 51.6732 36.2942 50.2007C35.7414 47.9001 36.2021 47.206 36.9392 46.3356C34.4515 45.1392 34.2711 43.3907 34.4093 40.9942C35.0081 39.4758 34.0369 39.7979 33.534 39.4758C31.553 39.3377 31.2305 38.0954 31.3227 37.4512C30.5395 37.037 28.9732 35.0124 28.4664 34.5523C28.2822 34.3836 27.9789 34.142 27.6487 33.8736C27.8253 33.9925 28.0326 34.1228 28.2822 34.2801C29.1575 35.1543 30.9042 37.317 31.2766 37.409C31.649 37.501 32.4322 36.0708 31.7872 35.2924C31.1384 34.5101 28.8388 33.5438 29.1152 31.6113C29.622 31.0131 32.6164 29.4065 30.6816 29.0384C29.7141 28.6204 28.5163 27.378 29.4377 26.3197C30.2669 25.9094 35.2001 24.9393 33.031 21.2122C32.6164 19.0496 32.7124 15.7366 35.1041 14.0801C35.1464 13.1138 35.2846 12.1897 35.6109 11.8255C35.5187 11.0432 35.7913 10.5371 34.7356 8.78858C34.6012 7.54622 34.7394 6.85601 35.9372 6.1658C36.1675 5.10366 36.6743 2.16263 35.108 2.07061C33.9563 1.97858 32.3861 1.97858 32.3861 1.97858C32.3861 1.97858 31.8793 0.552162 31.9715 0C31.9715 0 30.2247 0.0460093 29.5299 2.11662C29.0692 3.0829 28.2822 4.50548 26.3051 4.91961C24.328 5.33373 22.7117 6.76399 22.4852 7.36217C22.2549 7.95651 22.301 9.52863 24.0976 10.9512C24.374 11.6376 24.9268 13.4321 22.8538 14.3064C21.8863 14.4022 19.9515 13.9459 18.984 13.2979C18.7076 13.8922 17.7901 14.7703 19.2182 17.5311C19.675 18.8655 20.32 21.2544 17.8784 22.7307C16.9992 23.3288 15.2985 23.8887 14.1929 23.7928C13.0873 23.697 10.8722 24.7591 10.2771 26.2315C10.185 27.194 10.3731 28.536 9.49394 28.9003C9.21753 29.5905 7.23658 32.2593 8.61479 33.1796C9.35189 33.2218 9.95462 33.0415 9.54 34.8361C9.35573 35.7103 8.8912 36.1244 8.61479 37.4588C8.33838 38.7932 7.6512 39.6215 7.46693 40.0356C7.28265 40.4497 6.77206 41.5118 6.67992 42.1522C6.13094 43.0226 5.94667 44.3187 5.39385 43.9467C4.84103 43.5748 4.33043 43.2105 4.05402 43.6246C3.77761 44.0388 1.24769 46.6155 1.24769 46.6155C1.24769 46.6155 1.84274 48.3219 2.86009 49.0581C3.64325 49.6064 4.23829 49.7444 4.19606 50.6187C4.15383 51.493 4.01563 52.0413 3.32461 52.5513C2.63358 53.0612 2.53761 54.2998 2.44931 54.6219C1.76212 54.9938 -0.360867 55.6802 0.238022 57.3827C0.790843 58.487 1.15939 58.9932 1.06725 60.1435C0.975118 61.2938 1.15939 63.3223 1.71221 64.2425C2.26503 65.1628 2.82169 65.389 3.46665 65.853C4.11161 66.3131 5.08288 67.2296 5.26331 67.8776C5.28635 67.8623 5.30555 67.8469 5.32858 67.8316C5.30939 67.9428 5.20958 68.541 5.33243 69.5341C7.54371 69.9482 7.75101 70.9145 8.09652 72.64C7.75101 74.8486 8.30383 75.6769 10.3769 77.1953C12.45 78.7138 13.2101 80.3012 13.832 80.6463C14.454 80.9914 13.9702 82.3028 14.1775 83.6142C14.9377 84.1664 15.836 86.168 16.3888 87.3413C17.149 87.1343 19.4985 87.8244 19.4985 87.8244V87.8206C19.89 88.2808 21.6445 87.974 22.2127 87.7094C22.6273 86.7431 24.1475 85.5928 25.5296 84.6265C27.9712 84.0743 26.6775 85.5506 27.0959 86.793C27.5911 88.2539 28.7966 87.9395 30.2746 87.8513C31.7526 87.7593 31.2421 88.4955 32.4398 88.5875C33.6376 88.6834 33.2691 89.3199 34.7893 89.7839C36.3096 90.244 36.3556 88.8176 36.4938 87.1151C36.6321 85.4126 34.9275 84.2622 34.0062 83.2078C34.6051 83.1157 34.7893 82.2875 35.3421 81.5934C35.2961 79.7529 35.7107 79.1087 36.1714 78.9285C37.8759 78.8863 38.2867 78.476 38.8433 78.384C38.8165 78.4339 38.7973 78.4684 38.7973 78.4684C42.4827 77.7322 42.621 78.6984 43.8187 79.0205C45.0203 79.3426 46.2104 81.7353 46.3986 82.0114C46.5828 82.2875 46.9053 82.4255 47.5963 82.8857C47.604 82.8818 47.6117 82.8703 47.6194 82.8665C48.1914 83.595 49.727 84.5498 50.5946 85.0483C51.4699 85.5544 52.6216 86.3367 52.898 86.9809C53.1744 87.6251 53.0823 89.6496 53.2666 89.8375C53.447 90.0216 55.7543 91.8621 56.2649 92.0884C56.0844 93.649 56.5873 93.3767 57.4626 94.297C58.8447 95.9957 58.9368 99.5886 58.7065 100.509C58.4762 101.429 58.3379 101.751 59.7661 102.349C61.1903 102.948 60.1807 104.374 60.0002 105.478C59.8198 106.583 60.7834 107.273 60.9216 106.997C61.0598 106.721 61.4744 106.491 62.1655 106.445C63.8239 106.763 63.179 108.285 63.0868 109.205C62.438 111.456 63.4592 112.062 64.4267 112.38C65.3941 112.699 64.657 115.279 64.7952 115.693C64.9334 116.107 65.7626 117.17 65.7626 117.17L66.039 119.194C68.3885 119.792 67.8357 120.203 68.02 121.633C65.993 121.863 67.1908 124.716 68.5267 125.18C68.5344 125.184 68.5459 125.184 68.5536 125.187C68.5229 125.184 68.5075 125.18 68.5075 125.18C68.5075 125.18 67.6783 127.733 67.2637 128.7C66.1581 129.528 66.373 130.862 67.0564 130.977C69.7514 131.461 70.0969 134.221 70.0969 134.221C70.0969 134.221 70.7879 136.016 71.4099 137.327C72.3773 137.603 72.6537 139.191 72.4464 140.088C71.548 140.502 71.1334 145.196 70.5806 145.679C70.2389 145.863 69.9664 146.331 69.7706 146.818C69.9011 145.084 69.2677 144.716 68.9068 144.624C69.141 144.536 69.3521 144.421 69.4519 144.321C69.7284 144.045 71.2486 140.272 71.2947 139.766C71.3407 139.26 71.8936 137.972 71.0643 137.235C70.2351 136.499 70.189 138.202 69.7744 139.858C69.3598 141.515 69.498 141.196 67.9317 142.481C66.3654 143.765 67.8434 144.551 67.8434 144.551C67.947 144.762 68.235 144.785 68.5421 144.728C68.4077 144.969 68.4039 145.51 68.3041 145.978C68.1659 146.622 67.2407 146.944 65.9546 148.739C64.6685 150.533 66.3846 152.124 66.922 152.328C68.1659 152.788 68.949 150.533 69.3636 149.015C69.4251 148.789 69.4788 148.578 69.5249 148.374C70.0969 150.353 72.7497 151.377 73.3524 151.963C74.9418 154.103 73.4215 161.557 73.4215 161.557C77.0148 165.284 79.0188 168.114 79.0188 168.114C81.5756 170.806 83.856 175.844 84.1324 177.432C85.5836 177.363 87.0347 179.71 87.0347 179.71C87.0347 179.71 87.1729 178.812 87.3111 176.742C86.2746 175.361 86.8965 174.947 85.86 172.946C84.8234 170.944 84.8234 166.32 84.547 165.215C79.3643 162.524 80.5391 159.763 80.6773 157.968C81.9902 157.209 81.7138 155.483 81.3683 154.448C79.2952 152.516 80.6082 150.307 81.2992 148.858C81.6447 147.201 83.5105 148.029 84.4779 148.858C84.4088 147.27 85.7218 147.408 86.551 147.339C86.551 147.331 86.5472 147.328 86.5433 147.32C86.8812 147.316 87.4608 146.76 87.5146 146.373C87.5837 145.89 88.2747 144.44 89.2421 144.095C90.2096 143.75 91.0388 146.304 91.0388 146.304C91.0388 146.304 91.5916 145.752 92.6282 146.373C93.6647 146.994 93.5265 149.755 93.5265 149.755C93.5265 149.755 93.872 149.686 94.2175 149.893C95.5996 150.514 96.0833 150.721 96.7743 150.514C97.0507 149.548 98.2255 149.893 98.7783 150.376C99.262 151.894 99.8839 152.032 100.229 152.101C100.575 152.171 100.921 155.276 101.542 156.105C102.164 156.933 103.201 155.76 103.615 155.276C104.003 154.766 104.003 152.558 103.174 151.453Z" fill="#A39CFF"/>
<path d="M48.2371 90.6474C46.5095 89.267 46.0949 86.5752 45.5421 84.5736C43.9527 82.1579 43.3308 83.3312 41.8105 84.7806C40.2903 86.2301 40.6358 87.4724 40.8431 88.1626C41.0504 88.8528 40.1521 93.6843 41.5341 94.5815C42.9162 95.4788 43.2617 97.3423 43.3999 98.2396C43.5381 100.034 46.5095 100.379 46.5095 100.379C46.7859 99.689 48.4444 99.2059 49.8264 98.7227C51.2085 98.2396 51.4158 96.0309 51.1394 95.6168C50.863 95.2027 48.5826 91.9588 48.2371 90.6474Z" fill="#A39CFF"/>
<path d="M40.9816 80.2241C38.563 79.948 37.872 79.2578 37.872 79.2578C36.3517 80.5692 37.181 82.5017 38.9776 82.5017C40.7743 82.5017 41.1198 81.2594 40.9816 80.2241Z" fill="#A39CFF"/>
<path d="M31.2386 90.2326C28.0599 90.0945 29.3728 92.3722 29.4419 93.4765C29.511 94.5809 32.2751 96.4444 32.2751 96.4444C32.2751 96.4444 33.1735 96.0303 33.3808 94.7879C33.1735 92.0271 32.1369 91.0608 31.2386 90.2326Z" fill="#A39CFF"/>
<path d="M32.0674 99.1355C32.0674 98.2382 30.8236 97.0649 29.9252 96.0296C29.8561 94.166 28.2668 91.5433 27.092 90.1628C26.1937 87.8852 24.8116 89.1275 23.6369 90.784C22.4621 92.4405 23.9824 94.5802 24.3279 95.2013C24.6734 95.8225 23.4296 97.0649 23.7751 99.0665C25.5718 99.9637 23.5678 101.62 24.1206 102.172C24.6734 102.725 24.6043 103.898 24.0515 104.795C23.0841 106.314 23.8442 108.108 23.7751 108.729C23.706 109.35 20.6655 111.559 20.1127 112.18C19.5598 112.801 19.9745 117.426 19.9745 117.426H21.7711L23.2914 115.907L26.8847 113.768C26.8847 113.768 27.6448 112.801 27.9213 112.111C30.2707 112.111 29.7179 110.041 29.7179 110.041C29.7179 110.041 32.2747 105.761 32.2056 105.347C32.1365 104.933 32.0674 100.033 32.0674 99.1355Z" fill="#A39CFF"/>
</svg>
