<svg width="12" height="16" viewBox="0 0 12 16" fill="none" xmlns="http://www.w3.org/2000/svg">
<path d="M6 15.5625C5.90278 15.5625 5.80917 15.5486 5.71917 15.5208C5.62861 15.493 5.54861 15.4375 5.47917 15.3541L0.875 10.75C0.75 10.6388 0.6875 10.4963 0.6875 10.3225C0.6875 10.1491 0.75 9.99996 0.875 9.87496C1 9.76385 1.14944 9.70829 1.32333 9.70829C1.49667 9.70829 1.64583 9.76385 1.77083 9.87496L5.375 13.5V0.666626C5.375 0.48607 5.43417 0.336626 5.5525 0.218293C5.67028 0.100515 5.81944 0.041626 6 0.041626C6.18056 0.041626 6.33 0.100515 6.44833 0.218293C6.56611 0.336626 6.625 0.48607 6.625 0.666626V13.5L10.25 9.87496C10.3611 9.76385 10.5036 9.70468 10.6775 9.69746C10.8508 9.69079 11 9.74996 11.125 9.87496C11.25 9.99996 11.3125 10.1491 11.3125 10.3225C11.3125 10.4963 11.25 10.6388 11.125 10.75L6.52083 15.3541C6.45139 15.4375 6.37167 15.493 6.28167 15.5208C6.19111 15.5486 6.09722 15.5625 6 15.5625Z" fill="#2C79BE"/>
</svg>
