<svg width="120" height="118" viewBox="0 0 120 118" fill="none" xmlns="http://www.w3.org/2000/svg">
<path d="M116.188 96.653C114.322 98.5855 114.184 100.656 114.184 100.656C115.497 100.932 117.086 100.035 118.261 98.5855C119.435 97.1361 119.021 95.8247 118.675 94.9275C118.192 94.5824 118.053 94.7204 116.188 96.653Z" fill="#8CF0FE"/>
<path d="M119.021 79.6049C118.537 79.1218 117.985 79.3288 117.224 80.9853C116.464 82.6418 117.988 83.0483 118.606 82.9869C120.058 82.8489 119.505 80.0881 119.021 79.6049Z" fill="#8CF0FE"/>
<path d="M113.838 81.0546L110.314 76.9824C110.314 76.9824 110.452 76.6373 110.729 75.1188C106.375 72.7031 105.822 69.5282 105.269 68.2858C104.717 67.0435 103.335 65.525 101.469 65.5941C99.6031 65.6631 100.087 69.2521 100.087 70.3565C98.0137 72.4961 99.1193 73.4624 100.156 74.5667C101.607 74.8428 100.778 76.2922 100.778 76.2922C100.778 76.2922 101.538 75.0498 102.298 74.8428C103.887 74.7738 104.233 79.3981 104.44 80.1573C104.648 80.9166 106.444 84.1605 106.582 85.679C106.721 87.1974 104.233 92.581 104.095 93.1331C103.957 93.6853 101.262 96.5841 101.262 96.5841C101.262 96.5841 101.262 96.7912 102.505 97.5504C104.44 100.104 101.883 99.9661 101.331 101.001C100.778 102.037 101.676 102.175 102.298 101.692C102.92 101.209 104.164 101.692 104.164 101.692C104.164 101.692 104.095 102.796 103.68 103.417C102.92 104.521 103.058 105.212 103.058 105.212C103.058 105.212 103.887 103.762 104.993 103.417C106.099 103.072 105.961 105.074 105.961 105.074L106.721 104.867L107.066 105.695L109.001 103.141L109.208 104.59C109.208 104.59 111.558 100.104 112.456 98.8618C113.354 97.6194 114.046 90.9245 114.046 90.9245C114.046 90.9245 114.737 89.6821 115.428 88.0257C114.46 86.3001 113.838 81.0546 113.838 81.0546Z" fill="#8CF0FE"/>
<path d="M102.437 92.3043C102.575 91.407 104.095 89.8196 104.856 88.2321C105.685 85.4023 104.165 83.4697 104.026 83.0556C103.888 82.6415 102.852 79.2595 102.161 78.4312C100.779 77.672 100.986 80.4328 101.815 81.3991C102.644 82.3654 102.575 85.8854 102.23 88.0251C101.608 90.1647 100.848 95.4102 100.848 95.4102C101.953 95.8934 102.299 93.2016 102.437 92.3043Z" fill="#8CF0FE"/>
<path d="M97.8059 74.0829C97.7368 73.5307 97.2531 72.6335 96.6311 72.5645C95.1109 74.0829 97.4604 74.7731 97.875 75.8774C98.2896 76.9817 99.3952 78.3622 99.3952 78.3622C100.086 78.2931 99.3261 76.7057 99.3261 76.7057L99.5335 75.3943C99.5335 75.3943 97.875 74.635 97.8059 74.0829Z" fill="#8CF0FE"/>
<path d="M105.96 65.5939C105.96 65.5939 106.029 64.3515 106.029 63.7994C106.029 63.2472 105.545 61.3147 104.993 61.0386C104.44 60.7625 103.887 62.2809 104.163 63.7994C104.44 65.3178 105.96 65.5939 105.96 65.5939Z" fill="#8CF0FE"/>
<path d="M99.9489 55.3796C99.0505 55.2415 98.9814 58.2784 98.9814 58.2784L100.64 59.8659C101.331 59.3827 100.294 56.5529 99.9489 55.3796Z" fill="#8CF0FE"/>
<path d="M99.8796 65.4558C100.778 64.0754 100.225 63.0401 99.5341 62.764C98.8431 62.4879 98.3594 64.0064 98.3594 64.0064L99.8796 65.4558Z" fill="#8CF0FE"/>
<path d="M100.64 82.5038C100.64 82.5038 100.167 83.0713 99.6145 83.6656C99.9139 83.1978 100.19 82.7185 100.501 82.4348C100.847 80.3642 99.2575 81.0544 98.9811 80.0191C98.7047 78.9838 97.3226 77.9485 96.0096 76.9822C94.3512 74.1523 95.595 72.979 96.2169 71.7366C96.1479 70.4943 97.6681 69.2519 98.7046 68.4927C99.7412 67.7335 99.1193 67.3884 98.4973 66.3531C97.599 65.0417 97.9445 62.902 97.9445 61.8667C96.5625 61.4526 96.908 60.8314 98.0827 60.7624C99.2575 60.6934 98.0827 59.382 97.3226 58.8299C96.4934 59.0369 95.8023 59.175 94.9731 59.244C94.9424 59.2478 94.904 59.244 94.8694 59.2401C95.714 59.1865 96.7007 58.8989 96.7007 58.8989C96.7007 58.8989 97.4608 58.7608 97.7372 57.6565C96.286 56 96.8389 55.793 97.1153 54.7577C98.2209 52.8251 97.3917 52.687 97.3917 52.687C97.3917 52.687 97.1153 50.8235 97.4608 48.6839C96.4934 44.5427 97.3917 43.5764 97.599 41.7818C97.8063 39.9873 97.2535 39.9873 97.2535 39.9873C97.2535 39.9873 93.1764 39.9183 91.1725 40.0563C89.2261 37.909 86.0358 39.6729 85.2258 39.7764C85.2028 39.7496 84.6576 39.0824 83.6403 38.6069C82.1891 38.5379 81.5672 38.1928 81.2217 37.7096C81.0835 35.9841 80.3925 36.3292 79.4941 36.1222C79.4711 36.1299 79.4481 36.1413 79.425 36.149C79.3713 34.3967 80.1851 34.1896 80.1851 34.1896L80.3234 32.3951L72.8603 27.7017C72.8603 27.7017 69.8198 26.9425 68.3686 26.8044C67.0557 25.7691 64.9826 25.0099 64.9826 25.0099L63.1974 22.9508C63.2166 22.9393 63.2358 22.924 63.255 22.9125C62.7022 21.394 61.4123 19.9216 60.8096 19.3234C59.7039 18.9515 59.5235 18.591 59.2471 18.2651C58.6021 18.4952 57.4504 18.5872 56.5252 18.6332C55.5578 18.4952 54.2717 18.5412 53.7611 18.8173C53.1353 19.1585 51.546 19.0665 50.4902 18.8633C47.7261 17.5289 47.0812 18.2613 46.5284 18.1731C45.2423 16.6125 44.8661 16.2405 43.9447 15.9644C41.6643 13.196 40.6009 13.242 40.1172 13.2918C39.476 11.8309 38.4817 11.0218 36.3242 10.3316C34.1705 9.64141 27.8937 10.0555 26.5692 9.9175C25.2985 8.26101 23.6362 7.95808 23.1141 7.682C22.8108 6.94195 22.6189 5.389 22.5037 4.64512C22.3924 3.90507 21.5938 2.49014 21.4556 2.21406C20.8759 1.63122 19.6283 0.588251 16.8641 0.143453C14.1 -0.301344 12.6873 0.392697 12.0577 0.806819C10.8599 1.72709 10.5259 1.26312 10.5259 1.26312C10.5259 1.26312 10.4568 1.8843 10.3186 2.71255C9.69667 3.54079 10.3877 3.67883 10.9405 4.36903C11.4741 5.97184 9.29358 6.92661 9.15537 6.98797C8.62942 6.94195 7.56217 8.10763 6.62929 8.41822C5.61578 8.51025 4.46407 7.40975 4.2798 7.54779C4.09553 7.68583 3.72698 7.96192 3.58877 8.14214C3.45057 8.32236 2.89775 8.37604 2.34493 8.55626C2.62134 8.59844 3.03595 10.3086 3.03595 11.1369C3.03595 11.9651 2.42555 12.4597 1.88808 12.6093C3.96116 15.1362 2.11842 17.7168 1.84201 18.2689C1.5656 18.8211 1.01278 19.1432 0.459961 19.7414C0.644234 22.0421 2.02629 21.766 2.90159 21.812C5.75783 21.2598 4.72897 22.391 5.00538 23.1502C5.41999 24.2545 5.89987 23.6334 6.7982 23.2883C8.18026 23.2192 7.97295 25.5659 7.97295 25.5659C7.97295 25.5659 7.98447 25.5582 8.00366 25.5467C7.94607 25.7001 7.88465 25.9455 7.97295 26.0951C10.5988 25.309 10.1842 27.1074 10.5528 27.4333C10.9213 27.7554 12.6681 27.8014 13.8236 27.7516C16.3113 28.0698 16.772 29.0399 16.1309 30.0561C15.4859 31.0684 11.4741 32.9089 11.2937 33.231C11.1133 33.5531 10.4184 34.7916 10.0499 34.9795C9.68132 35.1636 8.84825 35.6237 7.65431 36.636C6.18012 38.1084 7.83858 39.949 8.89816 40.7772C9.95773 41.6055 12.7218 42.9859 12.7218 42.9859C12.5836 42.2496 12.9061 41.6055 13.2747 41.3294C14.1039 40.4091 15.3477 41.8815 15.3477 41.8815C15.3477 41.8815 15.3592 41.8739 15.3708 41.8662L15.4437 42.2496C16.2307 42.0656 18.1118 41.8815 18.6224 41.9736C20.1005 43.1699 20.5995 42.9399 21.4787 43.0357C23.4634 43.423 22.7417 45.2022 22.6419 45.4284L22.6304 45.4246C22.6304 45.4246 21.6629 46.4829 20.5573 46.3909C20.2809 47.1769 20.2809 48.1931 17.2404 49.7077C17.2404 49.7077 16.9179 50.812 17.6089 51.7323C17.5629 52.6525 17.1022 53.5728 16.3651 54.217C16.3651 54.9992 16.6837 55.7354 16.8718 56.2876C17.0561 56.8398 16.6415 57.2002 17.3325 57.2961C18.0235 57.3919 19.1292 57.3421 19.5438 58.9986C19.8663 59.8268 20.1388 60.6589 21.8472 61.5293C21.9393 62.4496 21.8472 65.0723 21.8472 65.0723C21.8472 65.0723 22.9221 65.2602 23.8819 65.0493C22.9989 65.3177 22.2158 65.2372 21.9432 65.1184C21.5286 64.9381 21.5286 65.1605 20.5611 65.8507C19.0869 66.9551 20.2387 67.8792 20.6034 68.4735C20.9719 69.0678 21.6668 69.8117 21.6169 70.5441C20.6034 71.5526 21.9854 74.7313 21.8933 75.3334C21.8011 75.9315 21.5708 75.7475 21.1101 76.5297C22.0776 77.3579 23.5978 81.5452 23.4135 81.9133C23.2293 82.2814 22.4 84.26 22.9989 84.9962C23.5978 85.7324 23.6439 87.3851 23.5057 88.2133C23.045 88.7195 22.8146 90.1919 23.187 90.5178C23.5594 90.8399 24.8455 92.5884 24.9837 92.9067C25.1219 93.2249 26.2698 94.6092 27.195 96.7718C28.1202 98.9345 26.5462 100.683 26.1815 101.699C25.8129 102.711 27.6557 106.803 27.7939 107.815C27.3793 108.229 26.5078 108.965 27.4253 109.291C28.3467 109.613 28.435 110.764 27.9781 111.5C27.0107 112.926 27.886 113.751 28.3467 113.847C28.8035 113.943 28.3467 115.131 28.4849 115.683C29.7287 115.959 30.1011 117.34 30.1011 117.34C30.1011 117.34 32.4506 116.696 33.0457 116.374C34.1513 115.269 34.8116 116.071 35.303 116.144C37.7715 116.282 38.4549 110.185 37.9136 109.813C37.9827 109.575 38.5048 107.853 39.1497 109.011C39.7717 109.702 41.0846 110.185 41.361 108.045C41.2228 106.389 39.2879 103.283 42.6049 103.49C44.1942 103.628 44.8161 103.352 45.2308 104.801C45.6454 106.251 46.1291 108.045 47.442 106.803C48.755 105.56 49.446 103.559 51.5191 104.732C51.9337 105.767 51.3809 107.286 51.5191 107.769C52.0719 107.355 53.1085 106.941 53.1085 106.941C53.1085 106.941 52.8743 106.12 52.6478 105.085C52.905 106.155 53.1776 106.987 53.1776 106.987C54.7439 106.807 54.145 109.291 54.3254 109.241C54.5059 109.195 55.1547 109.057 55.4771 109.149C55.7996 109.245 56.3524 109.518 56.6749 109.606C56.9936 109.698 57.0473 108.045 57.0473 108.045C57.0473 108.045 57.3659 107.999 57.8765 107.171C58.1529 105.008 59.7154 104.916 60.3182 104.824C60.9171 104.732 60.226 104.272 60.6867 102.247C61.1436 100.223 61.562 101.047 62.1647 101.323C63.1283 101.768 63.3126 103.302 64.0036 103.766C64.6946 104.226 64.5564 102.566 64.5564 102.063C64.5564 101.561 65.4817 99.7167 65.9385 98.9805C66.3378 98.3363 65.9347 99.6553 66.2571 99.8509C65.6851 100.748 66.6103 104.138 67.3474 104.943C68.1076 105.771 68.2458 107.221 68.2458 107.221C68.2458 107.221 69.1441 106.876 69.9733 106.116C70.1806 105.081 71.3554 103.908 71.9082 103.632C72.461 103.356 74.7414 101.492 74.7414 100.25C74.7414 99.0763 75.4171 96.86 75.7856 95.6253C75.8202 95.6368 75.8547 95.6407 75.8893 95.6483C75.728 96.1813 74.8681 99.0802 74.7414 100.457C74.6032 101.975 71.9082 103.701 71.9082 103.701C72.6683 103.632 72.5992 105.15 72.1846 106.323C71.0099 108.256 72.3228 108.187 73.0138 108.394C73.7049 108.601 73.774 111.5 73.3594 112.121C72.9447 112.742 72.3228 113.847 73.0829 114.054C73.8431 114.261 72.8756 114.744 73.774 115.572C74.6723 116.4 74.6032 114.399 74.6032 114.399C74.6032 114.399 74.9487 111.707 75.5015 111.086C76.0544 110.465 76.3308 111.362 77.5055 112.19C77.5055 112.19 77.5055 112.19 77.5746 111.776C77.6437 111.362 78.8185 111.086 78.8185 111.086C78.8185 111.086 79.4404 112.397 80.7533 113.916C82.0663 115.434 82.2736 113.156 82.55 112.19C84.0703 111.707 83.1719 110.189 83.3101 108.601C84.0012 105.288 86.0051 107.566 86.2124 106.807C86.4197 106.047 89.2529 103.839 89.5294 102.941C89.7981 102.067 90.3317 102.504 91.2569 102.397C91.2569 102.435 91.2569 102.458 91.2569 102.458C91.6715 102.32 91.1878 103.01 92.1553 103.908C93.1227 104.805 93.6755 103.494 93.8137 102.113C93.8137 101.009 94.7121 100.25 95.4031 98.6622C95.6104 97.1438 96.5087 96.7987 97.1306 96.5226C97.7526 96.2465 98.3745 95.1422 98.72 94.3829C99.6874 94.1069 100.033 93.4167 100.586 92.3814C101.139 91.3461 101.415 88.8613 101.622 86.6527C101.538 82.9869 100.64 82.5038 100.64 82.5038Z" fill="#8CF0FE"/>
</svg>
