<svg width="24" height="24" viewBox="0 0 24 24" fill="none" xmlns="http://www.w3.org/2000/svg">
<path d="M24 12C24 15.2925 22.6734 18.2752 20.5266 20.4436C18.352 22.6397 15.3347 21.388 12 21.388C8.66531 21.388 5.64797 22.6397 3.47344 20.4436C1.32656 18.2752 0 15.2925 0 12C0 5.37281 5.37281 0 12 0C18.6272 0 24 5.37281 24 12Z" fill="#90DFAA"/>
<path d="M24.0002 12C24.0002 11.6376 23.9841 11.279 23.9526 10.9247L16.7706 3.74268L7.375 11.8159L15.8103 20.2511L16.6544 21.7381C18.115 21.7825 19.4284 21.5529 20.5268 20.4436C22.6736 18.2752 24.0002 15.2925 24.0002 12Z" fill="#90DFAA"/>
<path d="M11.9997 1.64366C10.3613 1.45082 4.49277 3.02596 6.25091 9.91879C6.71309 11.7296 8.57403 12.8752 9.39294 13.1738C10.6448 13.6301 10.764 12.9153 11.9997 12.1704C13.2355 12.9153 13.3546 13.6301 14.6065 13.1738C15.4254 12.8752 17.2863 11.7296 17.7485 9.91879C19.5066 3.02596 13.6381 1.45082 11.9997 1.64366Z" fill="#515151"/>
<path d="M17.7488 9.9187C17.2866 11.7295 15.4256 12.8751 14.6067 13.1737C13.3547 13.6303 13.2356 12.9154 12 12.1701V1.64339C13.6383 1.45073 19.507 3.02573 17.7488 9.9187Z" fill="#3D3D3D"/>
<path d="M9.37402 11.7296H14.6268V17.3002H9.37402V11.7296Z" fill="#EAA678"/>
<path d="M12 11.7299H14.6264V17.3005H12V11.7299Z" fill="#D38C5B"/>
<path d="M9.37402 15.2261H14.6268V20.7967H9.37402V15.2261Z" fill="#FFC397"/>
<path d="M12 15.2261H14.6264V20.7967H12V15.2261Z" fill="#EAA678"/>
<path d="M20.5268 17.9592V20.4436C18.3522 22.6397 15.3349 24 12.0002 24C8.66551 24 5.64816 22.6397 3.47363 20.4436V17.9592C3.47363 16.4499 4.69707 15.226 6.20644 15.226H9.37379L12.0002 18.5902L14.6266 15.226H17.7939C19.3033 15.226 20.5268 16.4499 20.5268 17.9592Z" fill="#DD4571"/>
<path d="M20.5266 17.9592V20.4436C18.352 22.6397 15.3347 24 12 24V18.5902L14.6264 15.226H17.7937C19.3031 15.226 20.5266 16.4499 20.5266 17.9592Z" fill="#C12156"/>
<path d="M14.1273 19.7238C14.1273 19.7238 13.3926 20.1724 13.4787 21.0481C13.5648 21.9238 14.6282 22.694 14.6282 22.694C14.6282 22.694 16.328 21.163 15.6627 19.7238L14.9396 19.4458L14.1273 19.7238Z" fill="#3D3D3D"/>
<path d="M16.137 7.13556C15.9623 4.48244 13.8162 3.50195 12.0003 3.50195C10.1843 3.50195 8.03826 4.48244 7.86351 7.13556C7.39392 7.22641 7.06036 7.8423 7.11286 8.3403L7.19334 9.47359C7.24842 9.99658 7.70812 10.3783 8.21475 10.3215L8.30212 10.312C9.33989 13.0986 10.9673 13.3891 12.0003 13.5523C13.0333 13.3892 14.6607 13.0986 15.6984 10.312L15.7858 10.3215C16.2924 10.3783 16.7521 9.99658 16.8072 9.47359L16.8877 8.3403C16.9402 7.8423 16.6066 7.22641 16.137 7.13556Z" fill="#FFC397"/>
<path d="M16.8875 8.3403L16.807 9.47359C16.7519 9.99658 16.2922 10.3783 15.7856 10.3215L15.6982 10.312C15.3435 11.2633 14.9205 11.924 14.4758 12.3875C13.6184 13.282 12.6805 13.4447 12 13.5522V3.50195C13.8159 3.50195 15.962 4.48244 16.1368 7.13556C16.6064 7.22641 16.94 7.8423 16.8875 8.3403Z" fill="#EAA678"/>
<path d="M11.9998 2.48834C9.23946 1.88623 7.27385 3.6267 7.2304 5.62948C7.18657 7.64914 8.7439 9.1138 8.7439 9.1138C8.71751 7.45081 9.24542 6.76452 10.2749 6.395C11.0672 6.11061 11.7343 5.32634 11.9998 4.97989C12.2654 5.32634 12.9325 6.11061 13.7248 6.395C14.7543 6.76456 15.2822 7.45086 15.2558 9.1138C15.2558 9.1138 16.8132 7.64914 16.7693 5.62948C16.7258 3.6267 14.7602 1.88623 11.9998 2.48834Z" fill="#515151"/>
<path d="M16.7695 5.6297C16.8131 7.64908 15.2559 9.11392 15.2559 9.11392C15.2822 7.45079 14.7544 6.76454 13.725 6.39517C12.9328 6.11064 12.2653 5.32642 12 4.98001V2.48814C14.7605 1.88626 16.7259 3.62673 16.7695 5.6297Z" fill="#3D3D3D"/>
<path d="M16.6948 13.9005C17.339 12.6576 16.682 11.2255 16.682 11.2255L14.8732 12.4825C14.7755 12.5503 14.6868 12.6308 14.611 12.7224C13.9278 13.5472 14.1692 14.2369 14.5107 14.6821C14.444 14.7473 14.3823 14.8177 14.3271 14.8932C13.761 15.6687 14.0023 16.3156 14.33 16.7382C14.3084 16.7593 14.2876 16.7812 14.2678 16.8042C12.9931 18.2893 14.7262 19.3458 14.7262 19.3458C16.7772 18.5322 16.7134 16.8589 16.5034 15.9556C16.8838 15.228 16.8165 14.4345 16.6948 13.9005Z" fill="#3D3D3D"/>
<path d="M15.6349 19.8283H14.1886C13.9955 19.8283 13.8389 19.6717 13.8389 19.4786V18.9352C13.8389 18.7421 13.9955 18.5854 14.1886 18.5854H15.6349C15.8281 18.5854 15.9847 18.7421 15.9847 18.9352V19.4786C15.9847 19.6717 15.8281 19.8283 15.6349 19.8283Z" fill="#258258"/>
</svg>
