<svg width="24" height="24" viewBox="0 0 24 24" fill="none" xmlns="http://www.w3.org/2000/svg">
<g clip-path="url(#clip0_809_171)">
<path d="M24 12C24 15.2925 22.6734 18.2752 20.5266 20.4436C18.352 22.6397 15.3347 21.388 12 21.388C8.66531 21.388 5.64797 22.6397 3.47344 20.4436C1.32656 18.2752 0 15.2925 0 12C0 5.37281 5.37281 0 12 0C18.6272 0 24 5.37281 24 12Z" fill="#90DFAA"/>
<path d="M24 12C24 11.6376 23.9839 11.279 23.9525 10.9247L16.7704 3.74268L7.37485 11.8159L15.8101 20.2511L16.6543 21.7381C18.1149 21.7825 19.4283 21.5529 20.5266 20.4436C22.6734 18.2752 24 15.2925 24 12Z" fill="#90DFAA"/>
<path d="M12 1.64366C10.3616 1.45082 4.49307 3.02596 6.25121 9.91879C6.7134 11.7296 8.57434 12.8752 9.39324 13.1738C10.6451 13.6301 10.7643 12.9153 12 12.1704C13.2358 12.9153 13.3549 13.6301 14.6068 13.1738C15.4257 12.8752 17.2866 11.7296 17.7488 9.91879C19.5069 3.02596 13.6384 1.45082 12 1.64366Z" fill="#515151"/>
<path d="M17.7488 9.91895C17.2866 11.7297 15.4256 12.8754 14.6067 13.1739C13.3547 13.6305 13.2356 12.9157 12 12.1704V1.64363C13.6383 1.45098 19.507 3.02598 17.7488 9.91895Z" fill="#3D3D3D"/>
<path d="M9.3736 11.7295H14.6264V17.3001H9.3736V11.7295Z" fill="#EAA678"/>
<path d="M12 11.73H14.6264V17.3006H12V11.73Z" fill="#D38C5B"/>
<path d="M9.3736 15.2261H14.6264V20.7967H9.3736V15.2261Z" fill="#FFC397"/>
<path d="M12 15.2261H14.6264V20.7967H12V15.2261Z" fill="#EAA678"/>
<path d="M20.5266 17.9594V20.4437C18.352 22.6398 15.3347 24.0001 12 24.0001C8.66532 24.0001 5.64798 22.6398 3.47345 20.4437V17.9594C3.47345 16.45 4.69689 15.2261 6.20626 15.2261H9.37361L12 18.5903L14.6264 15.2261H17.7938C19.3031 15.2261 20.5266 16.45 20.5266 17.9594Z" fill="#DD4571"/>
<path d="M20.5266 17.9594V20.4437C18.352 22.6398 15.3347 24.0001 12 24.0001V18.5903L14.6264 15.2261H17.7937C19.3031 15.2261 20.5266 16.45 20.5266 17.9594Z" fill="#C12156"/>
<path d="M14.1278 19.7238C14.1278 19.7238 13.3931 20.1724 13.4791 21.0481C13.5653 21.9238 14.6287 22.694 14.6287 22.694C14.6287 22.694 16.3284 21.163 15.6631 19.7238L14.9401 19.4458L14.1278 19.7238Z" fill="#3D3D3D"/>
<path d="M16.1368 7.13556C15.962 4.48244 13.8159 3.50195 12 3.50195C10.1841 3.50195 8.03799 4.48244 7.86324 7.13556C7.39365 7.22641 7.06008 7.8423 7.11258 8.3403L7.19307 9.47359C7.24815 9.99658 7.70785 10.3783 8.21447 10.3215L8.30185 10.312C9.33961 13.0986 10.967 13.3891 12 13.5523C13.033 13.3892 14.6604 13.0986 15.6982 10.312L15.7855 10.3215C16.2921 10.3783 16.7518 9.99658 16.8069 9.47359L16.8874 8.3403C16.9399 7.8423 16.6064 7.22641 16.1368 7.13556Z" fill="#FFC397"/>
<path d="M16.8874 8.3403L16.8069 9.47359C16.7518 9.99658 16.2921 10.3783 15.7855 10.3215L15.6981 10.312C15.3435 11.2633 14.9204 11.924 14.4757 12.3875C13.6183 13.282 12.6805 13.4447 11.9999 13.5522V3.50195C13.8159 3.50195 15.962 4.48244 16.1367 7.13556C16.6063 7.22641 16.9399 7.8423 16.8874 8.3403Z" fill="#EAA678"/>
<path d="M12 2.4881C9.23962 1.88599 7.27401 3.62646 7.23055 5.62924C7.18672 7.6489 8.74405 9.11355 8.74405 9.11355C8.71766 7.45057 9.24557 6.76427 10.275 6.39476C11.0673 6.11037 11.7344 5.3261 12 4.97965C12.2655 5.3261 12.9327 6.11037 13.7249 6.39476C14.7544 6.76432 15.2823 7.45062 15.2559 9.11355C15.2559 9.11355 16.8133 7.6489 16.7694 5.62924C16.726 3.62646 14.7604 1.88599 12 2.4881Z" fill="#515151"/>
<path d="M16.7695 5.62958C16.8131 7.64895 15.2559 9.1138 15.2559 9.1138C15.2822 7.45067 14.7544 6.76442 13.725 6.39505C12.9328 6.11052 12.2653 5.3263 12 4.97989V2.48802C14.7605 1.88614 16.7259 3.62661 16.7695 5.62958Z" fill="#3D3D3D"/>
<path d="M16.6946 13.9006C17.3387 12.6578 16.6817 11.2256 16.6817 11.2256L14.8729 12.4826C14.7753 12.5505 14.6865 12.6309 14.6107 12.7225C13.9275 13.5474 14.1689 14.237 14.5104 14.6822C14.4437 14.7474 14.382 14.8178 14.3269 14.8934C13.7607 15.6689 14.002 16.3157 14.3298 16.7383C14.3082 16.7594 14.2873 16.7814 14.2676 16.8043C12.9929 18.2895 14.7259 19.3459 14.7259 19.3459C16.7769 18.5323 16.7131 16.859 16.5031 15.9557C16.8836 15.2281 16.8163 14.4346 16.6946 13.9006Z" fill="#3D3D3D"/>
<path d="M15.6348 19.8283H14.1885C13.9953 19.8283 13.8387 19.6717 13.8387 19.4786V18.9352C13.8387 18.7421 13.9953 18.5854 14.1885 18.5854H15.6348C15.8279 18.5854 15.9846 18.7421 15.9846 18.9352V19.4786C15.9846 19.6717 15.828 19.8283 15.6348 19.8283Z" fill="#258258"/>
</g>
<defs>
<clipPath id="clip0_809_171">
<rect width="24" height="24" fill="white"/>
</clipPath>
</defs>
</svg>
