<svg width="24" height="24" viewBox="0 0 24 24" fill="none" xmlns="http://www.w3.org/2000/svg">
<g clip-path="url(#clip0_809_170)">
<path d="M12 24C18.6274 24 24 18.6274 24 12C24 5.37258 18.6274 0 12 0C5.37258 0 0 5.37258 0 12C0 18.6274 5.37258 24 12 24Z" fill="#90DFAA"/>
<path d="M12.0567 17.1592C12.0378 17.1592 12.0189 17.1781 11.9811 17.1781C11.9622 17.1781 11.9433 17.1592 11.9055 17.1592H12.0567Z" fill="#E6E9EE"/>
<path d="M21.6567 19.0867C19.4835 22.0536 15.9496 24.0001 11.9811 24.0001C8.0126 24.0001 4.49764 22.0725 2.30551 19.0867C4.0063 17.2725 6.31181 16.3087 8.23937 15.8174C8.06929 17.1969 8.7874 19.0489 8.8063 18.9922C9.52441 17.3292 11.9622 17.178 11.9622 17.178C11.9622 17.178 14.4 17.3103 15.137 18.9922C15.1559 19.03 15.874 17.1969 15.7039 15.8174C17.6504 16.3087 19.9559 17.2725 21.6567 19.0867Z" fill="#E6E9EE"/>
<path d="M14.9669 14.551C14.9669 14.7966 14.8157 16.1006 12.0567 17.1588H11.9055C9.14645 16.1006 8.99527 14.7966 8.99527 14.551C9.01417 14.0596 9.12755 13.5683 9.33543 13.1147C10.0913 13.9651 10.9984 14.5321 11.9811 14.5321C12.9449 14.5321 13.8709 13.984 14.6268 13.1147C14.8346 13.5683 14.9669 14.0596 14.9669 14.551Z" fill="#FFD05B"/>
<path d="M13.6252 17.5935L13.0205 18.8029H10.9417L10.337 17.5935C11.1685 17.2344 11.9811 17.1777 11.9811 17.1777C11.9811 17.1777 12.8126 17.2344 13.6252 17.5935Z" fill="#F1543F"/>
<path d="M10.2992 23.8868C10.8473 23.9624 11.4142 24.0002 12 24.0002C12.5669 24.0002 13.1339 23.9624 13.7008 23.8868L13.0394 18.8223H10.9606L10.2992 23.8868Z" fill="#FF7058"/>
<path d="M14.9669 14.5132C14.9669 14.5132 15.0992 16.025 11.9811 17.1778C11.9811 17.1778 14.4189 17.31 15.1559 18.9919C15.1748 19.0675 16.5921 15.4014 14.9669 14.5132Z" fill="white"/>
<path d="M8.99528 14.5132C7.38898 15.4014 8.78741 19.0486 8.8252 18.9919C9.54331 17.3289 12 17.1778 12 17.1778C8.863 16.025 8.99528 14.5132 8.99528 14.5132Z" fill="white"/>
<path d="M14.778 13.4927C13.9843 14.3431 13.0394 14.8911 11.9811 14.8911C10.9228 14.8911 9.97797 14.3431 9.18427 13.4927C9.22206 13.3604 9.27875 13.2281 9.33545 13.1147C10.0914 13.9651 10.9984 14.5321 11.9811 14.5321C12.9638 14.5321 13.8709 13.984 14.6268 13.1147C14.6835 13.2281 14.7402 13.3604 14.778 13.4927Z" fill="#F9B54C"/>
<path d="M17.1401 10.6016C16.7433 11.263 16.1386 11.6599 15.685 11.5843C14.7779 13.2662 13.4551 14.5134 11.9811 14.5134C10.5071 14.5134 9.18424 13.2473 8.27715 11.5843C7.82361 11.641 7.21888 11.263 6.82203 10.6016C6.34959 9.82681 6.3307 8.97642 6.78424 8.69296C6.89762 8.63626 7.01101 8.59847 7.14329 8.61737C7.44566 9.39217 7.8614 9.86461 7.8614 9.86461C7.42676 7.46461 9.20314 7.20004 8.90077 4.89453C8.90077 4.89453 10.0157 7.37012 13.2094 5.63154L12.9638 6.10398C17.4236 5.10241 15.9307 10.3559 15.8929 10.4882C16.4031 9.84571 16.7244 9.20319 16.9134 8.61737C16.989 8.61737 17.0835 8.65516 17.1401 8.69296C17.6315 8.95752 17.6126 9.82681 17.1401 10.6016Z" fill="#FFD05B"/>
<path d="M14.5512 2.39991C14.9102 2.36211 15.4961 2.68337 15.4961 2.68337C13.8898 0.850303 11.263 2.02196 11.263 2.02196C12.1512 1.26605 12.9449 1.34164 12.9449 1.34164C9.18425 0.774712 8.54173 3.02353 8.54173 3.02353C8.37165 2.75896 8.37165 2.38101 8.39055 2.19204C8.12598 2.64558 8.40944 3.55266 8.40944 3.55266C8.14488 2.89125 7.21889 3.00463 7.21889 3.00463C8.01259 3.13692 8.14488 3.62826 8.14488 3.62826C6.16062 4.36526 6.50078 6.42511 6.50078 6.42511L6.97322 5.85818C6.3874 8.107 7.88031 9.84558 7.88031 9.84558C7.44566 7.44558 9.22204 7.18101 8.91968 4.8755C8.91968 4.8755 10.0346 7.35109 13.2283 5.61251L12.9827 6.08495C17.4992 5.06448 15.9118 10.4881 15.9118 10.4881C17.5181 8.44715 17.2724 6.34951 17.2724 6.34951L17.4614 7.10542C17.9716 3.70385 14.5512 2.39991 14.5512 2.39991Z" fill="#324A5E"/>
</g>
<defs>
<clipPath id="clip0_809_170">
<rect width="24" height="24" fill="white"/>
</clipPath>
</defs>
</svg>
