<svg width="24" height="24" viewBox="0 0 24 24" fill="none" xmlns="http://www.w3.org/2000/svg">
<path d="M14.06 9.93999L13 9.44999C12.9127 9.41022 12.8387 9.34617 12.7868 9.2655C12.7349 9.18482 12.7073 9.09092 12.7073 8.99499C12.7073 8.89906 12.7349 8.80516 12.7868 8.72448C12.8387 8.64381 12.9127 8.57976 13 8.53999L14.06 8.04999L14.55 6.99999C14.5897 6.9127 14.6538 6.83869 14.7345 6.78679C14.8151 6.73489 14.909 6.70729 15.005 6.70729C15.1009 6.70729 15.1948 6.73489 15.2755 6.78679C15.3562 6.83869 15.4202 6.9127 15.46 6.99999L15.95 8.05999L17 8.54999C17.0873 8.58976 17.1613 8.65381 17.2132 8.73448C17.2651 8.81516 17.2927 8.90906 17.2927 9.00499C17.2927 9.10092 17.2651 9.19482 17.2132 9.2755C17.1613 9.35617 17.0873 9.42022 17 9.45999L15.94 9.94999L15.45 11C15.4102 11.0873 15.3462 11.1613 15.2655 11.2132C15.1848 11.2651 15.0909 11.2927 14.995 11.2927C14.899 11.2927 14.8051 11.2651 14.7245 11.2132C14.6438 11.1613 14.5797 11.0873 14.54 11L14.06 9.93999ZM4.44997 13L4.93997 11.94L5.99997 11.45C6.08727 11.4102 6.16128 11.3462 6.21317 11.2655C6.26507 11.1848 6.29267 11.0909 6.29267 10.995C6.29267 10.8991 6.26507 10.8052 6.21317 10.7245C6.16128 10.6438 6.08727 10.5798 5.99997 10.54L4.93997 10.05L4.44997 8.99999C4.41143 8.91279 4.34838 8.83867 4.26849 8.78663C4.1886 8.7346 4.09531 8.7069 3.99997 8.7069C3.90463 8.7069 3.81134 8.7346 3.73146 8.78663C3.65157 8.83867 3.58852 8.91279 3.54997 8.99999L3.05997 10.06L1.99997 10.55C1.91268 10.5898 1.83867 10.6538 1.78677 10.7345C1.73487 10.8152 1.70728 10.9091 1.70728 11.005C1.70728 11.1009 1.73487 11.1948 1.78677 11.2755C1.83867 11.3562 1.91268 11.4202 1.99997 11.46L3.05997 11.95L3.54997 13C3.71997 13.39 4.27997 13.39 4.44997 13ZM8.95997 7.98999L9.58997 6.58999L10.99 5.95999C11.0773 5.92022 11.1513 5.85617 11.2032 5.7755C11.2551 5.69482 11.2827 5.60092 11.2827 5.50499C11.2827 5.40906 11.2551 5.31516 11.2032 5.23448C11.1513 5.15381 11.0773 5.08976 10.99 5.04999L9.58997 4.41999L8.95997 3.01999C8.9202 2.9327 8.85615 2.85869 8.77548 2.80679C8.6948 2.75489 8.6009 2.72729 8.50497 2.72729C8.40904 2.72729 8.31514 2.75489 8.23446 2.80679C8.15379 2.85869 8.08974 2.9327 8.04997 3.01999L7.41997 4.41999L6.01997 5.04999C5.93268 5.08976 5.85867 5.15381 5.80677 5.23448C5.75487 5.31516 5.72728 5.40906 5.72728 5.50499C5.72728 5.60092 5.75487 5.69482 5.80677 5.7755C5.85867 5.85617 5.93268 5.92022 6.01997 5.95999L7.41997 6.58999L8.04997 7.98999C8.21997 8.37999 8.77997 8.37999 8.95997 7.98999ZM22.34 8.26999C22.2439 8.17418 22.1293 8.09893 22.0031 8.04883C21.877 7.99873 21.742 7.97482 21.6064 7.97857C21.4707 7.98231 21.3373 8.01362 21.2141 8.0706C21.0909 8.12758 20.9806 8.20903 20.89 8.30999L14.5 15.49L11.21 12.2C11.1175 12.1073 11.0076 12.0337 10.8866 11.9836C10.7656 11.9334 10.6359 11.9075 10.505 11.9075C10.374 11.9075 10.2443 11.9334 10.1233 11.9836C10.0024 12.0337 9.89249 12.1073 9.79997 12.2L3.75997 18.25C3.34997 18.66 3.34997 19.34 3.75997 19.75C4.16997 20.16 4.84997 20.16 5.25997 19.75L10.51 14.49L13.76 17.74C14.17 18.15 14.83 18.13 15.21 17.7L22.38 9.62999C22.73 9.23999 22.71 8.63999 22.34 8.26999Z" fill="url(#paint0_linear_1198_9769)"/>
<defs>
<linearGradient id="paint0_linear_1198_9769" x1="12.1689" y1="2.72729" x2="12.1689" y2="20.0575" gradientUnits="userSpaceOnUse">
<stop stop-color="#8495BA"/>
<stop offset="1" stop-color="#8495BA" stop-opacity="0"/>
</linearGradient>
</defs>
</svg>
