<svg width="24" height="24" viewBox="0 0 24 24" fill="none" xmlns="http://www.w3.org/2000/svg">
<mask id="mask0_2302_14604" style="mask-type:alpha" maskUnits="userSpaceOnUse" x="0" y="0" width="24" height="24">
<rect width="24" height="24" fill="white"/>
</mask>
<g mask="url(#mask0_2302_14604)">
<path d="M21.3 10.025C21.3667 10.3417 21.4167 10.6667 21.45 11C21.4833 11.3333 21.5 11.6667 21.5 12C21.5 13.3167 21.25 14.55 20.75 15.7C20.25 16.85 19.5707 17.854 18.712 18.712C17.854 19.5707 16.85 20.25 15.7 20.75C14.55 21.25 13.3167 21.5 12 21.5C10.6833 21.5 9.45 21.25 8.3 20.75C7.15 20.25 6.14567 19.5707 5.287 18.712C4.429 17.854 3.75 16.85 3.25 15.7C2.75 14.55 2.5 13.3167 2.5 12C2.5 10.6833 2.75 9.45 3.25 8.3C3.75 7.15 4.429 6.14567 5.287 5.287C6.14567 4.429 7.15 3.75 8.3 3.25C9.45 2.75 10.6833 2.5 12 2.5C12.8833 2.5 13.7333 2.61667 14.55 2.85C15.3667 3.08333 16.125 3.40833 16.825 3.825C17.0083 3.94167 17.121 4.1 17.163 4.3C17.2043 4.5 17.15 4.69167 17 4.875C16.8667 5.04167 16.7 5.146 16.5 5.188C16.3 5.22933 16.1083 5.19167 15.925 5.075C15.3583 4.725 14.7417 4.45833 14.075 4.275C13.4083 4.09167 12.7167 4 12 4C9.78333 4 7.896 4.779 6.338 6.337C4.77933 7.89567 4 9.78333 4 12C4 14.2167 4.77933 16.1043 6.338 17.663C7.896 19.221 9.78333 20 12 20C14.2167 20 16.1043 19.221 17.663 17.663C19.221 16.1043 20 14.2167 20 12C20 11.7167 19.9833 11.4373 19.95 11.162C19.9167 10.8873 19.8667 10.6083 19.8 10.325C19.7833 10.1583 19.8083 10.004 19.875 9.862C19.9417 9.72067 20.0417 9.60833 20.175 9.525C20.4083 9.35833 20.6377 9.33333 20.863 9.45C21.0877 9.56667 21.2333 9.75833 21.3 10.025ZM9.95 15.625L7.175 12.85C7.04167 12.7167 6.97933 12.5457 6.988 12.337C6.996 12.129 7.06667 11.9583 7.2 11.825C7.35 11.675 7.52933 11.6 7.738 11.6C7.946 11.6 8.11667 11.675 8.25 11.825L10.575 14.15L19.95 4.775C20.0833 4.625 20.2543 4.554 20.463 4.562C20.671 4.57067 20.8417 4.65 20.975 4.8C21.125 4.93333 21.2 5.104 21.2 5.312C21.2 5.52067 21.125 5.7 20.975 5.85L11.225 15.625C11.0417 15.7917 10.825 15.875 10.575 15.875C10.325 15.875 10.1167 15.7917 9.95 15.625Z" fill="white"/>
</g>
</svg>
