<svg width="24" height="24" viewBox="0 0 24 24" fill="none" xmlns="http://www.w3.org/2000/svg">
<g clip-path="url(#clip0_809_168)">
<path d="M12 24C18.6274 24 24 18.6274 24 12C24 5.37258 18.6274 0 12 0C5.37258 0 0 5.37258 0 12C0 18.6274 5.37258 24 12 24Z" fill="#F2F2F4"/>
<path d="M12 0V24C18.6274 24 24 18.6274 24 12C24 5.37258 18.6274 0 12 0Z" fill="#DFDFE1"/>
<path d="M9.11255 13.3583C7.88067 12.4629 7.07812 11.011 7.07812 9.375C7.07812 6.66108 9.28608 4.45312 12 4.45312C14.7139 4.45312 16.9219 6.66108 16.9219 9.375C16.9219 11.011 16.1193 12.4629 14.8875 13.3583C17.8973 14.363 20.2155 16.8934 20.9192 20.0273C22.8341 17.901 24 15.0868 24 12C24 5.37258 18.6274 0 12 0C5.37258 0 0 5.37258 0 12C0 15.0868 1.16587 17.901 3.08081 20.0273C3.78455 16.8934 6.10266 14.363 9.11255 13.3583Z" fill="#68D0E8"/>
<path d="M12 0V4.45312C14.7139 4.45312 16.9219 6.66108 16.9219 9.375C16.9219 11.011 16.1193 12.4629 14.8875 13.3583C17.8973 14.363 20.2155 16.8934 20.9192 20.0273C22.8341 17.901 24 15.0868 24 12C24 5.37258 18.6274 0 12 0Z" fill="#35A2DD"/>
</g>
<defs>
<clipPath id="clip0_809_168">
<rect width="24" height="24" fill="white"/>
</clipPath>
</defs>
</svg>
