<svg width="10" height="12" viewBox="0 0 10 12" fill="none" xmlns="http://www.w3.org/2000/svg">
<path d="M5.00027 11.6624C4.77527 11.6624 4.58777 11.5874 4.43777 11.4374C4.28777 11.2874 4.21277 11.0999 4.21277 10.8749V1.9124H0.875269C0.650269 1.9124 0.462769 1.8374 0.312769 1.6874C0.162769 1.5374 0.0877686 1.3499 0.0877686 1.1249C0.0877686 0.899902 0.162769 0.712402 0.312769 0.562402C0.462769 0.412402 0.650269 0.337402 0.875269 0.337402H9.12527C9.35027 0.337402 9.53777 0.412402 9.68777 0.562402C9.83777 0.712402 9.91277 0.899902 9.91277 1.1249C9.91277 1.3499 9.83777 1.5374 9.68777 1.6874C9.53777 1.8374 9.35027 1.9124 9.12527 1.9124H5.78777V10.8749C5.78777 11.0999 5.71277 11.2874 5.56277 11.4374C5.41277 11.5874 5.22527 11.6624 5.00027 11.6624Z" fill="#5F6B7D"/>
</svg>
