<svg width="14" height="14" viewBox="0 0 14 14" fill="none" xmlns="http://www.w3.org/2000/svg">
<mask id="mask0_1685_10046" style="mask-type:alpha" maskUnits="userSpaceOnUse" x="0" y="0" width="14" height="14">
<rect width="14" height="14" fill="#D9D9D9"/>
</mask>
<g mask="url(#mask0_1685_10046)">
<path d="M4.79909 4.85615C4.69214 4.74921 4.63867 4.60824 4.63867 4.43324C4.63867 4.25824 4.69214 4.11726 4.79909 4.01032L6.59284 2.21657C6.65117 2.15824 6.71437 2.11682 6.78242 2.09232C6.85048 2.06821 6.92339 2.05615 7.00117 2.05615C7.07895 2.05615 7.15439 2.06821 7.2275 2.09232C7.30023 2.11682 7.36089 2.15824 7.40951 2.21657L9.21784 4.0249C9.32478 4.13185 9.37573 4.27029 9.37067 4.44024C9.36601 4.61057 9.3102 4.74921 9.20326 4.85615C9.09631 4.9631 8.95534 5.01657 8.78034 5.01657C8.60534 5.01657 8.46437 4.9631 8.35742 4.85615L7.00117 3.4999L5.63034 4.87074C5.52339 4.97768 5.38495 5.02882 5.21501 5.02415C5.04467 5.0191 4.90603 4.9631 4.79909 4.85615ZM7.00117 12.002C6.92339 12.002 6.85048 11.9874 6.78242 11.9582C6.71437 11.9291 6.65117 11.8902 6.59284 11.8416L4.79909 10.0478C4.69214 9.94087 4.63867 9.7999 4.63867 9.6249C4.63867 9.4499 4.69214 9.30893 4.79909 9.20199C4.90603 9.09504 5.04701 9.04157 5.22201 9.04157C5.39701 9.04157 5.53798 9.09504 5.64492 9.20199L7.00117 10.5582L8.37201 9.1874C8.47895 9.08046 8.61739 9.02951 8.78734 9.03457C8.95767 9.03924 9.09631 9.09504 9.20326 9.20199C9.3102 9.30893 9.36367 9.4499 9.36367 9.6249C9.36367 9.7999 9.3102 9.94087 9.20326 10.0478L7.40951 11.8416C7.36089 11.8902 7.30023 11.9291 7.2275 11.9582C7.15439 11.9874 7.07895 12.002 7.00117 12.002Z" fill="#ADB1BF"/>
</g>
</svg>
