<svg width="32" height="33" viewBox="0 0 32 33" fill="none" xmlns="http://www.w3.org/2000/svg">
<path fill-rule="evenodd" clip-rule="evenodd" d="M1.62271 3.441C1.7443 3.28439 1.88668 3.14386 2.04663 3.02359L2.06252 3.01164L2.07872 3.00012C3.43346 2.03662 7.33885 0 16.1016 0C24.8643 0 28.7697 2.03662 30.1244 3.00012L30.1393 3.01067L30.1538 3.02158C30.4835 3.26831 30.739 3.60101 30.8922 3.98326C31.0415 4.35571 31.0881 4.7612 31.0275 5.15747L28.4799 24.2553C28.3274 25.399 27.9131 26.492 27.2692 27.4494C26.6252 28.4068 25.7691 29.2028 24.7674 29.7753L24.2877 30.0496C21.7948 31.474 18.9728 32.2235 16.1016 32.2235C13.2304 32.2235 10.4089 31.4743 7.91593 30.0499L7.43575 29.7753C6.43403 29.2028 5.57792 28.4068 4.93401 27.4494C4.29011 26.492 3.87578 25.399 3.72325 24.2553L0.946701 3.441H1.62271ZM4.26235 5.41222C4.53108 5.58044 4.86934 5.75451 5.2856 5.9272C6.07728 6.25565 7.06568 6.54429 8.20962 6.78158C10.4973 7.25612 13.2847 7.50041 16.1016 7.50041C18.9184 7.50041 21.7058 7.25612 23.9935 6.78158C25.1375 6.54429 26.1259 6.25565 26.9175 5.9272C27.3487 5.74833 27.6961 5.568 27.9693 5.3942L27.9959 5.19497C26.7752 4.47928 23.3764 3 16.1016 3C8.85981 3 5.45891 4.46586 4.22402 5.18517L4.26235 5.41222ZM4.70402 8.919L6.69692 23.8587C6.78843 24.5449 7.03703 25.2007 7.42338 25.7752C7.80972 26.3496 8.3237 26.8274 8.92473 27.1709L9.40473 27.4454C11.4443 28.6106 13.7526 29.2235 16.1016 29.2235C18.4507 29.2235 20.7592 28.6105 22.7989 27.4451L23.2787 27.1707C23.8798 26.8272 24.3934 26.3496 24.7798 25.7752C25.1661 25.2007 25.4147 24.5449 25.5063 23.8587L27.4991 8.91899C26.6201 9.23929 25.6402 9.50387 24.6028 9.71905C22.0691 10.2446 19.0706 10.5004 16.1016 10.5004C13.1325 10.5004 10.1341 10.2446 7.6003 9.71905C6.56297 9.50387 5.58302 9.2393 4.70402 8.919ZM9.05736 13.5292C9.8697 13.3667 10.6599 13.8935 10.8224 14.7059L12.3224 22.2059C12.4849 23.0182 11.958 23.8084 11.1457 23.9709C10.3334 24.1334 9.54313 23.6066 9.38066 22.7942L7.88066 15.2942C7.71819 14.4819 8.24502 13.6916 9.05736 13.5292Z" fill="url(#paint0_linear_1595_14151)"/>
<defs>
<linearGradient id="paint0_linear_1595_14151" x1="16" y1="0" x2="16" y2="32.2235" gradientUnits="userSpaceOnUse">
<stop stop-color="#8495BA"/>
<stop offset="1" stop-color="#8495BA" stop-opacity="0"/>
</linearGradient>
</defs>
</svg>
