<svg width="20" height="20" viewBox="0 0 20 20" fill="none" xmlns="http://www.w3.org/2000/svg">
<path fill-rule="evenodd" clip-rule="evenodd" d="M19.4848 0.427741C19.653 0.570243 19.75 0.779541 19.75 1.00001V14C19.75 16.0711 18.0711 17.75 16 17.75C13.9289 17.75 12.25 16.0711 12.25 14C12.25 11.9289 13.9289 10.25 16 10.25C16.8442 10.25 17.6233 10.529 18.25 10.9997V1.88535L7.75 3.63535V16C7.75 18.0711 6.07107 19.75 4 19.75C1.92893 19.75 0.25 18.0711 0.25 16C0.25 13.9289 1.92893 12.25 4 12.25C4.8442 12.25 5.62325 12.529 6.25 12.9997V3.00001C6.25 2.63338 6.51506 2.32048 6.8767 2.26021L18.8767 0.26021C19.0942 0.223966 19.3166 0.285238 19.4848 0.427741ZM18.25 14C18.25 12.7574 17.2426 11.75 16 11.75C14.7574 11.75 13.75 12.7574 13.75 14C13.75 15.2426 14.7574 16.25 16 16.25C17.2426 16.25 18.25 15.2426 18.25 14ZM4 13.75C5.24264 13.75 6.25 14.7574 6.25 16C6.25 17.2426 5.24264 18.25 4 18.25C2.75736 18.25 1.75 17.2426 1.75 16C1.75 14.7574 2.75736 13.75 4 13.75Z" fill="url(#paint0_linear_2002_23992)"/>
<defs>
<linearGradient id="paint0_linear_2002_23992" x1="19.1765" y1="1.39706" x2="1.97058" y2="19.1765" gradientUnits="userSpaceOnUse">
<stop stop-color="#76A0A6"/>
<stop offset="1" stop-color="#899AC1"/>
</linearGradient>
</defs>
</svg>
