<svg width="16" height="16" viewBox="0 0 16 16" fill="none" xmlns="http://www.w3.org/2000/svg">
<mask id="mask0_3557_3576" style="mask-type:alpha" maskUnits="userSpaceOnUse" x="0" y="0" width="16" height="16">
<rect width="16" height="16" fill="#D9D9D9"/>
</mask>
<g mask="url(#mask0_3557_3576)">
<path d="M4.58335 9.66647C4.48335 9.57758 4.43335 9.46358 4.43335 9.32447C4.43335 9.1858 4.48335 9.06647 4.58335 8.96647L7.58335 5.98314C7.6389 5.91647 7.7029 5.86914 7.77535 5.84114C7.84735 5.81358 7.92224 5.7998 8.00002 5.7998C8.07779 5.7998 8.1529 5.81358 8.22535 5.84114C8.29735 5.86914 8.36113 5.91647 8.41668 5.98314L11.4333 8.98314C11.5222 9.08314 11.5667 9.19692 11.5667 9.32447C11.5667 9.45247 11.5167 9.56647 11.4167 9.66647C11.3167 9.76647 11.2 9.81647 11.0667 9.81647C10.9333 9.81647 10.8167 9.76647 10.7167 9.66647L8.00002 6.96647L5.26668 9.68314C5.17779 9.78314 5.06668 9.83314 4.93335 9.83314C4.80002 9.83314 4.68335 9.77758 4.58335 9.66647Z" fill="#464E5F"/>
</g>
</svg>
