<svg width="40" height="40" viewBox="0 0 40 40" fill="none" xmlns="http://www.w3.org/2000/svg">
<path d="M20 0C8.954 0 0 8.954 0 20C0 31.046 8.954 40 20 40C31.046 40 40 31.046 40 20C40 8.954 31.046 0 20 0ZM20 37C17.7674 36.9999 15.5567 36.56 13.4941 35.7055C11.4315 34.851 9.55737 33.5986 7.97877 32.0198C6.40017 30.441 5.148 28.5668 4.29374 26.5041C3.43948 24.4414 2.99987 22.2306 3 19.998C3.00013 17.7654 3.44 15.5547 4.29451 13.4921C5.14901 11.4295 6.4014 9.55537 7.98018 7.97677C9.55897 6.39817 11.4332 5.146 13.4959 4.29174C15.5586 3.43748 17.7694 2.99787 20.002 2.998C24.5109 2.99827 28.8351 4.78969 32.0232 7.97818C35.2113 11.1667 37.0023 15.4911 37.002 20C37.0017 24.5089 35.2103 28.8331 32.0218 32.0212C28.8333 35.2093 24.5089 37.0003 20 37ZM20 21C13.924 21 9 24.456 9 28C9 31.544 13.924 35 20 35C26.076 35 31 31.544 31 28C31 24.456 26.076 21 20 21ZM20 20C21.5913 20 23.1174 19.3679 24.2426 18.2426C25.3679 17.1174 26 15.5913 26 14C26 12.4087 25.3679 10.8826 24.2426 9.75736C23.1174 8.63214 21.5913 8 20 8C18.4087 8 16.8826 8.63214 15.7574 9.75736C14.6321 10.8826 14 12.4087 14 14C14 15.5913 14.6321 17.1174 15.7574 18.2426C16.8826 19.3679 18.4087 20 20 20Z" fill="#B8BFCC"/>
</svg>
