<svg width="24" height="24" viewBox="0 0 24 24" fill="none" xmlns="http://www.w3.org/2000/svg">
<mask id="mask0_2302_14614" style="mask-type:alpha" maskUnits="userSpaceOnUse" x="0" y="0" width="24" height="24">
<rect width="24" height="24" fill="white"/>
</mask>
<g mask="url(#mask0_2302_14614)">
<path d="M2.69999 19.2992C2.44999 19.2992 2.23732 19.2159 2.06199 19.0492C1.88732 18.8826 1.79999 18.6659 1.79999 18.3992V17.0742C1.79999 16.5576 1.93332 16.0992 2.19999 15.6992C2.46665 15.2992 2.82499 14.9826 3.27499 14.7492C4.22499 14.2992 5.17932 13.9452 6.13799 13.6872C7.09599 13.4286 8.14999 13.2992 9.29999 13.2992C10.45 13.2992 11.5043 13.4286 12.463 13.6872C13.421 13.9452 14.375 14.2992 15.325 14.7492C15.775 14.9826 16.1333 15.2992 16.4 15.6992C16.6667 16.0992 16.8 16.5576 16.8 17.0742V18.3992C16.8 18.6659 16.7127 18.8826 16.538 19.0492C16.3627 19.2159 16.15 19.2992 15.9 19.2992H2.69999ZM18.4 19.2992C18.5333 19.1992 18.6333 19.0702 18.7 18.9122C18.7667 18.7536 18.8 18.5826 18.8 18.3992V16.9492C18.8 16.2992 18.6373 15.6782 18.312 15.0862C17.9873 14.4949 17.5333 13.9826 16.95 13.5492C17.6167 13.6492 18.25 13.8032 18.85 14.0112C19.45 14.2199 20.025 14.4659 20.575 14.7492C21.0917 15.0326 21.4917 15.3619 21.775 15.7372C22.0583 16.1119 22.2 16.5159 22.2 16.9492V18.3992C22.2 18.6659 22.1127 18.8826 21.938 19.0492C21.7627 19.2159 21.55 19.2992 21.3 19.2992H18.4ZM9.29999 11.6992C8.33332 11.6992 7.50832 11.3532 6.82499 10.6612C6.14165 9.96989 5.79999 9.14922 5.79999 8.19922C5.79999 7.23255 6.14165 6.40755 6.82499 5.72422C7.50832 5.04089 8.33332 4.69922 9.29999 4.69922C10.2667 4.69922 11.0917 5.04089 11.775 5.72422C12.4583 6.40755 12.8 7.23255 12.8 8.19922C12.8 9.14922 12.4583 9.96989 11.775 10.6612C11.0917 11.3532 10.2667 11.6992 9.29999 11.6992ZM17.925 8.19922C17.925 9.14922 17.5833 9.96989 16.9 10.6612C16.2167 11.3532 15.3917 11.6992 14.425 11.6992C14.325 11.6992 14.1873 11.6866 14.012 11.6612C13.8373 11.6366 13.6917 11.6076 13.575 11.5742C13.975 11.0909 14.2793 10.5619 14.488 9.98722C14.696 9.41189 14.8 8.81589 14.8 8.19922C14.8 7.56589 14.6917 6.96589 14.475 6.39922C14.2583 5.83255 13.9583 5.30755 13.575 4.82422C13.7083 4.77422 13.85 4.74089 14 4.72422C14.15 4.70755 14.2917 4.69922 14.425 4.69922C15.3917 4.69922 16.2167 5.04089 16.9 5.72422C17.5833 6.40755 17.925 7.23255 17.925 8.19922ZM3.29999 17.7992H15.3V17.0742C15.3 16.8742 15.246 16.6909 15.138 16.5242C15.0293 16.3576 14.8667 16.2159 14.65 16.0992C13.8167 15.6826 12.9667 15.3616 12.1 15.1362C11.2333 14.9116 10.3 14.7992 9.29999 14.7992C8.29999 14.7992 7.36265 14.9116 6.48799 15.1362C5.61265 15.3616 4.76665 15.6826 3.94999 16.0992C3.71665 16.2159 3.54999 16.3576 3.44999 16.5242C3.34999 16.6909 3.29999 16.8742 3.29999 17.0742V17.7992ZM9.29999 10.1992C9.84999 10.1992 10.321 10.0032 10.713 9.61122C11.1043 9.21989 11.3 8.74922 11.3 8.19922C11.3 7.64922 11.1043 7.17822 10.713 6.78622C10.321 6.39489 9.84999 6.19922 9.29999 6.19922C8.74999 6.19922 8.27932 6.39489 7.88799 6.78622C7.49599 7.17822 7.29999 7.64922 7.29999 8.19922C7.29999 8.74922 7.49599 9.21989 7.88799 9.61122C8.27932 10.0032 8.74999 10.1992 9.29999 10.1992Z" fill="white"/>
</g>
</svg>
