<svg width="217" height="48" viewBox="0 0 217 48" fill="none" xmlns="http://www.w3.org/2000/svg">
<path d="M24 4C12.954 4 4 12.954 4 24C4 35.046 12.954 44 24 44C35.046 44 44 35.046 44 24C44 12.954 35.046 4 24 4ZM24 41C21.7674 40.9999 19.5567 40.56 17.4941 39.7055C15.4315 38.851 13.5574 37.5986 11.9788 36.0198C10.4002 34.441 9.148 32.5668 8.29374 30.5041C7.43948 28.4414 6.99987 26.2306 7 23.998C7.00013 21.7654 7.44 19.5547 8.29451 17.4921C9.14901 15.4295 10.4014 13.5554 11.9802 11.9768C13.559 10.3982 15.4332 9.146 17.4959 8.29174C19.5586 7.43748 21.7694 6.99787 24.002 6.998C28.5109 6.99827 32.8351 8.78969 36.0232 11.9782C39.2113 15.1667 41.0023 19.4911 41.002 24C41.0017 28.5089 39.2103 32.8331 36.0218 36.0212C32.8333 39.2093 28.5089 41.0003 24 41ZM24 25C17.924 25 13 28.456 13 32C13 35.544 17.924 39 24 39C30.076 39 35 35.544 35 32C35 28.456 30.076 25 24 25ZM24 24C25.5913 24 27.1174 23.3679 28.2426 22.2426C29.3679 21.1174 30 19.5913 30 18C30 16.4087 29.3679 14.8826 28.2426 13.7574C27.1174 12.6321 25.5913 12 24 12C22.4087 12 20.8826 12.6321 19.7574 13.7574C18.6321 14.8826 18 16.4087 18 18C18 19.5913 18.6321 21.1174 19.7574 22.2426C20.8826 23.3679 22.4087 24 24 24Z" fill="#B8BFCC"/>
<rect x="55" y="10" width="162" height="8" rx="4" fill="#CFD7E6"/>
<rect x="55" y="30" width="90" height="8" rx="4" fill="#CFD7E6"/>
</svg>
