<svg width="20" height="20" viewBox="0 0 20 20" fill="none" xmlns="http://www.w3.org/2000/svg">
<mask id="mask0_1853_20326" style="mask-type:alpha" maskUnits="userSpaceOnUse" x="0" y="0" width="20" height="20">
<rect width="20" height="20" fill="#D9D9D9"/>
</mask>
<g mask="url(#mask0_1853_20326)">
<path d="M2.25 16.0837C2.04167 16.0837 1.86444 16.0142 1.71833 15.8753C1.57278 15.7364 1.5 15.5559 1.5 15.3337V14.2295C1.5 13.7989 1.61111 13.417 1.83333 13.0837C2.05556 12.7503 2.35417 12.4864 2.72917 12.292C3.52083 11.917 4.31611 11.622 5.115 11.407C5.91333 11.1914 6.79167 11.0837 7.75 11.0837C8.70833 11.0837 9.58694 11.1914 10.3858 11.407C11.1842 11.622 11.9792 11.917 12.7708 12.292C13.1458 12.4864 13.4444 12.7503 13.6667 13.0837C13.8889 13.417 14 13.7989 14 14.2295V15.3337C14 15.5559 13.9272 15.7364 13.7817 15.8753C13.6356 16.0142 13.4583 16.0837 13.25 16.0837H2.25ZM15.3333 16.0837C15.4444 16.0003 15.5278 15.8928 15.5833 15.7612C15.6389 15.6289 15.6667 15.4864 15.6667 15.3337V14.1253C15.6667 13.5837 15.5311 13.0662 15.26 12.5728C14.9894 12.08 14.6111 11.6531 14.125 11.292C14.6806 11.3753 15.2083 11.5037 15.7083 11.677C16.2083 11.8509 16.6875 12.0559 17.1458 12.292C17.5764 12.5281 17.9097 12.8025 18.1458 13.1153C18.3819 13.4275 18.5 13.7642 18.5 14.1253V15.3337C18.5 15.5559 18.4272 15.7364 18.2817 15.8753C18.1356 16.0142 17.9583 16.0837 17.75 16.0837H15.3333ZM7.75 9.75033C6.94444 9.75033 6.25694 9.46199 5.6875 8.88533C5.11806 8.30921 4.83333 7.62533 4.83333 6.83366C4.83333 6.0281 5.11806 5.3406 5.6875 4.77116C6.25694 4.20171 6.94444 3.91699 7.75 3.91699C8.55556 3.91699 9.24306 4.20171 9.8125 4.77116C10.3819 5.3406 10.6667 6.0281 10.6667 6.83366C10.6667 7.62533 10.3819 8.30921 9.8125 8.88533C9.24306 9.46199 8.55556 9.75033 7.75 9.75033ZM14.9375 6.83366C14.9375 7.62533 14.6528 8.30921 14.0833 8.88533C13.5139 9.46199 12.8264 9.75033 12.0208 9.75033C11.9375 9.75033 11.8228 9.73977 11.6767 9.71866C11.5311 9.6981 11.4097 9.67394 11.3125 9.64616C11.6458 9.24338 11.8994 8.80255 12.0733 8.32366C12.2467 7.84421 12.3333 7.34755 12.3333 6.83366C12.3333 6.30588 12.2431 5.80588 12.0625 5.33366C11.8819 4.86144 11.6319 4.42394 11.3125 4.02116C11.4236 3.97949 11.5417 3.95171 11.6667 3.93783C11.7917 3.92394 11.9097 3.91699 12.0208 3.91699C12.8264 3.91699 13.5139 4.20171 14.0833 4.77116C14.6528 5.3406 14.9375 6.0281 14.9375 6.83366ZM2.75 14.8337H12.75V14.2295C12.75 14.0628 12.705 13.91 12.615 13.7712C12.5244 13.6323 12.3889 13.5142 12.2083 13.417C11.5139 13.0698 10.8056 12.8023 10.0833 12.6145C9.36111 12.4273 8.58333 12.3337 7.75 12.3337C6.91667 12.3337 6.13556 12.4273 5.40667 12.6145C4.67722 12.8023 3.97222 13.0698 3.29167 13.417C3.09722 13.5142 2.95833 13.6323 2.875 13.7712C2.79167 13.91 2.75 14.0628 2.75 14.2295V14.8337ZM7.75 8.50033C8.20833 8.50033 8.60083 8.33699 8.9275 8.01033C9.25361 7.68421 9.41667 7.29199 9.41667 6.83366C9.41667 6.37533 9.25361 5.98283 8.9275 5.65616C8.60083 5.33005 8.20833 5.16699 7.75 5.16699C7.29167 5.16699 6.89945 5.33005 6.57333 5.65616C6.24667 5.98283 6.08333 6.37533 6.08333 6.83366C6.08333 7.29199 6.24667 7.68421 6.57333 8.01033C6.89945 8.33699 7.29167 8.50033 7.75 8.50033Z" fill="#FF00FF"/>
</g>
</svg>
