<svg width="24" height="24" viewBox="0 0 24 24" fill="none" xmlns="http://www.w3.org/2000/svg">
<g clip-path="url(#clip0_809_174)">
<rect width="24" height="24" rx="11" fill="white"/>
<path fill-rule="evenodd" clip-rule="evenodd" d="M6.30008 0.465384C7.85854 0.11904 9.74916 0 12 0C14.2508 0 16.1414 0.11904 17.6999 0.465384C19.272 0.814764 20.5786 1.4112 21.5837 2.4163C22.5888 3.42139 23.1852 4.72802 23.5346 6.30008C23.881 7.85854 24 9.74916 24 12C24 14.2508 23.881 16.1414 23.5346 17.6999C23.1852 19.272 22.5888 20.5786 21.5837 21.5837C20.5786 22.5888 19.272 23.1852 17.6999 23.5346C16.1414 23.881 14.2508 24 12 24C9.74916 24 7.85854 23.881 6.30008 23.5346C4.72802 23.1852 3.42139 22.5888 2.4163 21.5837C1.4112 20.5786 0.814764 19.272 0.465384 17.6999C0.11904 16.1414 0 14.2508 0 12C0 9.74916 0.11904 7.85854 0.465384 6.30008C0.814764 4.72802 1.4112 3.42139 2.4163 2.4163C3.42139 1.4112 4.72802 0.814764 6.30008 0.465384ZM12 4.8C9.34903 4.8 7.2 6.94903 7.2 9.6C7.2 12.2509 9.34903 14.4 12 14.4C14.6509 14.4 16.8 12.2509 16.8 9.6C16.8 6.94903 14.6509 4.8 12 4.8ZM19.653 18.353C20.0764 19.0434 19.9266 19.956 19.2443 20.3922C18.6239 20.7889 17.899 21.0318 17.1791 21.1918C15.8786 21.4807 14.1959 21.6 11.9998 21.6C9.80376 21.6 8.12093 21.4807 6.82057 21.1918C6.11419 21.0348 5.40246 20.7983 4.78957 20.4144C4.09496 19.9794 3.94228 19.0543 4.37609 18.3589C4.87564 17.5582 5.56412 16.929 6.49058 16.4813C7.89626 15.8021 9.73884 15.6 11.9995 15.6C14.2525 15.6 16.0931 15.7858 17.4968 16.4456C18.4472 16.8924 19.1486 17.5307 19.653 18.353Z" fill="url(#paint0_linear_809_174)"/>
</g>
<defs>
<linearGradient id="paint0_linear_809_174" x1="12" y1="0" x2="12" y2="24" gradientUnits="userSpaceOnUse">
<stop stop-color="#FFDF00"/>
<stop offset="1" stop-color="#D4AF37"/>
</linearGradient>
<clipPath id="clip0_809_174">
<rect width="24" height="24" fill="white"/>
</clipPath>
</defs>
</svg>
