<svg width="32" height="27" viewBox="0 0 32 27" fill="none" xmlns="http://www.w3.org/2000/svg">
<path d="M18.59 10.91L17 10.175C16.869 10.1153 16.758 10.0193 16.6802 9.89825C16.6023 9.77723 16.5609 9.63638 16.5609 9.49249C16.5609 9.34859 16.6023 9.20774 16.6802 9.08673C16.758 8.96571 16.869 8.86964 17 8.80999L18.59 8.07499L19.325 6.49999C19.3846 6.36904 19.4807 6.25803 19.6017 6.18018C19.7227 6.10233 19.8636 6.06094 20.0075 6.06094C20.1514 6.06094 20.2922 6.10233 20.4132 6.18018C20.5343 6.25803 20.6303 6.36904 20.69 6.49999L21.425 8.08999L23 8.82499C23.1309 8.88464 23.2419 8.98071 23.3198 9.10173C23.3976 9.22274 23.439 9.36359 23.439 9.50749C23.439 9.65138 23.3976 9.79223 23.3198 9.91325C23.2419 10.0343 23.1309 10.1303 23 10.19L21.41 10.925L20.675 12.5C20.6153 12.6309 20.5193 12.7419 20.3982 12.8198C20.2772 12.8976 20.1364 12.939 19.9925 12.939C19.8486 12.939 19.7077 12.8976 19.5867 12.8198C19.4657 12.7419 19.3696 12.6309 19.31 12.5L18.59 10.91ZM4.17499 15.5L4.90999 13.91L6.49999 13.175C6.63093 13.1153 6.74194 13.0193 6.81979 12.8982C6.89764 12.7772 6.93903 12.6364 6.93903 12.4925C6.93903 12.3486 6.89764 12.2077 6.81979 12.0867C6.74194 11.9657 6.63093 11.8696 6.49999 11.81L4.90999 11.075L4.17499 9.49999C4.11717 9.36918 4.0226 9.258 3.90276 9.17995C3.78293 9.1019 3.643 9.06035 3.49999 9.06035C3.35698 9.06035 3.21705 9.1019 3.09721 9.17995C2.97738 9.258 2.8828 9.36918 2.82499 9.49999L2.08999 11.09L0.499987 11.825C0.369046 11.8846 0.258031 11.9807 0.180183 12.1017C0.102336 12.2227 0.0609436 12.3636 0.0609436 12.5075C0.0609436 12.6514 0.102336 12.7922 0.180183 12.9132C0.258031 13.0343 0.369046 13.1303 0.499987 13.19L2.08999 13.925L2.82499 15.5C3.07999 16.085 3.91999 16.085 4.17499 15.5ZM10.94 7.98499L11.885 5.88499L13.985 4.93999C14.1159 4.88033 14.2269 4.78426 14.3048 4.66325C14.3826 4.54223 14.424 4.40138 14.424 4.25749C14.424 4.1136 14.3826 3.97274 14.3048 3.85173C14.2269 3.73071 14.1159 3.63464 13.985 3.57499L11.885 2.62999L10.94 0.529986C10.8803 0.399045 10.7843 0.288029 10.6632 0.210182C10.5422 0.132335 10.4014 0.0909424 10.2575 0.0909424C10.1136 0.0909424 9.97274 0.132335 9.85173 0.210182C9.73071 0.288029 9.63465 0.399045 9.57499 0.529986L8.62999 2.62999L6.52999 3.57499C6.39905 3.63464 6.28803 3.73071 6.21018 3.85173C6.13234 3.97274 6.09094 4.1136 6.09094 4.25749C6.09094 4.40138 6.13234 4.54223 6.21018 4.66325C6.28803 4.78426 6.39905 4.88033 6.52999 4.93999L8.62999 5.88499L9.57499 7.98499C9.82999 8.56999 10.67 8.56999 10.94 7.98499ZM31.01 8.40499C30.8658 8.26127 30.6939 8.1484 30.5048 8.07325C30.3156 7.9981 30.1131 7.96224 29.9096 7.96785C29.7061 7.97346 29.5059 8.02043 29.3212 8.1059C29.1364 8.19137 28.971 8.31354 28.835 8.46499L19.25 19.235L14.315 14.3C14.1762 14.1609 14.0114 14.0506 13.8299 13.9753C13.6485 13.9001 13.4539 13.8613 13.2575 13.8613C13.061 13.8613 12.8665 13.9001 12.6851 13.9753C12.5036 14.0506 12.3388 14.1609 12.2 14.3L3.13999 23.375C2.52499 23.99 2.52499 25.01 3.13999 25.625C3.75499 26.24 4.77499 26.24 5.38999 25.625L13.265 17.735L18.14 22.61C18.755 23.225 19.745 23.195 20.315 22.55L31.07 10.445C31.595 9.85999 31.565 8.95999 31.01 8.40499Z" fill="url(#paint0_linear_997_3713)"/>
<defs>
<linearGradient id="paint0_linear_997_3713" x1="15.7533" y1="0.0909424" x2="15.7533" y2="26.0862" gradientUnits="userSpaceOnUse">
<stop stop-color="#8495BA"/>
<stop offset="1" stop-color="#8495BA" stop-opacity="0"/>
</linearGradient>
</defs>
</svg>
