<svg width="31" height="26" viewBox="0 0 31 26" fill="none" xmlns="http://www.w3.org/2000/svg">
<path d="M14.078 16.6587H8.99228C8.69132 16.6587 8.4476 16.9024 8.4476 17.2034V25.0996C8.4476 25.4006 8.69132 25.6443 8.99228 25.6443H14.078C14.379 25.6443 14.6223 25.4006 14.6223 25.0996V17.203C14.6223 16.902 14.3786 16.6587 14.078 16.6587ZM22.0077 0.356079H16.922C16.621 0.356079 16.3773 0.599799 16.3773 0.900759V25.0992C16.3773 25.4002 16.621 25.6439 16.922 25.6439H22.0077C22.3087 25.6439 22.5524 25.4002 22.5524 25.0992V0.900759C22.5524 0.599799 22.3087 0.356079 22.0077 0.356079ZM29.9781 7.70764H24.8924C24.5914 7.70764 24.3477 7.95136 24.3477 8.25232V25.0992C24.3477 25.4002 24.5914 25.6439 24.8924 25.6439H29.9778C30.2787 25.6439 30.5224 25.4002 30.5224 25.0992V8.25232C30.5224 7.95172 30.2787 7.70764 29.9781 7.70764ZM6.1076 7.70764H1.02188C0.720923 7.70764 0.477203 7.95136 0.477203 8.25232V25.0992C0.477203 25.4002 0.720923 25.6439 1.02188 25.6439H6.1076C6.40856 25.6439 6.65228 25.4002 6.65228 25.0992V8.25232C6.65228 7.95172 6.40856 7.70764 6.1076 7.70764Z" fill="url(#paint0_linear_997_3715)"/>
<defs>
<linearGradient id="paint0_linear_997_3715" x1="15.4998" y1="0.356079" x2="15.4998" y2="25.6443" gradientUnits="userSpaceOnUse">
<stop stop-color="#8495BA"/>
<stop offset="1" stop-color="#8495BA" stop-opacity="0"/>
</linearGradient>
</defs>
</svg>
