<svg width="16" height="17" viewBox="0 0 16 17" fill="none" xmlns="http://www.w3.org/2000/svg">
<mask id="mask0_579_215" style="mask-type:alpha" maskUnits="userSpaceOnUse" x="0" y="0" width="16" height="17">
<rect y="0.5" width="16" height="16" fill="#D9D9D9"/>
</mask>
<g mask="url(#mask0_579_215)">
<path d="M2.28333 14.1663C2.05 14.1663 1.87778 14.0663 1.76667 13.8663C1.65556 13.6663 1.65556 13.4663 1.76667 13.2663L7.46667 3.39961C7.58889 3.19961 7.76667 3.09961 8 3.09961C8.23334 3.09961 8.41111 3.19961 8.53333 3.39961L14.2333 13.2663C14.3444 13.4663 14.3444 13.6663 14.2333 13.8663C14.1222 14.0663 13.95 14.1663 13.7167 14.1663H2.28333ZM8 7.29961C7.85556 7.29961 7.73622 7.34672 7.642 7.44094C7.54734 7.53561 7.5 7.65516 7.5 7.79961V10.1329C7.5 10.2663 7.54734 10.3829 7.642 10.4829C7.73622 10.5829 7.85556 10.6329 8 10.6329C8.14445 10.6329 8.264 10.5829 8.35867 10.4829C8.45289 10.3829 8.5 10.2663 8.5 10.1329V7.79961C8.5 7.65516 8.45289 7.53561 8.35867 7.44094C8.264 7.34672 8.14445 7.29961 8 7.29961ZM8 12.3663C8.15556 12.3663 8.28333 12.3163 8.38333 12.2163C8.48333 12.1163 8.53333 11.9885 8.53333 11.8329C8.53333 11.6774 8.48333 11.5496 8.38333 11.4496C8.28333 11.3496 8.15556 11.2996 8 11.2996C7.84445 11.2996 7.71667 11.3496 7.61667 11.4496C7.51667 11.5496 7.46667 11.6774 7.46667 11.8329C7.46667 11.9885 7.51667 12.1163 7.61667 12.2163C7.71667 12.3163 7.84445 12.3663 8 12.3663Z" fill="#F54542"/>
</g>
</svg>
