<svg width="14" height="14" viewBox="0 0 14 14" fill="none" xmlns="http://www.w3.org/2000/svg">
<path d="M1.3335 14C1.05572 14 0.819718 13.9027 0.625496 13.708C0.430829 13.5138 0.333496 13.2778 0.333496 13C0.333496 12.7222 0.430829 12.4862 0.625496 12.292C0.819718 12.0973 1.05572 12 1.3335 12H12.6668C12.9446 12 13.1806 12.0973 13.3748 12.292C13.5695 12.4862 13.6668 12.7222 13.6668 13C13.6668 13.2778 13.5695 13.5138 13.3748 13.708C13.1806 13.9027 12.9446 14 12.6668 14H1.3335ZM2.60016 10.3333C2.4335 10.3333 2.29194 10.2751 2.1755 10.1587C2.05861 10.0418 2.00016 9.9 2.00016 9.73333V8.55C2.00016 8.47222 2.01394 8.39444 2.0415 8.31667C2.0695 8.23889 2.11683 8.17222 2.1835 8.11667L7.95016 2.35L9.9835 4.38333L4.21683 10.15C4.16127 10.2167 4.09461 10.264 4.01683 10.292C3.93905 10.3196 3.86127 10.3333 3.7835 10.3333H2.60016ZM10.6502 3.68333L8.6335 1.66667L9.61683 0.683333C9.73905 0.561111 9.89194 0.5 10.0755 0.5C10.2586 0.5 10.4113 0.561111 10.5335 0.683333L11.6168 1.78333C11.7391 1.90556 11.8031 2.05556 11.8088 2.23333C11.8142 2.41111 11.7557 2.56667 11.6335 2.7L10.6502 3.68333Z" fill="#5F6B7D"/>
</svg>
