<svg width="1286" height="660" viewBox="0 0 1286 660" fill="none" xmlns="http://www.w3.org/2000/svg">
<g filter="url(#filter0_dd_3202_31799)">
<rect x="3" y="2" width="1280" height="654" rx="8" fill="white"/>
</g>
<rect x="27" y="46" width="16" height="16" rx="8" transform="rotate(-90 27 46)" fill="url(#paint0_linear_3202_31799)"/>
<rect x="51" y="32" width="199" height="12" rx="6" fill="url(#paint1_linear_3202_31799)"/>
<rect x="27" y="62" width="380" height="12" rx="6" fill="url(#paint2_linear_3202_31799)"/>
<rect x="509" y="39" width="64" height="12" rx="6" fill="url(#paint3_linear_3202_31799)"/>
<rect x="635" y="39" width="150" height="12" rx="6" fill="url(#paint4_linear_3202_31799)"/>
<line x1="481.5" y1="29" x2="481.5" y2="81" stroke="#D6E5F5"/>
<rect x="27" y="124" width="192" height="12" rx="6" fill="url(#paint5_linear_3202_31799)"/>
<rect x="1115" y="124" width="143" height="12" rx="6" fill="url(#paint6_linear_3202_31799)"/>
<rect x="19" y="164" width="1248" height="160" rx="12" fill="white"/>
<path d="M38.012 182.708C39.3 182.708 40.328 183 41.096 183.584C41.872 184.168 42.26 185.244 42.26 186.812C42.26 188.348 41.88 189.432 41.12 190.064C40.36 190.688 39.396 191 38.228 191H35.972V182.708H38.012ZM37.556 183.896V189.812H38.336C39.04 189.812 39.592 189.596 39.992 189.164C40.392 188.724 40.592 187.94 40.592 186.812C40.592 186.028 40.488 185.424 40.28 185C40.08 184.568 39.812 184.276 39.476 184.124C39.148 183.972 38.752 183.896 38.288 183.896H37.556ZM48.0281 191L47.5121 189.08H44.7641L44.2481 191H42.6041L45.1841 182.708H47.1401L49.7081 191H48.0281ZM45.0761 187.88H47.1881L46.1321 183.92L45.0761 187.88ZM55.3625 182.708L55.1945 183.968H53.0345V191H51.4385V183.968H49.2065V182.708H55.3625ZM61.2098 182.708L61.0418 183.884H57.9818V186.2H60.6458V187.376H57.9818V189.812H61.2578V191H56.3978V182.708H61.2098Z" fill="#6B7B8C"/>
<path d="M19 164H435H19ZM435 205H19V203H435V205ZM19 204V164V204ZM435 164V204V164Z" fill="#E5E7EB" mask="url(#path-11-inside-1_3202_31799)"/>
<rect x="35" y="230" width="150" height="8" rx="4" fill="#E9EDF3"/>
<rect width="416" height="60" transform="translate(19 264)" fill="#F9FAFC"/>
<rect x="35" y="290" width="150" height="8" rx="4" fill="#E9EDF3"/>
<path d="M440.508 191V187.292H437.556V191H435.972V182.708H437.556V186.032H440.508V182.708H442.104V191H440.508ZM447.215 182.528C447.959 182.528 448.603 182.696 449.147 183.032C449.691 183.368 450.107 183.86 450.395 184.508C450.691 185.156 450.839 185.936 450.839 186.848C450.839 187.752 450.691 188.528 450.395 189.176C450.099 189.824 449.679 190.32 449.135 190.664C448.591 191.008 447.951 191.18 447.215 191.18C446.471 191.18 445.827 191.012 445.283 190.676C444.739 190.34 444.319 189.848 444.023 189.2C443.727 188.552 443.579 187.772 443.579 186.86C443.579 185.964 443.727 185.192 444.023 184.544C444.319 183.888 444.739 183.388 445.283 183.044C445.835 182.7 446.479 182.528 447.215 182.528ZM447.215 183.74C446.575 183.74 446.087 183.992 445.751 184.496C445.415 184.992 445.247 185.78 445.247 186.86C445.247 188.932 445.903 189.968 447.215 189.968C447.855 189.968 448.339 189.72 448.667 189.224C449.003 188.728 449.171 187.936 449.171 186.848C449.171 185.768 449.003 184.98 448.667 184.484C448.339 183.988 447.855 183.74 447.215 183.74ZM458.379 188.288C458.379 188.848 458.259 189.348 458.019 189.788C457.787 190.22 457.435 190.56 456.963 190.808C456.499 191.056 455.939 191.18 455.283 191.18C454.291 191.18 453.531 190.92 453.003 190.4C452.475 189.872 452.211 189.168 452.211 188.288V182.708H453.795V188.204C453.795 188.788 453.915 189.224 454.155 189.512C454.403 189.8 454.779 189.944 455.283 189.944C455.795 189.944 456.171 189.8 456.411 189.512C456.659 189.224 456.783 188.788 456.783 188.204V182.708H458.379V188.288ZM462.798 187.676H461.79V191H460.206V182.708H462.678C464.87 182.708 465.966 183.52 465.966 185.144C465.966 185.696 465.83 186.152 465.558 186.512C465.286 186.872 464.862 187.164 464.286 187.388L466.458 191H464.634L462.798 187.676ZM461.79 186.536H462.774C463.278 186.536 463.658 186.428 463.914 186.212C464.178 185.988 464.31 185.632 464.31 185.144C464.31 184.696 464.174 184.372 463.902 184.172C463.638 183.964 463.218 183.86 462.642 183.86H461.79V186.536Z" fill="#6B7B8C"/>
<path d="M851 203H435V205H851V203Z" fill="#E5E7EB" mask="url(#path-16-inside-2_3202_31799)"/>
<rect x="451" y="230" width="150" height="8" rx="4" fill="#E9EDF3"/>
<rect width="416" height="60" transform="translate(435 264)" fill="#F9FAFC"/>
<rect x="451" y="290" width="150" height="8" rx="4" fill="#E9EDF3"/>
<path d="M856.364 191L855.848 189.08H853.1L852.584 191H850.94L853.52 182.708H855.476L858.044 191H856.364ZM853.412 187.88H855.524L854.468 183.92L853.412 187.88ZM862.019 182.528C862.523 182.528 862.963 182.6 863.339 182.744C863.715 182.888 864.083 183.108 864.443 183.404L863.639 184.34C863.151 183.948 862.639 183.752 862.103 183.752C861.487 183.752 860.991 184 860.615 184.496C860.247 184.992 860.063 185.772 860.063 186.836C860.063 187.876 860.247 188.648 860.615 189.152C860.983 189.656 861.479 189.908 862.103 189.908C862.431 189.908 862.723 189.852 862.979 189.74C863.235 189.62 863.507 189.452 863.795 189.236L864.539 190.172C864.259 190.46 863.903 190.7 863.471 190.892C863.047 191.084 862.571 191.18 862.043 191.18C861.323 191.18 860.687 191.012 860.135 190.676C859.583 190.34 859.155 189.848 858.851 189.2C858.547 188.544 858.395 187.756 858.395 186.836C858.395 185.932 858.551 185.156 858.863 184.508C859.183 183.86 859.615 183.368 860.159 183.032C860.711 182.696 861.331 182.528 862.019 182.528ZM868.605 182.528C869.109 182.528 869.549 182.6 869.925 182.744C870.301 182.888 870.669 183.108 871.029 183.404L870.225 184.34C869.737 183.948 869.225 183.752 868.689 183.752C868.073 183.752 867.577 184 867.201 184.496C866.833 184.992 866.649 185.772 866.649 186.836C866.649 187.876 866.833 188.648 867.201 189.152C867.569 189.656 868.065 189.908 868.689 189.908C869.017 189.908 869.309 189.852 869.565 189.74C869.821 189.62 870.093 189.452 870.381 189.236L871.125 190.172C870.845 190.46 870.489 190.7 870.057 190.892C869.633 191.084 869.157 191.18 868.629 191.18C867.909 191.18 867.273 191.012 866.721 190.676C866.169 190.34 865.741 189.848 865.437 189.2C865.133 188.544 864.981 187.756 864.981 186.836C864.981 185.932 865.137 185.156 865.449 184.508C865.769 183.86 866.201 183.368 866.745 183.032C867.297 182.696 867.917 182.528 868.605 182.528ZM875.203 182.528C875.947 182.528 876.591 182.696 877.135 183.032C877.679 183.368 878.095 183.86 878.383 184.508C878.679 185.156 878.827 185.936 878.827 186.848C878.827 187.752 878.679 188.528 878.383 189.176C878.087 189.824 877.667 190.32 877.123 190.664C876.579 191.008 875.939 191.18 875.203 191.18C874.459 191.18 873.815 191.012 873.271 190.676C872.727 190.34 872.307 189.848 872.011 189.2C871.715 188.552 871.567 187.772 871.567 186.86C871.567 185.964 871.715 185.192 872.011 184.544C872.307 183.888 872.727 183.388 873.271 183.044C873.823 182.7 874.467 182.528 875.203 182.528ZM875.203 183.74C874.563 183.74 874.075 183.992 873.739 184.496C873.403 184.992 873.235 185.78 873.235 186.86C873.235 188.932 873.891 189.968 875.203 189.968C875.843 189.968 876.327 189.72 876.655 189.224C876.991 188.728 877.159 187.936 877.159 186.848C877.159 185.768 876.991 184.98 876.655 184.484C876.327 183.988 875.843 183.74 875.203 183.74ZM886.368 188.288C886.368 188.848 886.248 189.348 886.008 189.788C885.776 190.22 885.424 190.56 884.952 190.808C884.488 191.056 883.928 191.18 883.272 191.18C882.28 191.18 881.52 190.92 880.992 190.4C880.464 189.872 880.2 189.168 880.2 188.288V182.708H881.784V188.204C881.784 188.788 881.904 189.224 882.144 189.512C882.392 189.8 882.768 189.944 883.272 189.944C883.784 189.944 884.16 189.8 884.4 189.512C884.648 189.224 884.772 188.788 884.772 188.204V182.708H886.368V188.288ZM894.315 191H892.263L889.419 184.292C889.491 184.884 889.543 185.42 889.575 185.9C889.615 186.38 889.635 186.952 889.635 187.616V191H888.195V182.708H890.199L893.091 189.428C893.043 189.108 892.995 188.688 892.947 188.168C892.899 187.64 892.875 187.116 892.875 186.596V182.708H894.315V191ZM901.585 182.708L901.417 183.968H899.257V191H897.661V183.968H895.429V182.708H901.585ZM908.068 182.708C909.132 182.708 909.956 182.928 910.54 183.368C911.132 183.808 911.428 184.468 911.428 185.348C911.428 186.268 911.132 186.96 910.54 187.424C909.948 187.88 909.16 188.108 908.176 188.108H907.204V191H905.62V182.708H908.068ZM908.056 186.92C908.624 186.92 909.052 186.804 909.34 186.572C909.628 186.332 909.772 185.924 909.772 185.348C909.772 184.364 909.2 183.872 908.056 183.872H907.204V186.92H908.056ZM916.387 191L915.871 189.08H913.123L912.607 191H910.963L913.543 182.708H915.499L918.067 191H916.387ZM913.435 187.88H915.547L914.491 183.92L913.435 187.88ZM920.576 182.708V191H918.992V182.708H920.576ZM924.559 182.708C925.847 182.708 926.875 183 927.643 183.584C928.419 184.168 928.807 185.244 928.807 186.812C928.807 188.348 928.427 189.432 927.667 190.064C926.907 190.688 925.943 191 924.775 191H922.519V182.708H924.559ZM924.103 183.896V189.812H924.883C925.587 189.812 926.139 189.596 926.539 189.164C926.939 188.724 927.139 187.94 927.139 186.812C927.139 186.028 927.035 185.424 926.827 185C926.627 184.568 926.359 184.276 926.023 184.124C925.695 183.972 925.299 183.896 924.835 183.896H924.103Z" fill="#6B7B8C"/>
<path d="M851 164H1267H851ZM1267 205H851V203H1267V205ZM851 204V164V204ZM1267 164V204V164Z" fill="#E5E7EB" mask="url(#path-21-inside-3_3202_31799)"/>
<rect x="867" y="230" width="150" height="8" rx="4" fill="#E9EDF3"/>
<rect width="416" height="60" transform="translate(851 264)" fill="#F9FAFC"/>
<rect x="867" y="290" width="150" height="8" rx="4" fill="#E9EDF3"/>
<defs>
<filter id="filter0_dd_3202_31799" x="0" y="0" width="1286" height="660" filterUnits="userSpaceOnUse" color-interpolation-filters="sRGB">
<feFlood flood-opacity="0" result="BackgroundImageFix"/>
<feColorMatrix in="SourceAlpha" type="matrix" values="0 0 0 0 0 0 0 0 0 0 0 0 0 0 0 0 0 0 127 0" result="hardAlpha"/>
<feOffset dy="1"/>
<feGaussianBlur stdDeviation="1.5"/>
<feColorMatrix type="matrix" values="0 0 0 0 0.121569 0 0 0 0 0.219608 0 0 0 0 0.298039 0 0 0 0.1 0"/>
<feBlend mode="normal" in2="BackgroundImageFix" result="effect1_dropShadow_3202_31799"/>
<feColorMatrix in="SourceAlpha" type="matrix" values="0 0 0 0 0 0 0 0 0 0 0 0 0 0 0 0 0 0 127 0" result="hardAlpha"/>
<feOffset dy="1"/>
<feGaussianBlur stdDeviation="1"/>
<feColorMatrix type="matrix" values="0 0 0 0 0.121569 0 0 0 0 0.219608 0 0 0 0 0.298039 0 0 0 0.06 0"/>
<feBlend mode="normal" in2="effect1_dropShadow_3202_31799" result="effect2_dropShadow_3202_31799"/>
<feBlend mode="normal" in="SourceGraphic" in2="effect2_dropShadow_3202_31799" result="shape"/>
</filter>
<linearGradient id="paint0_linear_3202_31799" x1="34.9653" y1="62.0328" x2="34.9653" y2="46.0613" gradientUnits="userSpaceOnUse">
<stop stop-color="#E9EDF3"/>
<stop offset="0.461458" stop-color="#F9FAFC"/>
<stop offset="1" stop-color="#EAF3FA"/>
</linearGradient>
<linearGradient id="paint1_linear_3202_31799" x1="51" y1="38" x2="250" y2="37.9999" gradientUnits="userSpaceOnUse">
<stop stop-color="#E9EDF3"/>
<stop offset="0.461458" stop-color="#F9FAFC"/>
<stop offset="1" stop-color="#EAF3FA"/>
</linearGradient>
<linearGradient id="paint2_linear_3202_31799" x1="27" y1="68" x2="407" y2="67.9999" gradientUnits="userSpaceOnUse">
<stop stop-color="#E9EDF3"/>
<stop offset="0.461458" stop-color="#F9FAFC"/>
<stop offset="1" stop-color="#EAF3FA"/>
</linearGradient>
<linearGradient id="paint3_linear_3202_31799" x1="509" y1="45" x2="573" y2="44.9999" gradientUnits="userSpaceOnUse">
<stop stop-color="#E9EDF3"/>
<stop offset="0.461458" stop-color="#F9FAFC"/>
<stop offset="1" stop-color="#EAF3FA"/>
</linearGradient>
<linearGradient id="paint4_linear_3202_31799" x1="635" y1="45" x2="785" y2="44.9999" gradientUnits="userSpaceOnUse">
<stop stop-color="#E9EDF3"/>
<stop offset="0.461458" stop-color="#F9FAFC"/>
<stop offset="1" stop-color="#EAF3FA"/>
</linearGradient>
<linearGradient id="paint5_linear_3202_31799" x1="27" y1="130" x2="219" y2="130" gradientUnits="userSpaceOnUse">
<stop stop-color="#E9EDF3"/>
<stop offset="0.461458" stop-color="#F9FAFC"/>
<stop offset="1" stop-color="#EAF3FA"/>
</linearGradient>
<linearGradient id="paint6_linear_3202_31799" x1="1115" y1="130" x2="1258" y2="130" gradientUnits="userSpaceOnUse">
<stop stop-color="#E9EDF3"/>
<stop offset="0.461458" stop-color="#F9FAFC"/>
<stop offset="1" stop-color="#EAF3FA"/>
</linearGradient>
</defs>
</svg>
