<svg width="56" height="768" viewBox="0 0 56 768" fill="none" xmlns="http://www.w3.org/2000/svg">
<rect width="56" height="768" fill="white"/>
<rect x="14" y="116" width="28" height="28" rx="6" transform="rotate(-90 14 116)" fill="url(#paint0_linear_4746_35834)"/>
<rect x="14" y="49" width="28" height="28" rx="6" transform="rotate(-90 14 49)" fill="url(#paint1_linear_4746_35834)"/>
<rect x="14" y="185" width="28" height="28" rx="6" transform="rotate(-90 14 185)" fill="url(#paint2_linear_4746_35834)"/>
<rect x="14" y="239" width="28" height="28" rx="6" transform="rotate(-90 14 239)" fill="url(#paint3_linear_4746_35834)"/>
<rect x="14" y="299" width="28" height="28" rx="6" transform="rotate(-90 14 299)" fill="url(#paint4_linear_4746_35834)"/>
<rect x="14" y="359" width="28" height="28" rx="6" transform="rotate(-90 14 359)" fill="url(#paint5_linear_4746_35834)"/>
<rect x="14" y="419" width="28" height="28" rx="6" transform="rotate(-90 14 419)" fill="url(#paint6_linear_4746_35834)"/>
<rect x="14" y="479" width="28" height="28" rx="6" transform="rotate(-90 14 479)" fill="url(#paint7_linear_4746_35834)"/>
<rect x="14" y="539" width="28" height="28" rx="6" transform="rotate(-90 14 539)" fill="url(#paint8_linear_4746_35834)"/>
<defs>
<linearGradient id="paint0_linear_4746_35834" x1="27.9392" y1="144.057" x2="27.9393" y2="116.107" gradientUnits="userSpaceOnUse">
<stop stop-color="#E9EDF3"/>
<stop offset="0.461458" stop-color="#F9FAFC"/>
<stop offset="1" stop-color="#EAF3FA"/>
</linearGradient>
<linearGradient id="paint1_linear_4746_35834" x1="27.9392" y1="77.0573" x2="27.9393" y2="49.1073" gradientUnits="userSpaceOnUse">
<stop stop-color="#E9EDF3"/>
<stop offset="0.461458" stop-color="#F9FAFC"/>
<stop offset="1" stop-color="#EAF3FA"/>
</linearGradient>
<linearGradient id="paint2_linear_4746_35834" x1="27.9392" y1="213.057" x2="27.9393" y2="185.107" gradientUnits="userSpaceOnUse">
<stop stop-color="#E9EDF3"/>
<stop offset="0.461458" stop-color="#F9FAFC"/>
<stop offset="1" stop-color="#EAF3FA"/>
</linearGradient>
<linearGradient id="paint3_linear_4746_35834" x1="27.9392" y1="267.057" x2="27.9393" y2="239.107" gradientUnits="userSpaceOnUse">
<stop stop-color="#E9EDF3"/>
<stop offset="0.461458" stop-color="#F9FAFC"/>
<stop offset="1" stop-color="#EAF3FA"/>
</linearGradient>
<linearGradient id="paint4_linear_4746_35834" x1="27.9392" y1="327.057" x2="27.9393" y2="299.107" gradientUnits="userSpaceOnUse">
<stop stop-color="#E9EDF3"/>
<stop offset="0.461458" stop-color="#F9FAFC"/>
<stop offset="1" stop-color="#EAF3FA"/>
</linearGradient>
<linearGradient id="paint5_linear_4746_35834" x1="27.9392" y1="387.057" x2="27.9393" y2="359.107" gradientUnits="userSpaceOnUse">
<stop stop-color="#E9EDF3"/>
<stop offset="0.461458" stop-color="#F9FAFC"/>
<stop offset="1" stop-color="#EAF3FA"/>
</linearGradient>
<linearGradient id="paint6_linear_4746_35834" x1="27.9392" y1="447.057" x2="27.9393" y2="419.107" gradientUnits="userSpaceOnUse">
<stop stop-color="#E9EDF3"/>
<stop offset="0.461458" stop-color="#F9FAFC"/>
<stop offset="1" stop-color="#EAF3FA"/>
</linearGradient>
<linearGradient id="paint7_linear_4746_35834" x1="27.9392" y1="507.057" x2="27.9393" y2="479.107" gradientUnits="userSpaceOnUse">
<stop stop-color="#E9EDF3"/>
<stop offset="0.461458" stop-color="#F9FAFC"/>
<stop offset="1" stop-color="#EAF3FA"/>
</linearGradient>
<linearGradient id="paint8_linear_4746_35834" x1="27.9392" y1="567.057" x2="27.9393" y2="539.107" gradientUnits="userSpaceOnUse">
<stop stop-color="#E9EDF3"/>
<stop offset="0.461458" stop-color="#F9FAFC"/>
<stop offset="1" stop-color="#EAF3FA"/>
</linearGradient>
</defs>
</svg>
